<?xml version="1.0" encoding="utf-8" standalone="no"?>
<!DOCTYPE svg PUBLIC "-//W3C//DTD SVG 1.1//EN"
  "http://www.w3.org/Graphics/SVG/1.1/DTD/svg11.dtd">
<!-- Created with matplotlib (https://matplotlib.org/) -->
<svg height="276.788281pt" version="1.1" viewBox="0 0 384.159844 276.788281" width="384.159844pt" xmlns="http://www.w3.org/2000/svg" xmlns:xlink="http://www.w3.org/1999/xlink">
 <defs>
  <style type="text/css">
*{stroke-linecap:butt;stroke-linejoin:round;}
  </style>
 </defs>
 <g id="figure_1">
  <g id="patch_1">
   <path d="M 0 276.788281 
L 384.159844 276.788281 
L 384.159844 0 
L 0 0 
z
" style="fill:#ffffff;"/>
  </g>
  <g id="axes_1">
   <g id="patch_2">
    <path d="M 42.159844 239.383125 
L 376.959844 239.383125 
L 376.959844 21.943125 
L 42.159844 21.943125 
z
" style="fill:#ffffff;"/>
   </g>
   <g id="matplotlib.axis_1">
    <g id="xtick_1">
     <g id="line2d_1">
      <path clip-path="url(#p9b79d2f141)" d="M 57.378026 239.383125 
L 57.378026 21.943125 
" style="fill:none;stroke:#cccccc;stroke-linecap:round;"/>
     </g>
     <g id="line2d_2"/>
     <g id="text_1">
      <!-- 0.0 -->
      <defs>
       <path d="M 4.15625 35.296875 
Q 4.15625 48 6.765625 55.734375 
Q 9.375 63.484375 14.515625 67.671875 
Q 19.671875 71.875 27.484375 71.875 
Q 33.25 71.875 37.59375 69.546875 
Q 41.9375 67.234375 44.765625 62.859375 
Q 47.609375 58.5 49.21875 52.21875 
Q 50.828125 45.953125 50.828125 35.296875 
Q 50.828125 22.703125 48.234375 14.96875 
Q 45.65625 7.234375 40.5 3 
Q 35.359375 -1.21875 27.484375 -1.21875 
Q 17.140625 -1.21875 11.234375 6.203125 
Q 4.15625 15.140625 4.15625 35.296875 
z
M 13.1875 35.296875 
Q 13.1875 17.671875 17.3125 11.828125 
Q 21.4375 6 27.484375 6 
Q 33.546875 6 37.671875 11.859375 
Q 41.796875 17.71875 41.796875 35.296875 
Q 41.796875 52.984375 37.671875 58.78125 
Q 33.546875 64.59375 27.390625 64.59375 
Q 21.34375 64.59375 17.71875 59.46875 
Q 13.1875 52.9375 13.1875 35.296875 
z
" id="ArialMT-48"/>
       <path d="M 9.078125 0 
L 9.078125 10.015625 
L 19.09375 10.015625 
L 19.09375 0 
z
" id="ArialMT-46"/>
      </defs>
      <g style="fill:#262626;" transform="translate(50.428026 253.540938)scale(0.1 -0.1)">
       <use xlink:href="#ArialMT-48"/>
       <use x="55.615234" xlink:href="#ArialMT-46"/>
       <use x="83.398438" xlink:href="#ArialMT-48"/>
      </g>
     </g>
    </g>
    <g id="xtick_2">
     <g id="line2d_3">
      <path clip-path="url(#p9b79d2f141)" d="M 118.250753 239.383125 
L 118.250753 21.943125 
" style="fill:none;stroke:#cccccc;stroke-linecap:round;"/>
     </g>
     <g id="line2d_4"/>
     <g id="text_2">
      <!-- 0.2 -->
      <defs>
       <path d="M 50.34375 8.453125 
L 50.34375 0 
L 3.03125 0 
Q 2.9375 3.171875 4.046875 6.109375 
Q 5.859375 10.9375 9.828125 15.625 
Q 13.8125 20.3125 21.34375 26.46875 
Q 33.015625 36.03125 37.109375 41.625 
Q 41.21875 47.21875 41.21875 52.203125 
Q 41.21875 57.421875 37.46875 61 
Q 33.734375 64.59375 27.734375 64.59375 
Q 21.390625 64.59375 17.578125 60.78125 
Q 13.765625 56.984375 13.71875 50.25 
L 4.6875 51.171875 
Q 5.609375 61.28125 11.65625 66.578125 
Q 17.71875 71.875 27.9375 71.875 
Q 38.234375 71.875 44.234375 66.15625 
Q 50.25 60.453125 50.25 52 
Q 50.25 47.703125 48.484375 43.546875 
Q 46.734375 39.40625 42.65625 34.8125 
Q 38.578125 30.21875 29.109375 22.21875 
Q 21.1875 15.578125 18.9375 13.203125 
Q 16.703125 10.84375 15.234375 8.453125 
z
" id="ArialMT-50"/>
      </defs>
      <g style="fill:#262626;" transform="translate(111.300753 253.540938)scale(0.1 -0.1)">
       <use xlink:href="#ArialMT-48"/>
       <use x="55.615234" xlink:href="#ArialMT-46"/>
       <use x="83.398438" xlink:href="#ArialMT-50"/>
      </g>
     </g>
    </g>
    <g id="xtick_3">
     <g id="line2d_5">
      <path clip-path="url(#p9b79d2f141)" d="M 179.12348 239.383125 
L 179.12348 21.943125 
" style="fill:none;stroke:#cccccc;stroke-linecap:round;"/>
     </g>
     <g id="line2d_6"/>
     <g id="text_3">
      <!-- 0.4 -->
      <defs>
       <path d="M 32.328125 0 
L 32.328125 17.140625 
L 1.265625 17.140625 
L 1.265625 25.203125 
L 33.9375 71.578125 
L 41.109375 71.578125 
L 41.109375 25.203125 
L 50.78125 25.203125 
L 50.78125 17.140625 
L 41.109375 17.140625 
L 41.109375 0 
z
M 32.328125 25.203125 
L 32.328125 57.46875 
L 9.90625 25.203125 
z
" id="ArialMT-52"/>
      </defs>
      <g style="fill:#262626;" transform="translate(172.17348 253.540938)scale(0.1 -0.1)">
       <use xlink:href="#ArialMT-48"/>
       <use x="55.615234" xlink:href="#ArialMT-46"/>
       <use x="83.398438" xlink:href="#ArialMT-52"/>
      </g>
     </g>
    </g>
    <g id="xtick_4">
     <g id="line2d_7">
      <path clip-path="url(#p9b79d2f141)" d="M 239.996207 239.383125 
L 239.996207 21.943125 
" style="fill:none;stroke:#cccccc;stroke-linecap:round;"/>
     </g>
     <g id="line2d_8"/>
     <g id="text_4">
      <!-- 0.6 -->
      <defs>
       <path d="M 49.75 54.046875 
L 41.015625 53.375 
Q 39.84375 58.546875 37.703125 60.890625 
Q 34.125 64.65625 28.90625 64.65625 
Q 24.703125 64.65625 21.53125 62.3125 
Q 17.390625 59.28125 14.984375 53.46875 
Q 12.59375 47.65625 12.5 36.921875 
Q 15.671875 41.75 20.265625 44.09375 
Q 24.859375 46.4375 29.890625 46.4375 
Q 38.671875 46.4375 44.84375 39.96875 
Q 51.03125 33.5 51.03125 23.25 
Q 51.03125 16.5 48.125 10.71875 
Q 45.21875 4.9375 40.140625 1.859375 
Q 35.0625 -1.21875 28.609375 -1.21875 
Q 17.625 -1.21875 10.6875 6.859375 
Q 3.765625 14.9375 3.765625 33.5 
Q 3.765625 54.25 11.421875 63.671875 
Q 18.109375 71.875 29.4375 71.875 
Q 37.890625 71.875 43.28125 67.140625 
Q 48.6875 62.40625 49.75 54.046875 
z
M 13.875 23.1875 
Q 13.875 18.65625 15.796875 14.5 
Q 17.71875 10.359375 21.1875 8.171875 
Q 24.65625 6 28.46875 6 
Q 34.03125 6 38.03125 10.484375 
Q 42.046875 14.984375 42.046875 22.703125 
Q 42.046875 30.125 38.078125 34.390625 
Q 34.125 38.671875 28.125 38.671875 
Q 22.171875 38.671875 18.015625 34.390625 
Q 13.875 30.125 13.875 23.1875 
z
" id="ArialMT-54"/>
      </defs>
      <g style="fill:#262626;" transform="translate(233.046207 253.540938)scale(0.1 -0.1)">
       <use xlink:href="#ArialMT-48"/>
       <use x="55.615234" xlink:href="#ArialMT-46"/>
       <use x="83.398438" xlink:href="#ArialMT-54"/>
      </g>
     </g>
    </g>
    <g id="xtick_5">
     <g id="line2d_9">
      <path clip-path="url(#p9b79d2f141)" d="M 300.868935 239.383125 
L 300.868935 21.943125 
" style="fill:none;stroke:#cccccc;stroke-linecap:round;"/>
     </g>
     <g id="line2d_10"/>
     <g id="text_5">
      <!-- 0.8 -->
      <defs>
       <path d="M 17.671875 38.8125 
Q 12.203125 40.828125 9.5625 44.53125 
Q 6.9375 48.25 6.9375 53.421875 
Q 6.9375 61.234375 12.546875 66.546875 
Q 18.171875 71.875 27.484375 71.875 
Q 36.859375 71.875 42.578125 66.421875 
Q 48.296875 60.984375 48.296875 53.171875 
Q 48.296875 48.1875 45.671875 44.5 
Q 43.0625 40.828125 37.75 38.8125 
Q 44.34375 36.671875 47.78125 31.875 
Q 51.21875 27.09375 51.21875 20.453125 
Q 51.21875 11.28125 44.71875 5.03125 
Q 38.234375 -1.21875 27.640625 -1.21875 
Q 17.046875 -1.21875 10.546875 5.046875 
Q 4.046875 11.328125 4.046875 20.703125 
Q 4.046875 27.6875 7.59375 32.390625 
Q 11.140625 37.109375 17.671875 38.8125 
z
M 15.921875 53.71875 
Q 15.921875 48.640625 19.1875 45.40625 
Q 22.46875 42.1875 27.6875 42.1875 
Q 32.765625 42.1875 36.015625 45.375 
Q 39.265625 48.578125 39.265625 53.21875 
Q 39.265625 58.0625 35.90625 61.359375 
Q 32.5625 64.65625 27.59375 64.65625 
Q 22.5625 64.65625 19.234375 61.421875 
Q 15.921875 58.203125 15.921875 53.71875 
z
M 13.09375 20.65625 
Q 13.09375 16.890625 14.875 13.375 
Q 16.65625 9.859375 20.171875 7.921875 
Q 23.6875 6 27.734375 6 
Q 34.03125 6 38.125 10.046875 
Q 42.234375 14.109375 42.234375 20.359375 
Q 42.234375 26.703125 38.015625 30.859375 
Q 33.796875 35.015625 27.4375 35.015625 
Q 21.234375 35.015625 17.15625 30.90625 
Q 13.09375 26.8125 13.09375 20.65625 
z
" id="ArialMT-56"/>
      </defs>
      <g style="fill:#262626;" transform="translate(293.918935 253.540938)scale(0.1 -0.1)">
       <use xlink:href="#ArialMT-48"/>
       <use x="55.615234" xlink:href="#ArialMT-46"/>
       <use x="83.398438" xlink:href="#ArialMT-56"/>
      </g>
     </g>
    </g>
    <g id="xtick_6">
     <g id="line2d_11">
      <path clip-path="url(#p9b79d2f141)" d="M 361.741662 239.383125 
L 361.741662 21.943125 
" style="fill:none;stroke:#cccccc;stroke-linecap:round;"/>
     </g>
     <g id="line2d_12"/>
     <g id="text_6">
      <!-- 1.0 -->
      <defs>
       <path d="M 37.25 0 
L 28.46875 0 
L 28.46875 56 
Q 25.296875 52.984375 20.140625 49.953125 
Q 14.984375 46.921875 10.890625 45.40625 
L 10.890625 53.90625 
Q 18.265625 57.375 23.78125 62.296875 
Q 29.296875 67.234375 31.59375 71.875 
L 37.25 71.875 
z
" id="ArialMT-49"/>
      </defs>
      <g style="fill:#262626;" transform="translate(354.791662 253.540938)scale(0.1 -0.1)">
       <use xlink:href="#ArialMT-49"/>
       <use x="55.615234" xlink:href="#ArialMT-46"/>
       <use x="83.398438" xlink:href="#ArialMT-48"/>
      </g>
     </g>
    </g>
    <g id="text_7">
     <!-- False positive rate -->
     <defs>
      <path d="M 8.203125 0 
L 8.203125 71.578125 
L 56.5 71.578125 
L 56.5 63.140625 
L 17.671875 63.140625 
L 17.671875 40.96875 
L 51.265625 40.96875 
L 51.265625 32.515625 
L 17.671875 32.515625 
L 17.671875 0 
z
" id="ArialMT-70"/>
      <path d="M 40.4375 6.390625 
Q 35.546875 2.25 31.03125 0.53125 
Q 26.515625 -1.171875 21.34375 -1.171875 
Q 12.796875 -1.171875 8.203125 3 
Q 3.609375 7.171875 3.609375 13.671875 
Q 3.609375 17.484375 5.34375 20.625 
Q 7.078125 23.78125 9.890625 25.6875 
Q 12.703125 27.59375 16.21875 28.5625 
Q 18.796875 29.25 24.03125 29.890625 
Q 34.671875 31.15625 39.703125 32.90625 
Q 39.75 34.71875 39.75 35.203125 
Q 39.75 40.578125 37.25 42.78125 
Q 33.890625 45.75 27.25 45.75 
Q 21.046875 45.75 18.09375 43.578125 
Q 15.140625 41.40625 13.71875 35.890625 
L 5.125 37.0625 
Q 6.296875 42.578125 8.984375 45.96875 
Q 11.671875 49.359375 16.75 51.1875 
Q 21.828125 53.03125 28.515625 53.03125 
Q 35.15625 53.03125 39.296875 51.46875 
Q 43.453125 49.90625 45.40625 47.53125 
Q 47.359375 45.171875 48.140625 41.546875 
Q 48.578125 39.3125 48.578125 33.453125 
L 48.578125 21.734375 
Q 48.578125 9.46875 49.140625 6.21875 
Q 49.703125 2.984375 51.375 0 
L 42.1875 0 
Q 40.828125 2.734375 40.4375 6.390625 
z
M 39.703125 26.03125 
Q 34.90625 24.078125 25.34375 22.703125 
Q 19.921875 21.921875 17.671875 20.9375 
Q 15.4375 19.96875 14.203125 18.09375 
Q 12.984375 16.21875 12.984375 13.921875 
Q 12.984375 10.40625 15.640625 8.0625 
Q 18.3125 5.71875 23.4375 5.71875 
Q 28.515625 5.71875 32.46875 7.9375 
Q 36.421875 10.15625 38.28125 14.015625 
Q 39.703125 17 39.703125 22.796875 
z
" id="ArialMT-97"/>
      <path d="M 6.390625 0 
L 6.390625 71.578125 
L 15.1875 71.578125 
L 15.1875 0 
z
" id="ArialMT-108"/>
      <path d="M 3.078125 15.484375 
L 11.765625 16.84375 
Q 12.5 11.625 15.84375 8.84375 
Q 19.1875 6.0625 25.203125 6.0625 
Q 31.25 6.0625 34.171875 8.515625 
Q 37.109375 10.984375 37.109375 14.3125 
Q 37.109375 17.28125 34.515625 19 
Q 32.71875 20.171875 25.53125 21.96875 
Q 15.875 24.421875 12.140625 26.203125 
Q 8.40625 27.984375 6.46875 31.125 
Q 4.546875 34.28125 4.546875 38.09375 
Q 4.546875 41.546875 6.125 44.5 
Q 7.71875 47.46875 10.453125 49.421875 
Q 12.5 50.921875 16.03125 51.96875 
Q 19.578125 53.03125 23.640625 53.03125 
Q 29.734375 53.03125 34.34375 51.265625 
Q 38.96875 49.515625 41.15625 46.5 
Q 43.359375 43.5 44.1875 38.484375 
L 35.59375 37.3125 
Q 35.015625 41.3125 32.203125 43.546875 
Q 29.390625 45.796875 24.265625 45.796875 
Q 18.21875 45.796875 15.625 43.796875 
Q 13.03125 41.796875 13.03125 39.109375 
Q 13.03125 37.40625 14.109375 36.03125 
Q 15.1875 34.625 17.484375 33.6875 
Q 18.796875 33.203125 25.25 31.453125 
Q 34.578125 28.953125 38.25 27.359375 
Q 41.9375 25.78125 44.03125 22.75 
Q 46.140625 19.734375 46.140625 15.234375 
Q 46.140625 10.84375 43.578125 6.953125 
Q 41.015625 3.078125 36.171875 0.953125 
Q 31.34375 -1.171875 25.25 -1.171875 
Q 15.140625 -1.171875 9.84375 3.03125 
Q 4.546875 7.234375 3.078125 15.484375 
z
" id="ArialMT-115"/>
      <path d="M 42.09375 16.703125 
L 51.171875 15.578125 
Q 49.03125 7.625 43.21875 3.21875 
Q 37.40625 -1.171875 28.375 -1.171875 
Q 17 -1.171875 10.328125 5.828125 
Q 3.65625 12.84375 3.65625 25.484375 
Q 3.65625 38.578125 10.390625 45.796875 
Q 17.140625 53.03125 27.875 53.03125 
Q 38.28125 53.03125 44.875 45.953125 
Q 51.46875 38.875 51.46875 26.03125 
Q 51.46875 25.25 51.421875 23.6875 
L 12.75 23.6875 
Q 13.234375 15.140625 17.578125 10.59375 
Q 21.921875 6.0625 28.421875 6.0625 
Q 33.25 6.0625 36.671875 8.59375 
Q 40.09375 11.140625 42.09375 16.703125 
z
M 13.234375 30.90625 
L 42.1875 30.90625 
Q 41.609375 37.453125 38.875 40.71875 
Q 34.671875 45.796875 27.984375 45.796875 
Q 21.921875 45.796875 17.796875 41.75 
Q 13.671875 37.703125 13.234375 30.90625 
z
" id="ArialMT-101"/>
      <path id="ArialMT-32"/>
      <path d="M 6.59375 -19.875 
L 6.59375 51.859375 
L 14.59375 51.859375 
L 14.59375 45.125 
Q 17.4375 49.078125 21 51.046875 
Q 24.5625 53.03125 29.640625 53.03125 
Q 36.28125 53.03125 41.359375 49.609375 
Q 46.4375 46.1875 49.015625 39.953125 
Q 51.609375 33.734375 51.609375 26.3125 
Q 51.609375 18.359375 48.75 11.984375 
Q 45.90625 5.609375 40.453125 2.21875 
Q 35.015625 -1.171875 29 -1.171875 
Q 24.609375 -1.171875 21.109375 0.6875 
Q 17.625 2.546875 15.375 5.375 
L 15.375 -19.875 
z
M 14.546875 25.640625 
Q 14.546875 15.625 18.59375 10.84375 
Q 22.65625 6.0625 28.421875 6.0625 
Q 34.28125 6.0625 38.453125 11.015625 
Q 42.625 15.96875 42.625 26.375 
Q 42.625 36.28125 38.546875 41.203125 
Q 34.46875 46.140625 28.8125 46.140625 
Q 23.1875 46.140625 18.859375 40.890625 
Q 14.546875 35.640625 14.546875 25.640625 
z
" id="ArialMT-112"/>
      <path d="M 3.328125 25.921875 
Q 3.328125 40.328125 11.328125 47.265625 
Q 18.015625 53.03125 27.640625 53.03125 
Q 38.328125 53.03125 45.109375 46.015625 
Q 51.90625 39.015625 51.90625 26.65625 
Q 51.90625 16.65625 48.90625 10.90625 
Q 45.90625 5.171875 40.15625 2 
Q 34.421875 -1.171875 27.640625 -1.171875 
Q 16.75 -1.171875 10.03125 5.8125 
Q 3.328125 12.796875 3.328125 25.921875 
z
M 12.359375 25.921875 
Q 12.359375 15.96875 16.703125 11.015625 
Q 21.046875 6.0625 27.640625 6.0625 
Q 34.1875 6.0625 38.53125 11.03125 
Q 42.875 16.015625 42.875 26.21875 
Q 42.875 35.84375 38.5 40.796875 
Q 34.125 45.75 27.640625 45.75 
Q 21.046875 45.75 16.703125 40.8125 
Q 12.359375 35.890625 12.359375 25.921875 
z
" id="ArialMT-111"/>
      <path d="M 6.640625 61.46875 
L 6.640625 71.578125 
L 15.4375 71.578125 
L 15.4375 61.46875 
z
M 6.640625 0 
L 6.640625 51.859375 
L 15.4375 51.859375 
L 15.4375 0 
z
" id="ArialMT-105"/>
      <path d="M 25.78125 7.859375 
L 27.046875 0.09375 
Q 23.34375 -0.6875 20.40625 -0.6875 
Q 15.625 -0.6875 12.984375 0.828125 
Q 10.359375 2.34375 9.28125 4.8125 
Q 8.203125 7.28125 8.203125 15.1875 
L 8.203125 45.015625 
L 1.765625 45.015625 
L 1.765625 51.859375 
L 8.203125 51.859375 
L 8.203125 64.703125 
L 16.9375 69.96875 
L 16.9375 51.859375 
L 25.78125 51.859375 
L 25.78125 45.015625 
L 16.9375 45.015625 
L 16.9375 14.703125 
Q 16.9375 10.9375 17.40625 9.859375 
Q 17.875 8.796875 18.921875 8.15625 
Q 19.96875 7.515625 21.921875 7.515625 
Q 23.390625 7.515625 25.78125 7.859375 
z
" id="ArialMT-116"/>
      <path d="M 21 0 
L 1.265625 51.859375 
L 10.546875 51.859375 
L 21.6875 20.796875 
Q 23.484375 15.765625 25 10.359375 
Q 26.171875 14.453125 28.265625 20.21875 
L 39.796875 51.859375 
L 48.828125 51.859375 
L 29.203125 0 
z
" id="ArialMT-118"/>
      <path d="M 6.5 0 
L 6.5 51.859375 
L 14.40625 51.859375 
L 14.40625 44 
Q 17.4375 49.515625 20 51.265625 
Q 22.5625 53.03125 25.640625 53.03125 
Q 30.078125 53.03125 34.671875 50.203125 
L 31.640625 42.046875 
Q 28.421875 43.953125 25.203125 43.953125 
Q 22.3125 43.953125 20.015625 42.21875 
Q 17.71875 40.484375 16.75 37.40625 
Q 15.28125 32.71875 15.28125 27.15625 
L 15.28125 0 
z
" id="ArialMT-114"/>
     </defs>
     <g style="fill:#262626;" transform="translate(164.931641 267.402031)scale(0.11 -0.11)">
      <use xlink:href="#ArialMT-70"/>
      <use x="61.083984" xlink:href="#ArialMT-97"/>
      <use x="116.699219" xlink:href="#ArialMT-108"/>
      <use x="138.916016" xlink:href="#ArialMT-115"/>
      <use x="188.916016" xlink:href="#ArialMT-101"/>
      <use x="244.53125" xlink:href="#ArialMT-32"/>
      <use x="272.314453" xlink:href="#ArialMT-112"/>
      <use x="327.929688" xlink:href="#ArialMT-111"/>
      <use x="383.544922" xlink:href="#ArialMT-115"/>
      <use x="433.544922" xlink:href="#ArialMT-105"/>
      <use x="455.761719" xlink:href="#ArialMT-116"/>
      <use x="483.544922" xlink:href="#ArialMT-105"/>
      <use x="505.761719" xlink:href="#ArialMT-118"/>
      <use x="555.761719" xlink:href="#ArialMT-101"/>
      <use x="611.376953" xlink:href="#ArialMT-32"/>
      <use x="639.160156" xlink:href="#ArialMT-114"/>
      <use x="672.460938" xlink:href="#ArialMT-97"/>
      <use x="728.076172" xlink:href="#ArialMT-116"/>
      <use x="755.859375" xlink:href="#ArialMT-101"/>
     </g>
    </g>
   </g>
   <g id="matplotlib.axis_2">
    <g id="ytick_1">
     <g id="line2d_13">
      <path clip-path="url(#p9b79d2f141)" d="M 42.159844 229.499489 
L 376.959844 229.499489 
" style="fill:none;stroke:#cccccc;stroke-linecap:round;"/>
     </g>
     <g id="line2d_14"/>
     <g id="text_8">
      <!-- 0.0 -->
      <g style="fill:#262626;" transform="translate(21.259844 233.078395)scale(0.1 -0.1)">
       <use xlink:href="#ArialMT-48"/>
       <use x="55.615234" xlink:href="#ArialMT-46"/>
       <use x="83.398438" xlink:href="#ArialMT-48"/>
      </g>
     </g>
    </g>
    <g id="ytick_2">
     <g id="line2d_15">
      <path clip-path="url(#p9b79d2f141)" d="M 42.159844 189.964943 
L 376.959844 189.964943 
" style="fill:none;stroke:#cccccc;stroke-linecap:round;"/>
     </g>
     <g id="line2d_16"/>
     <g id="text_9">
      <!-- 0.2 -->
      <g style="fill:#262626;" transform="translate(21.259844 193.543849)scale(0.1 -0.1)">
       <use xlink:href="#ArialMT-48"/>
       <use x="55.615234" xlink:href="#ArialMT-46"/>
       <use x="83.398438" xlink:href="#ArialMT-50"/>
      </g>
     </g>
    </g>
    <g id="ytick_3">
     <g id="line2d_17">
      <path clip-path="url(#p9b79d2f141)" d="M 42.159844 150.430398 
L 376.959844 150.430398 
" style="fill:none;stroke:#cccccc;stroke-linecap:round;"/>
     </g>
     <g id="line2d_18"/>
     <g id="text_10">
      <!-- 0.4 -->
      <g style="fill:#262626;" transform="translate(21.259844 154.009304)scale(0.1 -0.1)">
       <use xlink:href="#ArialMT-48"/>
       <use x="55.615234" xlink:href="#ArialMT-46"/>
       <use x="83.398438" xlink:href="#ArialMT-52"/>
      </g>
     </g>
    </g>
    <g id="ytick_4">
     <g id="line2d_19">
      <path clip-path="url(#p9b79d2f141)" d="M 42.159844 110.895852 
L 376.959844 110.895852 
" style="fill:none;stroke:#cccccc;stroke-linecap:round;"/>
     </g>
     <g id="line2d_20"/>
     <g id="text_11">
      <!-- 0.6 -->
      <g style="fill:#262626;" transform="translate(21.259844 114.474759)scale(0.1 -0.1)">
       <use xlink:href="#ArialMT-48"/>
       <use x="55.615234" xlink:href="#ArialMT-46"/>
       <use x="83.398438" xlink:href="#ArialMT-54"/>
      </g>
     </g>
    </g>
    <g id="ytick_5">
     <g id="line2d_21">
      <path clip-path="url(#p9b79d2f141)" d="M 42.159844 71.361307 
L 376.959844 71.361307 
" style="fill:none;stroke:#cccccc;stroke-linecap:round;"/>
     </g>
     <g id="line2d_22"/>
     <g id="text_12">
      <!-- 0.8 -->
      <g style="fill:#262626;" transform="translate(21.259844 74.940213)scale(0.1 -0.1)">
       <use xlink:href="#ArialMT-48"/>
       <use x="55.615234" xlink:href="#ArialMT-46"/>
       <use x="83.398438" xlink:href="#ArialMT-56"/>
      </g>
     </g>
    </g>
    <g id="ytick_6">
     <g id="line2d_23">
      <path clip-path="url(#p9b79d2f141)" d="M 42.159844 31.826761 
L 376.959844 31.826761 
" style="fill:none;stroke:#cccccc;stroke-linecap:round;"/>
     </g>
     <g id="line2d_24"/>
     <g id="text_13">
      <!-- 1.0 -->
      <g style="fill:#262626;" transform="translate(21.259844 35.405668)scale(0.1 -0.1)">
       <use xlink:href="#ArialMT-49"/>
       <use x="55.615234" xlink:href="#ArialMT-46"/>
       <use x="83.398438" xlink:href="#ArialMT-48"/>
      </g>
     </g>
    </g>
    <g id="text_14">
     <!-- True positive rate -->
     <defs>
      <path d="M 25.921875 0 
L 25.921875 63.140625 
L 2.34375 63.140625 
L 2.34375 71.578125 
L 59.078125 71.578125 
L 59.078125 63.140625 
L 35.40625 63.140625 
L 35.40625 0 
z
" id="ArialMT-84"/>
      <path d="M 40.578125 0 
L 40.578125 7.625 
Q 34.515625 -1.171875 24.125 -1.171875 
Q 19.53125 -1.171875 15.546875 0.578125 
Q 11.578125 2.34375 9.640625 5 
Q 7.71875 7.671875 6.9375 11.53125 
Q 6.390625 14.109375 6.390625 19.734375 
L 6.390625 51.859375 
L 15.1875 51.859375 
L 15.1875 23.09375 
Q 15.1875 16.21875 15.71875 13.8125 
Q 16.546875 10.359375 19.234375 8.375 
Q 21.921875 6.390625 25.875 6.390625 
Q 29.828125 6.390625 33.296875 8.421875 
Q 36.765625 10.453125 38.203125 13.9375 
Q 39.65625 17.4375 39.65625 24.078125 
L 39.65625 51.859375 
L 48.4375 51.859375 
L 48.4375 0 
z
" id="ArialMT-117"/>
     </defs>
     <g style="fill:#262626;" transform="translate(15.073594 172.944375)rotate(-90)scale(0.11 -0.11)">
      <use xlink:href="#ArialMT-84"/>
      <use x="57.333984" xlink:href="#ArialMT-114"/>
      <use x="90.634766" xlink:href="#ArialMT-117"/>
      <use x="146.25" xlink:href="#ArialMT-101"/>
      <use x="201.865234" xlink:href="#ArialMT-32"/>
      <use x="229.648438" xlink:href="#ArialMT-112"/>
      <use x="285.263672" xlink:href="#ArialMT-111"/>
      <use x="340.878906" xlink:href="#ArialMT-115"/>
      <use x="390.878906" xlink:href="#ArialMT-105"/>
      <use x="413.095703" xlink:href="#ArialMT-116"/>
      <use x="440.878906" xlink:href="#ArialMT-105"/>
      <use x="463.095703" xlink:href="#ArialMT-118"/>
      <use x="513.095703" xlink:href="#ArialMT-101"/>
      <use x="568.710938" xlink:href="#ArialMT-32"/>
      <use x="596.494141" xlink:href="#ArialMT-114"/>
      <use x="629.794922" xlink:href="#ArialMT-97"/>
      <use x="685.410156" xlink:href="#ArialMT-116"/>
      <use x="713.193359" xlink:href="#ArialMT-101"/>
     </g>
    </g>
   </g>
   <g id="line2d_25">
    <path clip-path="url(#p9b79d2f141)" d="M 57.378026 229.499489 
L 57.378026 229.373982 
L 57.586422 229.373982 
L 57.586422 228.871956 
L 57.794819 228.871956 
L 57.794819 228.74645 
L 58.003216 228.74645 
L 58.107415 227.867904 
L 58.315812 227.867904 
L 58.315812 227.742398 
L 58.628407 227.742398 
L 58.628407 227.365878 
L 59.045201 227.365878 
L 59.149399 226.361826 
L 59.357796 226.361826 
L 59.461994 225.608787 
L 59.566193 225.608787 
L 59.670391 225.232268 
L 59.878788 225.232268 
L 59.878788 224.855748 
L 60.087185 224.855748 
L 60.087185 224.353722 
L 60.295582 224.353722 
L 60.39978 224.102709 
L 60.608177 224.102709 
L 60.712376 223.475177 
L 60.816574 223.475177 
L 60.920772 222.596631 
L 61.024971 222.596631 
L 61.129169 221.59258 
L 61.337566 221.59258 
L 61.441765 220.588528 
L 61.545963 220.588528 
L 61.545963 220.337515 
L 61.75436 220.337515 
L 61.75436 220.212008 
L 61.962757 220.212008 
L 62.066955 219.08245 
L 62.171154 219.08245 
L 62.275352 218.078398 
L 62.692146 218.078398 
L 62.692146 217.827385 
L 63.004741 217.827385 
L 63.10894 216.697826 
L 63.213138 216.697826 
L 63.317337 215.066242 
L 63.421535 215.066242 
L 63.525733 214.06219 
L 63.629932 214.06219 
L 63.73413 213.811177 
L 63.838329 213.811177 
L 63.838329 213.309151 
L 64.046726 213.309151 
L 64.150924 212.305099 
L 64.255122 212.305099 
L 64.255122 212.179593 
L 64.567718 212.179593 
L 64.671916 211.677567 
L 64.880313 211.677567 
L 64.984512 209.920476 
L 65.08871 209.920476 
L 65.192908 209.543956 
L 65.297107 209.543956 
L 65.401305 208.665411 
L 65.818099 208.665411 
L 65.818099 208.414398 
L 66.026496 208.414398 
L 66.026496 208.037878 
L 66.234893 208.037878 
L 66.339091 207.661359 
L 66.44329 207.661359 
L 66.44329 207.410346 
L 66.651687 207.410346 
L 66.755885 207.033826 
L 66.860083 207.033826 
L 66.860083 206.657307 
L 67.06848 206.657307 
L 67.06848 206.5318 
L 67.276877 206.5318 
L 67.276877 205.904268 
L 67.485274 205.904268 
L 67.589472 205.402242 
L 68.006266 205.402242 
L 68.110465 205.151229 
L 68.214663 205.151229 
L 68.214663 204.900216 
L 68.42306 204.900216 
L 68.42306 204.649203 
L 68.631457 204.649203 
L 68.631457 204.147177 
L 68.839854 204.147177 
L 68.944052 203.770657 
L 69.048251 203.770657 
L 69.152449 202.515593 
L 69.569243 202.515593 
L 69.673441 202.013567 
L 69.986037 202.013567 
L 69.986037 201.88806 
L 70.194433 201.88806 
L 70.194433 201.386034 
L 70.40283 201.386034 
L 70.507029 201.135021 
L 70.715426 201.135021 
L 70.715426 200.632995 
L 70.923822 200.632995 
L 70.923822 200.507489 
L 71.236418 200.507489 
L 71.236418 200.005463 
L 71.444815 200.005463 
L 71.444815 199.75445 
L 71.861608 199.75445 
L 71.965807 199.126917 
L 72.070005 199.126917 
L 72.174204 198.499385 
L 72.278402 198.499385 
L 72.382601 198.122865 
L 72.486799 198.122865 
L 72.486799 197.871852 
L 72.695196 197.871852 
L 72.695196 197.495333 
L 73.11199 197.495333 
L 73.216188 196.8678 
L 73.320387 196.8678 
L 73.424585 196.616787 
L 73.945577 196.616787 
L 74.049776 196.240268 
L 74.883363 196.240268 
L 74.987562 195.738242 
L 75.195958 195.738242 
L 75.195958 195.361722 
L 75.404355 195.361722 
L 75.508554 194.859696 
L 75.716951 194.859696 
L 75.821149 194.106657 
L 76.133744 194.106657 
L 76.237943 193.730138 
L 76.550538 193.730138 
L 76.550538 192.60058 
L 76.758935 192.60058 
L 76.758935 192.475073 
L 76.967332 192.475073 
L 76.967332 191.722034 
L 77.279927 191.722034 
L 77.279927 191.471021 
L 77.696721 191.471021 
L 77.696721 191.094502 
L 78.113515 191.094502 
L 78.113515 190.968995 
L 78.321912 190.968995 
L 78.42611 190.592476 
L 78.530308 190.592476 
L 78.530308 190.466969 
L 78.738705 190.466969 
L 78.842904 189.964943 
L 78.947102 189.964943 
L 78.947102 189.71393 
L 79.259697 189.71393 
L 79.259697 189.588424 
L 79.572293 189.588424 
L 79.572293 188.709878 
L 79.884888 188.709878 
L 79.989087 188.207852 
L 80.301682 188.207852 
L 80.301682 187.705826 
L 80.822674 187.705826 
L 80.822674 187.454813 
L 81.239468 187.454813 
L 81.239468 187.329307 
L 81.76046 187.329307 
L 81.864658 186.952787 
L 82.385651 186.952787 
L 82.385651 186.450761 
L 82.594047 186.450761 
L 82.698246 185.321203 
L 82.802444 185.321203 
L 82.802444 185.07019 
L 83.010841 185.07019 
L 83.11504 184.819177 
L 83.74023 184.819177 
L 83.844429 184.568164 
L 84.052826 184.568164 
L 84.052826 184.442657 
L 84.261222 184.442657 
L 84.261222 184.191644 
L 84.573818 184.191644 
L 84.573818 184.066138 
L 84.886413 184.066138 
L 84.886413 183.940631 
L 85.199008 183.940631 
L 85.303207 182.56006 
L 85.407405 182.56006 
L 85.511604 182.183541 
L 85.720001 182.183541 
L 85.720001 181.932528 
L 86.136794 181.932528 
L 86.240993 181.304995 
L 86.345191 181.304995 
L 86.44939 179.924424 
L 86.553588 179.924424 
L 86.553588 179.673411 
L 86.761985 179.673411 
L 86.761985 179.171385 
L 87.178779 179.171385 
L 87.178779 178.920372 
L 87.387176 178.920372 
L 87.387176 178.794865 
L 87.595572 178.794865 
L 87.595572 178.669359 
L 87.803969 178.669359 
L 87.908168 178.041826 
L 88.012366 178.041826 
L 88.012366 177.790813 
L 88.637557 177.790813 
L 88.637557 177.665307 
L 88.845954 177.665307 
L 88.845954 177.5398 
L 89.054351 177.5398 
L 89.054351 177.288787 
L 89.575343 177.288787 
L 89.679541 176.661255 
L 89.887938 176.661255 
L 89.992137 175.657203 
L 90.096335 175.657203 
L 90.200533 175.280683 
L 90.304732 175.280683 
L 90.40893 174.653151 
L 90.929922 174.653151 
L 91.034121 174.276631 
L 91.242518 174.276631 
L 91.346716 173.900112 
L 91.450915 173.900112 
L 91.555113 173.021567 
L 91.659312 173.021567 
L 91.76351 172.143021 
L 91.867708 172.143021 
L 91.971907 171.640995 
L 92.284502 171.640995 
L 92.388701 171.264476 
L 92.492899 171.264476 
L 92.597097 170.511437 
L 92.701296 170.511437 
L 92.805494 169.381878 
L 93.013891 169.381878 
L 93.013891 168.879852 
L 93.326487 168.879852 
L 93.326487 168.628839 
L 93.951677 168.628839 
L 94.055876 167.624787 
L 94.368471 167.624787 
L 94.368471 167.373774 
L 94.681066 167.373774 
L 94.785265 166.997255 
L 94.993662 166.997255 
L 95.09786 166.369722 
L 95.202058 166.369722 
L 95.202058 165.993203 
L 95.723051 165.993203 
L 95.723051 165.74219 
L 96.244043 165.74219 
L 96.348241 165.240164 
L 96.45244 165.240164 
L 96.556638 164.863644 
L 96.869233 164.863644 
L 96.973432 163.60858 
L 97.286027 163.60858 
L 97.390226 163.357567 
L 97.702821 163.357567 
L 97.807019 162.604528 
L 98.015416 162.604528 
L 98.119615 162.228008 
L 98.223813 162.228008 
L 98.223813 162.102502 
L 98.43221 162.102502 
L 98.536408 161.474969 
L 98.849004 161.474969 
L 98.849004 161.349463 
L 99.057401 161.349463 
L 99.161599 161.09845 
L 99.369996 161.09845 
L 99.474194 160.847437 
L 99.78679 160.847437 
L 99.890988 160.596424 
L 100.099385 160.596424 
L 100.203583 160.345411 
L 100.307782 160.345411 
L 100.307782 160.219904 
L 100.516179 160.219904 
L 100.516179 159.843385 
L 100.828774 159.843385 
L 100.828774 159.592372 
L 101.037171 159.592372 
L 101.141369 159.215852 
L 101.245568 159.215852 
L 101.349766 158.462813 
L 101.453965 158.462813 
L 101.453965 157.835281 
L 101.76656 157.835281 
L 101.76656 157.709774 
L 102.287552 157.709774 
L 102.391751 157.333255 
L 102.495949 157.333255 
L 102.600148 156.956735 
L 102.704346 156.956735 
L 102.704346 156.580216 
L 102.912743 156.580216 
L 103.016941 156.329203 
L 103.12114 156.329203 
L 103.12114 156.203696 
L 103.329537 156.203696 
L 103.329537 155.827177 
L 103.537933 155.827177 
L 103.642132 155.074138 
L 103.74633 155.074138 
L 103.850529 154.195593 
L 104.058926 154.195593 
L 104.163124 153.94458 
L 104.267323 153.94458 
L 104.267323 153.56806 
L 104.579918 153.56806 
L 104.579918 153.317047 
L 104.788315 153.317047 
L 104.892513 152.689515 
L 104.996712 152.689515 
L 104.996712 152.187489 
L 105.517704 152.187489 
L 105.621902 151.810969 
L 105.830299 151.810969 
L 105.830299 151.559956 
L 106.038696 151.559956 
L 106.038696 151.308943 
L 106.247093 151.308943 
L 106.351291 150.304891 
L 106.45549 150.304891 
L 106.559688 149.677359 
L 106.768085 149.677359 
L 106.872283 149.426346 
L 107.08068 149.426346 
L 107.08068 149.300839 
L 107.289077 149.300839 
L 107.289077 149.049826 
L 107.497474 149.049826 
L 107.497474 148.92432 
L 107.705871 148.92432 
L 107.810069 148.673307 
L 108.018466 148.673307 
L 108.018466 148.5478 
L 108.226863 148.5478 
L 108.331062 148.296787 
L 108.43526 148.296787 
L 108.43526 147.920268 
L 108.643657 147.920268 
L 108.643657 147.167229 
L 109.268848 147.167229 
L 109.268848 147.041722 
L 109.477244 147.041722 
L 109.477244 146.916216 
L 109.685641 146.916216 
L 109.685641 146.790709 
L 110.102435 146.790709 
L 110.102435 146.288683 
L 110.310832 146.288683 
L 110.310832 145.912164 
L 110.519229 145.912164 
L 110.623427 145.535644 
L 111.144419 145.535644 
L 111.144419 145.284631 
L 111.457015 145.284631 
L 111.561213 144.657099 
L 111.665412 144.657099 
L 111.76961 144.029567 
L 111.873808 144.029567 
L 111.873808 143.276528 
L 112.082205 143.276528 
L 112.186404 143.025515 
L 112.394801 143.025515 
L 112.498999 142.774502 
L 112.603198 142.774502 
L 112.707396 142.272476 
L 112.811594 142.272476 
L 112.915793 141.77045 
L 113.74938 141.77045 
L 113.853579 140.640891 
L 114.166174 140.640891 
L 114.270373 139.762346 
L 114.582968 139.762346 
L 114.582968 139.511333 
L 114.999762 139.511333 
L 115.10396 139.134813 
L 115.208158 139.134813 
L 115.208158 139.009307 
L 115.416555 139.009307 
L 115.416555 138.8838 
L 115.624952 138.8838 
L 115.729151 138.507281 
L 115.833349 138.507281 
L 115.833349 138.381774 
L 116.354341 138.381774 
L 116.354341 138.256268 
L 116.562738 138.256268 
L 116.666937 137.754242 
L 116.875333 137.754242 
L 116.979532 137.503229 
L 117.08373 137.503229 
L 117.08373 137.126709 
L 117.292127 137.126709 
L 117.292127 136.75019 
L 117.500524 136.75019 
L 117.604723 136.248164 
L 118.021516 136.248164 
L 118.021516 135.997151 
L 118.334112 135.997151 
L 118.43831 135.620631 
L 119.376096 135.620631 
L 119.376096 135.369619 
L 119.584493 135.369619 
L 119.688691 134.867593 
L 119.79289 134.867593 
L 119.897088 134.365567 
L 120.001287 134.365567 
L 120.105485 133.989047 
L 120.522279 133.989047 
L 120.626477 133.612528 
L 120.939073 133.612528 
L 120.939073 133.361515 
L 121.147469 133.361515 
L 121.147469 133.236008 
L 121.460065 133.236008 
L 121.460065 132.984995 
L 121.876858 132.984995 
L 121.876858 132.859489 
L 122.293652 132.859489 
L 122.293652 132.608476 
L 122.502049 132.608476 
L 122.606248 132.10645 
L 123.023041 132.10645 
L 123.023041 131.855437 
L 123.335637 131.855437 
L 123.439835 130.976891 
L 123.75243 130.976891 
L 123.75243 130.725878 
L 123.960827 130.725878 
L 124.065026 130.098346 
L 124.169224 130.098346 
L 124.273423 129.847333 
L 124.586018 129.847333 
L 124.586018 129.59632 
L 125.10701 129.59632 
L 125.10701 128.968787 
L 125.523804 128.968787 
L 125.523804 128.090242 
L 126.148994 128.090242 
L 126.148994 127.964735 
L 126.357391 127.964735 
L 126.46159 127.713722 
L 126.669987 127.713722 
L 126.774185 127.462709 
L 126.982582 127.462709 
L 126.982582 127.337203 
L 127.190979 127.337203 
L 127.190979 127.08619 
L 127.503574 127.08619 
L 127.607773 126.458657 
L 127.711971 126.458657 
L 127.711971 125.454606 
L 128.024566 125.454606 
L 128.128765 125.203593 
L 128.232963 125.203593 
L 128.232963 125.078086 
L 128.44136 125.078086 
L 128.44136 124.450554 
L 128.858154 124.450554 
L 128.858154 123.948528 
L 129.170749 123.948528 
L 129.170749 123.823021 
L 129.379146 123.823021 
L 129.379146 123.697515 
L 129.587543 123.697515 
L 129.587543 123.572008 
L 129.79594 123.572008 
L 129.79594 123.320995 
L 130.004337 123.320995 
L 130.108535 122.944476 
L 130.212733 122.944476 
L 130.212733 122.693463 
L 130.42113 122.693463 
L 130.525329 122.316943 
L 130.837924 122.316943 
L 130.837924 122.06593 
L 131.358916 122.06593 
L 131.358916 121.814917 
L 131.671512 121.814917 
L 131.77571 121.187385 
L 132.192504 121.187385 
L 132.192504 121.061878 
L 132.400901 121.061878 
L 132.400901 120.936372 
L 133.026091 120.936372 
L 133.13029 120.559852 
L 133.234488 120.559852 
L 133.338687 120.308839 
L 133.442885 120.308839 
L 133.442885 119.806813 
L 133.963877 119.806813 
L 134.068076 119.179281 
L 134.172274 119.179281 
L 134.172274 118.802761 
L 134.484869 118.802761 
L 134.484869 118.677255 
L 134.693266 118.677255 
L 134.693266 118.551748 
L 135.005862 118.551748 
L 135.005862 118.426242 
L 135.214258 118.426242 
L 135.318457 117.42219 
L 135.422655 117.42219 
L 135.422655 117.296683 
L 135.839449 117.296683 
L 135.943648 116.794657 
L 136.256243 116.794657 
L 136.360441 116.543644 
L 136.46464 116.543644 
L 136.46464 116.418138 
L 136.673037 116.418138 
L 136.673037 116.292631 
L 136.985632 116.292631 
L 136.985632 116.167125 
L 137.506624 116.167125 
L 137.506624 115.916112 
L 137.715021 115.916112 
L 137.715021 115.790606 
L 138.027616 115.790606 
L 138.027616 115.665099 
L 138.236013 115.665099 
L 138.340212 114.786554 
L 138.44441 114.786554 
L 138.548608 114.535541 
L 138.652807 114.535541 
L 138.757005 114.159021 
L 138.861204 114.159021 
L 138.861204 113.782502 
L 139.173799 113.782502 
L 139.277998 113.280476 
L 139.382196 113.280476 
L 139.382196 113.154969 
L 139.590593 113.154969 
L 139.590593 113.029463 
L 140.007387 113.029463 
L 140.007387 112.527437 
L 140.319982 112.527437 
L 140.42418 112.150917 
L 140.632577 112.150917 
L 140.736776 111.523385 
L 141.049371 111.523385 
L 141.049371 111.397878 
L 141.257768 111.397878 
L 141.257768 111.272372 
L 141.674562 111.272372 
L 141.674562 110.895852 
L 141.987157 110.895852 
L 142.091355 110.644839 
L 142.299752 110.644839 
L 142.299752 110.519333 
L 142.612348 110.519333 
L 142.716546 110.26832 
L 143.13334 110.26832 
L 143.237538 110.017307 
L 143.341737 110.017307 
L 143.341737 109.8918 
L 143.550134 109.8918 
L 143.550134 109.640787 
L 143.966927 109.640787 
L 144.071126 109.013255 
L 144.279523 109.013255 
L 144.279523 108.762242 
L 144.696316 108.762242 
L 144.800515 108.134709 
L 144.904713 108.134709 
L 144.904713 108.009203 
L 145.11311 108.009203 
L 145.11311 107.75819 
L 145.425705 107.75819 
L 145.425705 107.632683 
L 145.842499 107.632683 
L 145.842499 107.507177 
L 146.050896 107.507177 
L 146.050896 107.38167 
L 146.46769 107.38167 
L 146.46769 107.005151 
L 146.988682 107.005151 
L 146.988682 106.754138 
L 147.197079 106.754138 
L 147.301277 106.252112 
L 147.509674 106.252112 
L 147.509674 106.001099 
L 148.239063 106.001099 
L 148.343262 105.373567 
L 148.44746 105.373567 
L 148.44746 105.122554 
L 148.655857 105.122554 
L 148.655857 104.871541 
L 148.864254 104.871541 
L 148.864254 104.746034 
L 149.072651 104.746034 
L 149.176849 104.495021 
L 149.281048 104.495021 
L 149.281048 104.369515 
L 149.489444 104.369515 
L 149.489444 104.118502 
L 149.697841 104.118502 
L 149.80204 103.616476 
L 149.906238 103.616476 
L 150.010437 103.239956 
L 150.531429 103.239956 
L 150.531429 103.11445 
L 151.469215 103.11445 
L 151.469215 102.988943 
L 151.886009 102.988943 
L 151.990207 102.73793 
L 152.615398 102.73793 
L 152.719596 101.984891 
L 152.823794 101.984891 
L 152.927993 101.608372 
L 153.13639 101.608372 
L 153.240588 101.357359 
L 153.553184 101.357359 
L 153.553184 101.231852 
L 153.76158 101.231852 
L 153.865779 100.478813 
L 154.386771 100.478813 
L 154.386771 100.102294 
L 154.699366 100.102294 
L 154.699366 99.976787 
L 155.220359 99.976787 
L 155.324557 99.600268 
L 155.428755 99.600268 
L 155.428755 99.474761 
L 155.637152 99.474761 
L 155.637152 99.349255 
L 155.949748 99.349255 
L 155.949748 99.223748 
L 156.366541 99.223748 
L 156.366541 99.098242 
L 156.783335 99.098242 
L 156.783335 98.972735 
L 156.991732 98.972735 
L 156.991732 98.847229 
L 157.200129 98.847229 
L 157.200129 98.721722 
L 157.408526 98.721722 
L 157.408526 98.219696 
L 157.825319 98.219696 
L 157.825319 98.09419 
L 158.033716 98.09419 
L 158.137915 97.843177 
L 158.242113 97.843177 
L 158.242113 97.71767 
L 158.45051 97.71767 
L 158.45051 97.466657 
L 158.971502 97.466657 
L 158.971502 97.215644 
L 159.179899 97.215644 
L 159.179899 97.090138 
L 159.388296 97.090138 
L 159.388296 96.839125 
L 159.80509 96.839125 
L 159.909288 96.462606 
L 160.013487 96.462606 
L 160.013487 96.337099 
L 160.221884 96.337099 
L 160.326082 95.835073 
L 160.534479 95.835073 
L 160.534479 95.458554 
L 160.951273 95.458554 
L 161.055471 95.082034 
L 161.159669 95.082034 
L 161.159669 94.831021 
L 161.576463 94.831021 
L 161.576463 94.705515 
L 161.78486 94.705515 
L 161.78486 94.580008 
L 161.993257 94.580008 
L 162.097455 94.328995 
L 162.618448 94.328995 
L 162.722646 93.826969 
L 163.035241 93.826969 
L 163.035241 93.701463 
L 163.347837 93.701463 
L 163.452035 93.324943 
L 163.556234 93.324943 
L 163.660432 92.822917 
L 163.76463 92.822917 
L 163.76463 92.571904 
L 164.181424 92.571904 
L 164.285623 92.195385 
L 164.598218 92.195385 
L 164.598218 92.069878 
L 165.015012 92.069878 
L 165.11921 91.693359 
L 165.640202 91.693359 
L 165.744401 91.442346 
L 165.848599 91.442346 
L 165.848599 91.316839 
L 166.056996 91.316839 
L 166.056996 91.191333 
L 166.265393 91.191333 
L 166.369591 90.689307 
L 166.577988 90.689307 
L 166.682187 90.438294 
L 166.786385 90.438294 
L 166.786385 90.312787 
L 166.994782 90.312787 
L 167.09898 90.061774 
L 167.307377 90.061774 
L 167.307377 89.936268 
L 167.619973 89.936268 
L 167.619973 89.810761 
L 167.932568 89.810761 
L 167.932568 89.057722 
L 168.140965 89.057722 
L 168.140965 88.932216 
L 168.349362 88.932216 
L 168.349362 88.681203 
L 168.870354 88.681203 
L 168.870354 88.43019 
L 169.391346 88.43019 
L 169.495544 88.05367 
L 169.599743 88.05367 
L 169.703941 87.677151 
L 169.80814 87.677151 
L 169.80814 87.551644 
L 170.120735 87.551644 
L 170.224934 86.924112 
L 170.329132 86.924112 
L 170.329132 86.798606 
L 170.954323 86.798606 
L 170.954323 86.673099 
L 171.162719 86.673099 
L 171.162719 86.547593 
L 171.475315 86.547593 
L 171.475315 86.422086 
L 172.100505 86.422086 
L 172.100505 86.171073 
L 172.621498 86.171073 
L 172.725696 85.794554 
L 173.871879 85.794554 
L 173.871879 85.669047 
L 174.392871 85.669047 
L 174.392871 85.543541 
L 174.601268 85.543541 
L 174.601268 85.418034 
L 174.913863 85.418034 
L 174.913863 85.292528 
L 175.330657 85.292528 
L 175.330657 85.041515 
L 175.643252 85.041515 
L 175.643252 84.916008 
L 175.955848 84.916008 
L 175.955848 84.664995 
L 176.268443 84.664995 
L 176.268443 84.413982 
L 176.47684 84.413982 
L 176.581038 83.78645 
L 176.685237 83.78645 
L 176.789435 83.158917 
L 176.893634 83.158917 
L 176.893634 83.033411 
L 178.352412 83.033411 
L 178.352412 82.907904 
L 178.769205 82.907904 
L 178.769205 82.782398 
L 179.185999 82.782398 
L 179.290198 82.154865 
L 179.915388 82.154865 
L 179.915388 81.778346 
L 180.123785 81.778346 
L 180.227984 81.150813 
L 180.332182 81.150813 
L 180.332182 81.025307 
L 180.644777 81.025307 
L 180.748976 80.146761 
L 181.061571 80.146761 
L 181.061571 79.644735 
L 181.478365 79.644735 
L 181.582563 79.142709 
L 181.895159 79.142709 
L 181.895159 78.891696 
L 182.103555 78.891696 
L 182.103555 78.640683 
L 182.520349 78.640683 
L 182.520349 78.515177 
L 182.728746 78.515177 
L 182.728746 78.38967 
L 182.937143 78.38967 
L 182.937143 78.264164 
L 183.77073 78.264164 
L 183.77073 78.138657 
L 184.604318 78.138657 
L 184.604318 78.013151 
L 184.916913 78.013151 
L 184.916913 77.887644 
L 185.542104 77.887644 
L 185.542104 77.762138 
L 185.854699 77.762138 
L 185.854699 77.636631 
L 186.063096 77.636631 
L 186.167294 77.260112 
L 187.313477 77.260112 
L 187.313477 77.134606 
L 188.251263 77.134606 
L 188.355462 76.381567 
L 188.876454 76.381567 
L 188.980652 76.005047 
L 189.189049 76.005047 
L 189.293248 75.377515 
L 189.501645 75.377515 
L 189.501645 75.252008 
L 190.335232 75.252008 
L 190.43943 75.000995 
L 190.647827 75.000995 
L 190.647827 74.749982 
L 191.273018 74.749982 
L 191.273018 74.498969 
L 191.481415 74.498969 
L 191.481415 73.871437 
L 191.79401 73.871437 
L 191.898209 73.369411 
L 192.002407 73.369411 
L 192.002407 73.243904 
L 193.356987 73.243904 
L 193.461185 72.992891 
L 193.565384 72.992891 
L 193.565384 72.867385 
L 193.77378 72.867385 
L 193.77378 72.616372 
L 194.190574 72.616372 
L 194.294773 72.239852 
L 194.398971 72.239852 
L 194.398971 72.114346 
L 195.12836 72.114346 
L 195.12836 71.988839 
L 195.336757 71.988839 
L 195.336757 71.863333 
L 195.545154 71.863333 
L 195.545154 71.737826 
L 195.753551 71.737826 
L 195.753551 71.61232 
L 196.066146 71.61232 
L 196.170345 71.361307 
L 196.274543 71.361307 
L 196.378741 70.984787 
L 196.587138 70.984787 
L 196.691337 70.482761 
L 196.795535 70.482761 
L 196.795535 70.357255 
L 197.003932 70.357255 
L 197.003932 70.231748 
L 197.212329 70.231748 
L 197.212329 69.855229 
L 197.420726 69.855229 
L 197.420726 69.729722 
L 197.941718 69.729722 
L 198.045916 69.353203 
L 198.46271 69.353203 
L 198.566909 69.10219 
L 198.775305 69.10219 
L 198.775305 68.976683 
L 198.983702 68.976683 
L 198.983702 68.851177 
L 199.296298 68.851177 
L 199.400496 68.349151 
L 199.504695 68.349151 
L 199.504695 68.223644 
L 199.713091 68.223644 
L 199.713091 67.972631 
L 200.129885 67.972631 
L 200.129885 67.847125 
L 201.067671 67.847125 
L 201.17187 67.470606 
L 201.276068 67.470606 
L 201.276068 67.345099 
L 201.484465 67.345099 
L 201.484465 67.094086 
L 201.79706 67.094086 
L 201.79706 66.96858 
L 202.213854 66.96858 
L 202.213854 66.843073 
L 202.839045 66.843073 
L 202.839045 66.717567 
L 203.255838 66.717567 
L 203.360037 66.341047 
L 203.672632 66.341047 
L 203.672632 66.090034 
L 204.193624 66.090034 
L 204.193624 65.964528 
L 205.235609 65.964528 
L 205.235609 65.839021 
L 205.756601 65.839021 
L 205.756601 65.588008 
L 205.964998 65.588008 
L 206.069196 65.336995 
L 206.277593 65.336995 
L 206.277593 65.211489 
L 206.48599 65.211489 
L 206.590188 64.834969 
L 206.798585 64.834969 
L 206.798585 64.583956 
L 207.215379 64.583956 
L 207.319577 64.08193 
L 208.048966 64.08193 
L 208.153165 63.830917 
L 208.569959 63.830917 
L 208.569959 63.705411 
L 208.882554 63.705411 
L 208.882554 63.579904 
L 209.090951 63.579904 
L 209.090951 63.454398 
L 209.299348 63.454398 
L 209.299348 63.203385 
L 209.507745 63.203385 
L 209.507745 63.077878 
L 210.028737 63.077878 
L 210.028737 62.952372 
L 210.549729 62.952372 
L 210.653927 62.701359 
L 211.279118 62.701359 
L 211.383316 62.199333 
L 211.695912 62.199333 
L 211.695912 62.073826 
L 212.112705 62.073826 
L 212.112705 61.94832 
L 212.425301 61.94832 
L 212.529499 61.5718 
L 212.737896 61.5718 
L 212.842095 61.069774 
L 213.15469 61.069774 
L 213.258888 60.818761 
L 213.675682 60.818761 
L 213.675682 60.693255 
L 213.884079 60.693255 
L 213.884079 60.567748 
L 214.196674 60.567748 
L 214.196674 60.316735 
L 216.593238 60.316735 
L 216.593238 60.191229 
L 216.801635 60.191229 
L 216.801635 59.940216 
L 217.322627 59.940216 
L 217.322627 59.814709 
L 217.739421 59.814709 
L 217.739421 59.563696 
L 217.947818 59.563696 
L 217.947818 59.312683 
L 218.677207 59.312683 
L 218.781405 59.06167 
L 219.094001 59.06167 
L 219.094001 58.685151 
L 219.614993 58.685151 
L 219.614993 58.559644 
L 220.031787 58.559644 
L 220.135985 58.183125 
L 220.240184 58.183125 
L 220.344382 57.932112 
L 220.761176 57.932112 
L 220.761176 57.681099 
L 221.282168 57.681099 
L 221.386366 57.179073 
L 221.490565 57.179073 
L 221.490565 57.053567 
L 221.698962 57.053567 
L 221.698962 56.92806 
L 222.428351 56.92806 
L 222.532549 56.677047 
L 222.636748 56.677047 
L 222.636748 56.551541 
L 223.366137 56.551541 
L 223.366137 56.426034 
L 224.095526 56.426034 
L 224.095526 56.300528 
L 224.720716 56.300528 
L 224.720716 56.175021 
L 226.387891 56.175021 
L 226.387891 55.924008 
L 227.013082 55.924008 
L 227.013082 55.672995 
L 227.638273 55.672995 
L 227.638273 55.421982 
L 227.84667 55.421982 
L 227.84667 55.170969 
L 228.159265 55.170969 
L 228.263463 54.79445 
L 228.680257 54.79445 
L 228.680257 54.668943 
L 229.201249 54.668943 
L 229.201249 54.543437 
L 229.82644 54.543437 
L 229.82644 54.41793 
L 230.243234 54.41793 
L 230.243234 54.292424 
L 230.45163 54.292424 
L 230.45163 54.041411 
L 230.660027 54.041411 
L 230.764226 53.664891 
L 231.285218 53.664891 
L 231.285218 53.539385 
L 231.493615 53.539385 
L 231.493615 53.413878 
L 232.535599 53.413878 
L 232.535599 53.288372 
L 232.848195 53.288372 
L 232.848195 52.911852 
L 233.264988 52.911852 
L 233.369187 52.660839 
L 233.577584 52.660839 
L 233.577584 52.409826 
L 233.890179 52.409826 
L 233.890179 52.28432 
L 234.306973 52.28432 
L 234.306973 52.158813 
L 234.619568 52.158813 
L 234.619568 52.033307 
L 235.14056 52.033307 
L 235.14056 51.9078 
L 235.765751 51.9078 
L 235.765751 51.656787 
L 236.078346 51.656787 
L 236.182545 51.280268 
L 236.390941 51.280268 
L 236.390941 51.029255 
L 237.016132 51.029255 
L 237.016132 50.778242 
L 239.725291 50.778242 
L 239.725291 50.652735 
L 239.933688 50.652735 
L 239.933688 50.401722 
L 240.350482 50.401722 
L 240.350482 50.150709 
L 240.558879 50.150709 
L 240.558879 50.025203 
L 241.18407 50.025203 
L 241.288268 49.648683 
L 241.392466 49.648683 
L 241.496665 49.39767 
L 241.600863 49.39767 
L 241.600863 49.272164 
L 242.017657 49.272164 
L 242.121856 49.021151 
L 242.538649 49.021151 
L 242.538649 48.770138 
L 242.747046 48.770138 
L 242.747046 48.644631 
L 243.684832 48.644631 
L 243.684832 48.519125 
L 243.893229 48.519125 
L 243.893229 48.393619 
L 244.51842 48.393619 
L 244.622618 48.017099 
L 245.14361 48.017099 
L 245.247809 47.389567 
L 245.768801 47.389567 
L 245.768801 47.26406 
L 246.185595 47.26406 
L 246.289793 47.013047 
L 246.706587 47.013047 
L 246.706587 46.887541 
L 248.998952 46.887541 
L 249.103151 46.636528 
L 250.040937 46.636528 
L 250.040937 46.511021 
L 250.666127 46.511021 
L 250.770326 46.260008 
L 250.874524 46.260008 
L 250.978723 45.757982 
L 251.708112 45.757982 
L 251.708112 45.632476 
L 252.854295 45.632476 
L 252.854295 45.506969 
L 253.687882 45.506969 
L 253.687882 45.255956 
L 254.729866 45.255956 
L 254.729866 45.13045 
L 255.042462 45.13045 
L 255.042462 45.004943 
L 255.876049 45.004943 
L 255.980248 44.75393 
L 257.022232 44.75393 
L 257.022232 44.628424 
L 257.230629 44.628424 
L 257.230629 44.377411 
L 257.647423 44.377411 
L 257.751621 44.000891 
L 257.85582 44.000891 
L 257.960018 43.749878 
L 258.689407 43.749878 
L 258.689407 43.624372 
L 259.002002 43.624372 
L 259.106201 43.373359 
L 259.418796 43.373359 
L 259.418796 43.247852 
L 260.148185 43.247852 
L 260.148185 42.996839 
L 260.460781 42.996839 
L 260.460781 42.871333 
L 261.19017 42.871333 
L 261.19017 42.745826 
L 261.81536 42.745826 
L 261.81536 42.62032 
L 262.127956 42.62032 
L 262.127956 42.494813 
L 262.648948 42.494813 
L 262.648948 42.2438 
L 264.107726 42.2438 
L 264.211924 41.992787 
L 265.253909 41.992787 
L 265.358107 41.741774 
L 265.774901 41.741774 
L 265.774901 41.616268 
L 267.85887 41.616268 
L 267.85887 41.490761 
L 268.171465 41.490761 
L 268.171465 41.365255 
L 269.83864 41.365255 
L 269.83864 41.239748 
L 271.089021 41.239748 
L 271.089021 41.114242 
L 272.860395 41.114242 
L 272.860395 40.988735 
L 273.277188 40.988735 
L 273.277188 40.863229 
L 274.006577 40.863229 
L 274.006577 40.737722 
L 274.52757 40.737722 
L 274.52757 40.612216 
L 275.048562 40.612216 
L 275.048562 40.486709 
L 275.673752 40.486709 
L 275.777951 40.235696 
L 275.986348 40.235696 
L 275.986348 40.11019 
L 276.298943 40.11019 
L 276.298943 39.984683 
L 276.611538 39.984683 
L 276.611538 39.859177 
L 276.924134 39.859177 
L 276.924134 39.73367 
L 278.48711 39.73367 
L 278.48711 39.608164 
L 280.883674 39.608164 
L 280.883674 39.482657 
L 281.613063 39.482657 
L 281.613063 39.357151 
L 281.925659 39.357151 
L 281.925659 39.231644 
L 282.446651 39.231644 
L 282.446651 39.106138 
L 282.967643 39.106138 
L 282.967643 38.980631 
L 284.739017 38.980631 
L 284.739017 38.855125 
L 285.260009 38.855125 
L 285.364207 38.478606 
L 286.093596 38.478606 
L 286.093596 38.227593 
L 286.927184 38.227593 
L 286.927184 38.102086 
L 287.86497 38.102086 
L 287.86497 37.97658 
L 288.385962 37.97658 
L 288.49016 37.474554 
L 290.782526 37.474554 
L 290.782526 37.349047 
L 295.263059 37.349047 
L 295.263059 36.972528 
L 296.096646 36.972528 
L 296.096646 36.721515 
L 296.617638 36.721515 
L 296.617638 36.596008 
L 297.659623 36.596008 
L 297.659623 36.470502 
L 299.430996 36.470502 
L 299.430996 36.344995 
L 302.348552 36.344995 
L 302.348552 36.219489 
L 302.869545 36.219489 
L 302.869545 36.093982 
L 303.390537 36.093982 
L 303.390537 35.968476 
L 303.703132 35.968476 
L 303.703132 35.842969 
L 305.057712 35.842969 
L 305.057712 35.717463 
L 309.121451 35.717463 
L 309.121451 35.591956 
L 309.955038 35.591956 
L 309.955038 35.46645 
L 310.684427 35.46645 
L 310.684427 35.215437 
L 312.455801 35.215437 
L 312.455801 35.08993 
L 313.18519 35.08993 
L 313.18519 34.964424 
L 313.393587 34.964424 
L 313.393587 34.838917 
L 315.373357 34.838917 
L 315.373357 34.713411 
L 320.687477 34.713411 
L 320.687477 34.587904 
L 321.104271 34.587904 
L 321.104271 34.462398 
L 323.396637 34.462398 
L 323.396637 34.336891 
L 325.897399 34.336891 
L 325.897399 34.211385 
L 327.668773 34.211385 
L 327.668773 34.085878 
L 330.273734 34.085878 
L 330.273734 33.960372 
L 331.315718 33.960372 
L 331.315718 33.834865 
L 331.940909 33.834865 
L 331.940909 33.709359 
L 332.253504 33.709359 
L 332.253504 33.583852 
L 333.920679 33.583852 
L 333.920679 33.458346 
L 336.317243 33.458346 
L 336.317243 33.332839 
L 337.567624 33.332839 
L 337.567624 33.207333 
L 339.755792 33.207333 
L 339.85999 32.830813 
L 342.777546 32.830813 
L 342.777546 32.705307 
L 346.111896 32.705307 
L 346.111896 32.5798 
L 347.153881 32.5798 
L 347.153881 32.454294 
L 354.135176 32.454294 
L 354.239374 32.203281 
L 355.385557 32.203281 
L 355.385557 31.952268 
L 359.449296 31.952268 
L 359.449296 31.826761 
L 361.741662 31.826761 
L 361.741662 31.826761 
" style="fill:none;stroke:#0272a2;stroke-linecap:round;stroke-width:2;"/>
   </g>
   <g id="line2d_26">
    <path clip-path="url(#p9b79d2f141)" d="M 57.378026 229.499489 
L 361.741662 31.826761 
" style="fill:none;stroke:#ee82ee;stroke-dasharray:6.475,2.8;stroke-dashoffset:0;stroke-width:1.75;"/>
   </g>
   <g id="patch_3">
    <path d="M 42.159844 239.383125 
L 42.159844 21.943125 
" style="fill:none;stroke:#cccccc;stroke-linecap:square;stroke-linejoin:miter;stroke-width:1.25;"/>
   </g>
   <g id="patch_4">
    <path d="M 376.959844 239.383125 
L 376.959844 21.943125 
" style="fill:none;stroke:#cccccc;stroke-linecap:square;stroke-linejoin:miter;stroke-width:1.25;"/>
   </g>
   <g id="patch_5">
    <path d="M 42.159844 239.383125 
L 376.959844 239.383125 
" style="fill:none;stroke:#cccccc;stroke-linecap:square;stroke-linejoin:miter;stroke-width:1.25;"/>
   </g>
   <g id="patch_6">
    <path d="M 42.159844 21.943125 
L 376.959844 21.943125 
" style="fill:none;stroke:#cccccc;stroke-linecap:square;stroke-linejoin:miter;stroke-width:1.25;"/>
   </g>
   <g id="text_15">
    <!-- ROC curve for high blood pressure in rf2 model -->
    <defs>
     <path d="M 7.859375 0 
L 7.859375 71.578125 
L 39.59375 71.578125 
Q 49.171875 71.578125 54.140625 69.640625 
Q 59.125 67.71875 62.109375 62.828125 
Q 65.09375 57.953125 65.09375 52.046875 
Q 65.09375 44.4375 60.15625 39.203125 
Q 55.21875 33.984375 44.921875 32.5625 
Q 48.6875 30.765625 50.640625 29 
Q 54.78125 25.203125 58.5 19.484375 
L 70.953125 0 
L 59.03125 0 
L 49.5625 14.890625 
Q 45.40625 21.34375 42.71875 24.75 
Q 40.046875 28.171875 37.921875 29.53125 
Q 35.796875 30.90625 33.59375 31.453125 
Q 31.984375 31.78125 28.328125 31.78125 
L 17.328125 31.78125 
L 17.328125 0 
z
M 17.328125 39.984375 
L 37.703125 39.984375 
Q 44.1875 39.984375 47.84375 41.328125 
Q 51.515625 42.671875 53.421875 45.625 
Q 55.328125 48.578125 55.328125 52.046875 
Q 55.328125 57.125 51.640625 60.390625 
Q 47.953125 63.671875 39.984375 63.671875 
L 17.328125 63.671875 
z
" id="ArialMT-82"/>
     <path d="M 4.828125 34.859375 
Q 4.828125 52.6875 14.390625 62.765625 
Q 23.96875 72.859375 39.109375 72.859375 
Q 49.03125 72.859375 56.984375 68.109375 
Q 64.9375 63.375 69.109375 54.90625 
Q 73.296875 46.4375 73.296875 35.6875 
Q 73.296875 24.8125 68.890625 16.21875 
Q 64.5 7.625 56.4375 3.203125 
Q 48.390625 -1.21875 39.0625 -1.21875 
Q 28.953125 -1.21875 20.984375 3.65625 
Q 13.03125 8.546875 8.921875 16.984375 
Q 4.828125 25.4375 4.828125 34.859375 
z
M 14.59375 34.71875 
Q 14.59375 21.78125 21.546875 14.328125 
Q 28.515625 6.890625 39.015625 6.890625 
Q 49.703125 6.890625 56.609375 14.40625 
Q 63.53125 21.921875 63.53125 35.75 
Q 63.53125 44.484375 60.578125 51 
Q 57.625 57.515625 51.921875 61.109375 
Q 46.234375 64.703125 39.15625 64.703125 
Q 29.109375 64.703125 21.84375 57.78125 
Q 14.59375 50.875 14.59375 34.71875 
z
" id="ArialMT-79"/>
     <path d="M 58.796875 25.09375 
L 68.265625 22.703125 
Q 65.28125 11.03125 57.546875 4.90625 
Q 49.8125 -1.21875 38.625 -1.21875 
Q 27.046875 -1.21875 19.796875 3.484375 
Q 12.546875 8.203125 8.765625 17.140625 
Q 4.984375 26.078125 4.984375 36.328125 
Q 4.984375 47.515625 9.25 55.828125 
Q 13.53125 64.15625 21.40625 68.46875 
Q 29.296875 72.796875 38.765625 72.796875 
Q 49.515625 72.796875 56.828125 67.328125 
Q 64.15625 61.859375 67.046875 51.953125 
L 57.71875 49.75 
Q 55.21875 57.5625 50.484375 61.125 
Q 45.75 64.703125 38.578125 64.703125 
Q 30.328125 64.703125 24.78125 60.734375 
Q 19.234375 56.78125 16.984375 50.109375 
Q 14.75 43.453125 14.75 36.375 
Q 14.75 27.25 17.40625 20.4375 
Q 20.0625 13.625 25.671875 10.25 
Q 31.296875 6.890625 37.84375 6.890625 
Q 45.796875 6.890625 51.3125 11.46875 
Q 56.84375 16.0625 58.796875 25.09375 
z
" id="ArialMT-67"/>
     <path d="M 40.4375 19 
L 49.078125 17.875 
Q 47.65625 8.9375 41.8125 3.875 
Q 35.984375 -1.171875 27.484375 -1.171875 
Q 16.84375 -1.171875 10.375 5.78125 
Q 3.90625 12.75 3.90625 25.734375 
Q 3.90625 34.125 6.6875 40.421875 
Q 9.46875 46.734375 15.15625 49.875 
Q 20.84375 53.03125 27.546875 53.03125 
Q 35.984375 53.03125 41.359375 48.75 
Q 46.734375 44.484375 48.25 36.625 
L 39.703125 35.296875 
Q 38.484375 40.53125 35.375 43.15625 
Q 32.28125 45.796875 27.875 45.796875 
Q 21.234375 45.796875 17.078125 41.03125 
Q 12.9375 36.28125 12.9375 25.984375 
Q 12.9375 15.53125 16.9375 10.796875 
Q 20.953125 6.0625 27.390625 6.0625 
Q 32.5625 6.0625 36.03125 9.234375 
Q 39.5 12.40625 40.4375 19 
z
" id="ArialMT-99"/>
     <path d="M 8.6875 0 
L 8.6875 45.015625 
L 0.921875 45.015625 
L 0.921875 51.859375 
L 8.6875 51.859375 
L 8.6875 57.375 
Q 8.6875 62.59375 9.625 65.140625 
Q 10.890625 68.5625 14.078125 70.671875 
Q 17.28125 72.796875 23.046875 72.796875 
Q 26.765625 72.796875 31.25 71.921875 
L 29.9375 64.265625 
Q 27.203125 64.75 24.75 64.75 
Q 20.75 64.75 19.09375 63.03125 
Q 17.4375 61.328125 17.4375 56.640625 
L 17.4375 51.859375 
L 27.546875 51.859375 
L 27.546875 45.015625 
L 17.4375 45.015625 
L 17.4375 0 
z
" id="ArialMT-102"/>
     <path d="M 6.59375 0 
L 6.59375 71.578125 
L 15.375 71.578125 
L 15.375 45.90625 
Q 21.53125 53.03125 30.90625 53.03125 
Q 36.671875 53.03125 40.921875 50.75 
Q 45.171875 48.484375 47 44.484375 
Q 48.828125 40.484375 48.828125 32.859375 
L 48.828125 0 
L 40.046875 0 
L 40.046875 32.859375 
Q 40.046875 39.453125 37.1875 42.453125 
Q 34.328125 45.453125 29.109375 45.453125 
Q 25.203125 45.453125 21.75 43.421875 
Q 18.3125 41.40625 16.84375 37.9375 
Q 15.375 34.46875 15.375 28.375 
L 15.375 0 
z
" id="ArialMT-104"/>
     <path d="M 4.984375 -4.296875 
L 13.53125 -5.5625 
Q 14.0625 -9.515625 16.5 -11.328125 
Q 19.78125 -13.765625 25.4375 -13.765625 
Q 31.546875 -13.765625 34.859375 -11.328125 
Q 38.1875 -8.890625 39.359375 -4.5 
Q 40.046875 -1.8125 39.984375 6.78125 
Q 34.234375 0 25.640625 0 
Q 14.9375 0 9.078125 7.71875 
Q 3.21875 15.4375 3.21875 26.21875 
Q 3.21875 33.640625 5.90625 39.90625 
Q 8.59375 46.1875 13.6875 49.609375 
Q 18.796875 53.03125 25.6875 53.03125 
Q 34.859375 53.03125 40.828125 45.609375 
L 40.828125 51.859375 
L 48.921875 51.859375 
L 48.921875 7.03125 
Q 48.921875 -5.078125 46.453125 -10.125 
Q 44 -15.1875 38.640625 -18.109375 
Q 33.296875 -21.046875 25.484375 -21.046875 
Q 16.21875 -21.046875 10.5 -16.875 
Q 4.78125 -12.703125 4.984375 -4.296875 
z
M 12.25 26.859375 
Q 12.25 16.65625 16.296875 11.96875 
Q 20.359375 7.28125 26.46875 7.28125 
Q 32.515625 7.28125 36.609375 11.9375 
Q 40.71875 16.609375 40.71875 26.5625 
Q 40.71875 36.078125 36.5 40.90625 
Q 32.28125 45.75 26.3125 45.75 
Q 20.453125 45.75 16.34375 40.984375 
Q 12.25 36.234375 12.25 26.859375 
z
" id="ArialMT-103"/>
     <path d="M 14.703125 0 
L 6.546875 0 
L 6.546875 71.578125 
L 15.328125 71.578125 
L 15.328125 46.046875 
Q 20.90625 53.03125 29.546875 53.03125 
Q 34.328125 53.03125 38.59375 51.09375 
Q 42.875 49.171875 45.625 45.671875 
Q 48.390625 42.1875 49.953125 37.25 
Q 51.515625 32.328125 51.515625 26.703125 
Q 51.515625 13.375 44.921875 6.09375 
Q 38.328125 -1.171875 29.109375 -1.171875 
Q 19.921875 -1.171875 14.703125 6.5 
z
M 14.59375 26.3125 
Q 14.59375 17 17.140625 12.84375 
Q 21.296875 6.0625 28.375 6.0625 
Q 34.125 6.0625 38.328125 11.0625 
Q 42.53125 16.0625 42.53125 25.984375 
Q 42.53125 36.140625 38.5 40.96875 
Q 34.46875 45.796875 28.765625 45.796875 
Q 23 45.796875 18.796875 40.796875 
Q 14.59375 35.796875 14.59375 26.3125 
z
" id="ArialMT-98"/>
     <path d="M 40.234375 0 
L 40.234375 6.546875 
Q 35.296875 -1.171875 25.734375 -1.171875 
Q 19.53125 -1.171875 14.328125 2.25 
Q 9.125 5.671875 6.265625 11.796875 
Q 3.421875 17.921875 3.421875 25.875 
Q 3.421875 33.640625 6 39.96875 
Q 8.59375 46.296875 13.765625 49.65625 
Q 18.953125 53.03125 25.34375 53.03125 
Q 30.03125 53.03125 33.6875 51.046875 
Q 37.359375 49.078125 39.65625 45.90625 
L 39.65625 71.578125 
L 48.390625 71.578125 
L 48.390625 0 
z
M 12.453125 25.875 
Q 12.453125 15.921875 16.640625 10.984375 
Q 20.84375 6.0625 26.5625 6.0625 
Q 32.328125 6.0625 36.34375 10.765625 
Q 40.375 15.484375 40.375 25.140625 
Q 40.375 35.796875 36.265625 40.765625 
Q 32.171875 45.75 26.171875 45.75 
Q 20.3125 45.75 16.375 40.96875 
Q 12.453125 36.1875 12.453125 25.875 
z
" id="ArialMT-100"/>
     <path d="M 6.59375 0 
L 6.59375 51.859375 
L 14.5 51.859375 
L 14.5 44.484375 
Q 20.21875 53.03125 31 53.03125 
Q 35.6875 53.03125 39.625 51.34375 
Q 43.5625 49.65625 45.515625 46.921875 
Q 47.46875 44.1875 48.25 40.4375 
Q 48.734375 37.984375 48.734375 31.890625 
L 48.734375 0 
L 39.9375 0 
L 39.9375 31.546875 
Q 39.9375 36.921875 38.90625 39.578125 
Q 37.890625 42.234375 35.28125 43.8125 
Q 32.671875 45.40625 29.15625 45.40625 
Q 23.53125 45.40625 19.453125 41.84375 
Q 15.375 38.28125 15.375 28.328125 
L 15.375 0 
z
" id="ArialMT-110"/>
     <path d="M 6.59375 0 
L 6.59375 51.859375 
L 14.453125 51.859375 
L 14.453125 44.578125 
Q 16.890625 48.390625 20.9375 50.703125 
Q 25 53.03125 30.171875 53.03125 
Q 35.9375 53.03125 39.625 50.640625 
Q 43.3125 48.25 44.828125 43.953125 
Q 50.984375 53.03125 60.84375 53.03125 
Q 68.5625 53.03125 72.703125 48.75 
Q 76.859375 44.484375 76.859375 35.59375 
L 76.859375 0 
L 68.109375 0 
L 68.109375 32.671875 
Q 68.109375 37.9375 67.25 40.25 
Q 66.40625 42.578125 64.15625 43.984375 
Q 61.921875 45.40625 58.890625 45.40625 
Q 53.421875 45.40625 49.796875 41.765625 
Q 46.1875 38.140625 46.1875 30.125 
L 46.1875 0 
L 37.40625 0 
L 37.40625 33.6875 
Q 37.40625 39.546875 35.25 42.46875 
Q 33.109375 45.40625 28.21875 45.40625 
Q 24.515625 45.40625 21.359375 43.453125 
Q 18.21875 41.5 16.796875 37.734375 
Q 15.375 33.984375 15.375 26.90625 
L 15.375 0 
z
" id="ArialMT-109"/>
    </defs>
    <g style="fill:#262626;" transform="translate(83.843906 15.943125)scale(0.12 -0.12)">
     <use xlink:href="#ArialMT-82"/>
     <use x="72.216797" xlink:href="#ArialMT-79"/>
     <use x="150" xlink:href="#ArialMT-67"/>
     <use x="222.216797" xlink:href="#ArialMT-32"/>
     <use x="250" xlink:href="#ArialMT-99"/>
     <use x="300" xlink:href="#ArialMT-117"/>
     <use x="355.615234" xlink:href="#ArialMT-114"/>
     <use x="388.916016" xlink:href="#ArialMT-118"/>
     <use x="438.916016" xlink:href="#ArialMT-101"/>
     <use x="494.53125" xlink:href="#ArialMT-32"/>
     <use x="522.314453" xlink:href="#ArialMT-102"/>
     <use x="550.097656" xlink:href="#ArialMT-111"/>
     <use x="605.712891" xlink:href="#ArialMT-114"/>
     <use x="639.013672" xlink:href="#ArialMT-32"/>
     <use x="666.796875" xlink:href="#ArialMT-104"/>
     <use x="722.412109" xlink:href="#ArialMT-105"/>
     <use x="744.628906" xlink:href="#ArialMT-103"/>
     <use x="800.244141" xlink:href="#ArialMT-104"/>
     <use x="855.859375" xlink:href="#ArialMT-32"/>
     <use x="883.642578" xlink:href="#ArialMT-98"/>
     <use x="939.257812" xlink:href="#ArialMT-108"/>
     <use x="961.474609" xlink:href="#ArialMT-111"/>
     <use x="1017.089844" xlink:href="#ArialMT-111"/>
     <use x="1072.705078" xlink:href="#ArialMT-100"/>
     <use x="1128.320312" xlink:href="#ArialMT-32"/>
     <use x="1156.103516" xlink:href="#ArialMT-112"/>
     <use x="1211.71875" xlink:href="#ArialMT-114"/>
     <use x="1245.019531" xlink:href="#ArialMT-101"/>
     <use x="1300.634766" xlink:href="#ArialMT-115"/>
     <use x="1350.634766" xlink:href="#ArialMT-115"/>
     <use x="1400.634766" xlink:href="#ArialMT-117"/>
     <use x="1456.25" xlink:href="#ArialMT-114"/>
     <use x="1489.550781" xlink:href="#ArialMT-101"/>
     <use x="1545.166016" xlink:href="#ArialMT-32"/>
     <use x="1572.949219" xlink:href="#ArialMT-105"/>
     <use x="1595.166016" xlink:href="#ArialMT-110"/>
     <use x="1650.78125" xlink:href="#ArialMT-32"/>
     <use x="1678.564453" xlink:href="#ArialMT-114"/>
     <use x="1711.865234" xlink:href="#ArialMT-102"/>
     <use x="1739.648438" xlink:href="#ArialMT-50"/>
     <use x="1795.263672" xlink:href="#ArialMT-32"/>
     <use x="1823.046875" xlink:href="#ArialMT-109"/>
     <use x="1906.347656" xlink:href="#ArialMT-111"/>
     <use x="1961.962891" xlink:href="#ArialMT-100"/>
     <use x="2017.578125" xlink:href="#ArialMT-101"/>
     <use x="2073.193359" xlink:href="#ArialMT-108"/>
    </g>
   </g>
  </g>
 </g>
 <defs>
  <clipPath id="p9b79d2f141">
   <rect height="217.44" width="334.8" x="42.159844" y="21.943125"/>
  </clipPath>
 </defs>
</svg>
