<?xml version="1.0" encoding="utf-8" standalone="no"?>
<!DOCTYPE svg PUBLIC "-//W3C//DTD SVG 1.1//EN"
  "http://www.w3.org/Graphics/SVG/1.1/DTD/svg11.dtd">
<!-- Created with matplotlib (https://matplotlib.org/) -->
<svg height="276.788281pt" version="1.1" viewBox="0 0 384.159844 276.788281" width="384.159844pt" xmlns="http://www.w3.org/2000/svg" xmlns:xlink="http://www.w3.org/1999/xlink">
 <defs>
  <style type="text/css">
*{stroke-linecap:butt;stroke-linejoin:round;}
  </style>
 </defs>
 <g id="figure_1">
  <g id="patch_1">
   <path d="M 0 276.788281 
L 384.159844 276.788281 
L 384.159844 0 
L 0 0 
z
" style="fill:#ffffff;"/>
  </g>
  <g id="axes_1">
   <g id="patch_2">
    <path d="M 42.159844 239.383125 
L 376.959844 239.383125 
L 376.959844 21.943125 
L 42.159844 21.943125 
z
" style="fill:#ffffff;"/>
   </g>
   <g id="matplotlib.axis_1">
    <g id="xtick_1">
     <g id="line2d_1">
      <path clip-path="url(#p50c46fb034)" d="M 57.378026 239.383125 
L 57.378026 21.943125 
" style="fill:none;stroke:#cccccc;stroke-linecap:round;"/>
     </g>
     <g id="line2d_2"/>
     <g id="text_1">
      <!-- 0.0 -->
      <defs>
       <path d="M 4.15625 35.296875 
Q 4.15625 48 6.765625 55.734375 
Q 9.375 63.484375 14.515625 67.671875 
Q 19.671875 71.875 27.484375 71.875 
Q 33.25 71.875 37.59375 69.546875 
Q 41.9375 67.234375 44.765625 62.859375 
Q 47.609375 58.5 49.21875 52.21875 
Q 50.828125 45.953125 50.828125 35.296875 
Q 50.828125 22.703125 48.234375 14.96875 
Q 45.65625 7.234375 40.5 3 
Q 35.359375 -1.21875 27.484375 -1.21875 
Q 17.140625 -1.21875 11.234375 6.203125 
Q 4.15625 15.140625 4.15625 35.296875 
z
M 13.1875 35.296875 
Q 13.1875 17.671875 17.3125 11.828125 
Q 21.4375 6 27.484375 6 
Q 33.546875 6 37.671875 11.859375 
Q 41.796875 17.71875 41.796875 35.296875 
Q 41.796875 52.984375 37.671875 58.78125 
Q 33.546875 64.59375 27.390625 64.59375 
Q 21.34375 64.59375 17.71875 59.46875 
Q 13.1875 52.9375 13.1875 35.296875 
z
" id="ArialMT-48"/>
       <path d="M 9.078125 0 
L 9.078125 10.015625 
L 19.09375 10.015625 
L 19.09375 0 
z
" id="ArialMT-46"/>
      </defs>
      <g style="fill:#262626;" transform="translate(50.428026 253.540938)scale(0.1 -0.1)">
       <use xlink:href="#ArialMT-48"/>
       <use x="55.615234" xlink:href="#ArialMT-46"/>
       <use x="83.398438" xlink:href="#ArialMT-48"/>
      </g>
     </g>
    </g>
    <g id="xtick_2">
     <g id="line2d_3">
      <path clip-path="url(#p50c46fb034)" d="M 118.250753 239.383125 
L 118.250753 21.943125 
" style="fill:none;stroke:#cccccc;stroke-linecap:round;"/>
     </g>
     <g id="line2d_4"/>
     <g id="text_2">
      <!-- 0.2 -->
      <defs>
       <path d="M 50.34375 8.453125 
L 50.34375 0 
L 3.03125 0 
Q 2.9375 3.171875 4.046875 6.109375 
Q 5.859375 10.9375 9.828125 15.625 
Q 13.8125 20.3125 21.34375 26.46875 
Q 33.015625 36.03125 37.109375 41.625 
Q 41.21875 47.21875 41.21875 52.203125 
Q 41.21875 57.421875 37.46875 61 
Q 33.734375 64.59375 27.734375 64.59375 
Q 21.390625 64.59375 17.578125 60.78125 
Q 13.765625 56.984375 13.71875 50.25 
L 4.6875 51.171875 
Q 5.609375 61.28125 11.65625 66.578125 
Q 17.71875 71.875 27.9375 71.875 
Q 38.234375 71.875 44.234375 66.15625 
Q 50.25 60.453125 50.25 52 
Q 50.25 47.703125 48.484375 43.546875 
Q 46.734375 39.40625 42.65625 34.8125 
Q 38.578125 30.21875 29.109375 22.21875 
Q 21.1875 15.578125 18.9375 13.203125 
Q 16.703125 10.84375 15.234375 8.453125 
z
" id="ArialMT-50"/>
      </defs>
      <g style="fill:#262626;" transform="translate(111.300753 253.540938)scale(0.1 -0.1)">
       <use xlink:href="#ArialMT-48"/>
       <use x="55.615234" xlink:href="#ArialMT-46"/>
       <use x="83.398438" xlink:href="#ArialMT-50"/>
      </g>
     </g>
    </g>
    <g id="xtick_3">
     <g id="line2d_5">
      <path clip-path="url(#p50c46fb034)" d="M 179.12348 239.383125 
L 179.12348 21.943125 
" style="fill:none;stroke:#cccccc;stroke-linecap:round;"/>
     </g>
     <g id="line2d_6"/>
     <g id="text_3">
      <!-- 0.4 -->
      <defs>
       <path d="M 32.328125 0 
L 32.328125 17.140625 
L 1.265625 17.140625 
L 1.265625 25.203125 
L 33.9375 71.578125 
L 41.109375 71.578125 
L 41.109375 25.203125 
L 50.78125 25.203125 
L 50.78125 17.140625 
L 41.109375 17.140625 
L 41.109375 0 
z
M 32.328125 25.203125 
L 32.328125 57.46875 
L 9.90625 25.203125 
z
" id="ArialMT-52"/>
      </defs>
      <g style="fill:#262626;" transform="translate(172.17348 253.540938)scale(0.1 -0.1)">
       <use xlink:href="#ArialMT-48"/>
       <use x="55.615234" xlink:href="#ArialMT-46"/>
       <use x="83.398438" xlink:href="#ArialMT-52"/>
      </g>
     </g>
    </g>
    <g id="xtick_4">
     <g id="line2d_7">
      <path clip-path="url(#p50c46fb034)" d="M 239.996207 239.383125 
L 239.996207 21.943125 
" style="fill:none;stroke:#cccccc;stroke-linecap:round;"/>
     </g>
     <g id="line2d_8"/>
     <g id="text_4">
      <!-- 0.6 -->
      <defs>
       <path d="M 49.75 54.046875 
L 41.015625 53.375 
Q 39.84375 58.546875 37.703125 60.890625 
Q 34.125 64.65625 28.90625 64.65625 
Q 24.703125 64.65625 21.53125 62.3125 
Q 17.390625 59.28125 14.984375 53.46875 
Q 12.59375 47.65625 12.5 36.921875 
Q 15.671875 41.75 20.265625 44.09375 
Q 24.859375 46.4375 29.890625 46.4375 
Q 38.671875 46.4375 44.84375 39.96875 
Q 51.03125 33.5 51.03125 23.25 
Q 51.03125 16.5 48.125 10.71875 
Q 45.21875 4.9375 40.140625 1.859375 
Q 35.0625 -1.21875 28.609375 -1.21875 
Q 17.625 -1.21875 10.6875 6.859375 
Q 3.765625 14.9375 3.765625 33.5 
Q 3.765625 54.25 11.421875 63.671875 
Q 18.109375 71.875 29.4375 71.875 
Q 37.890625 71.875 43.28125 67.140625 
Q 48.6875 62.40625 49.75 54.046875 
z
M 13.875 23.1875 
Q 13.875 18.65625 15.796875 14.5 
Q 17.71875 10.359375 21.1875 8.171875 
Q 24.65625 6 28.46875 6 
Q 34.03125 6 38.03125 10.484375 
Q 42.046875 14.984375 42.046875 22.703125 
Q 42.046875 30.125 38.078125 34.390625 
Q 34.125 38.671875 28.125 38.671875 
Q 22.171875 38.671875 18.015625 34.390625 
Q 13.875 30.125 13.875 23.1875 
z
" id="ArialMT-54"/>
      </defs>
      <g style="fill:#262626;" transform="translate(233.046207 253.540938)scale(0.1 -0.1)">
       <use xlink:href="#ArialMT-48"/>
       <use x="55.615234" xlink:href="#ArialMT-46"/>
       <use x="83.398438" xlink:href="#ArialMT-54"/>
      </g>
     </g>
    </g>
    <g id="xtick_5">
     <g id="line2d_9">
      <path clip-path="url(#p50c46fb034)" d="M 300.868935 239.383125 
L 300.868935 21.943125 
" style="fill:none;stroke:#cccccc;stroke-linecap:round;"/>
     </g>
     <g id="line2d_10"/>
     <g id="text_5">
      <!-- 0.8 -->
      <defs>
       <path d="M 17.671875 38.8125 
Q 12.203125 40.828125 9.5625 44.53125 
Q 6.9375 48.25 6.9375 53.421875 
Q 6.9375 61.234375 12.546875 66.546875 
Q 18.171875 71.875 27.484375 71.875 
Q 36.859375 71.875 42.578125 66.421875 
Q 48.296875 60.984375 48.296875 53.171875 
Q 48.296875 48.1875 45.671875 44.5 
Q 43.0625 40.828125 37.75 38.8125 
Q 44.34375 36.671875 47.78125 31.875 
Q 51.21875 27.09375 51.21875 20.453125 
Q 51.21875 11.28125 44.71875 5.03125 
Q 38.234375 -1.21875 27.640625 -1.21875 
Q 17.046875 -1.21875 10.546875 5.046875 
Q 4.046875 11.328125 4.046875 20.703125 
Q 4.046875 27.6875 7.59375 32.390625 
Q 11.140625 37.109375 17.671875 38.8125 
z
M 15.921875 53.71875 
Q 15.921875 48.640625 19.1875 45.40625 
Q 22.46875 42.1875 27.6875 42.1875 
Q 32.765625 42.1875 36.015625 45.375 
Q 39.265625 48.578125 39.265625 53.21875 
Q 39.265625 58.0625 35.90625 61.359375 
Q 32.5625 64.65625 27.59375 64.65625 
Q 22.5625 64.65625 19.234375 61.421875 
Q 15.921875 58.203125 15.921875 53.71875 
z
M 13.09375 20.65625 
Q 13.09375 16.890625 14.875 13.375 
Q 16.65625 9.859375 20.171875 7.921875 
Q 23.6875 6 27.734375 6 
Q 34.03125 6 38.125 10.046875 
Q 42.234375 14.109375 42.234375 20.359375 
Q 42.234375 26.703125 38.015625 30.859375 
Q 33.796875 35.015625 27.4375 35.015625 
Q 21.234375 35.015625 17.15625 30.90625 
Q 13.09375 26.8125 13.09375 20.65625 
z
" id="ArialMT-56"/>
      </defs>
      <g style="fill:#262626;" transform="translate(293.918935 253.540938)scale(0.1 -0.1)">
       <use xlink:href="#ArialMT-48"/>
       <use x="55.615234" xlink:href="#ArialMT-46"/>
       <use x="83.398438" xlink:href="#ArialMT-56"/>
      </g>
     </g>
    </g>
    <g id="xtick_6">
     <g id="line2d_11">
      <path clip-path="url(#p50c46fb034)" d="M 361.741662 239.383125 
L 361.741662 21.943125 
" style="fill:none;stroke:#cccccc;stroke-linecap:round;"/>
     </g>
     <g id="line2d_12"/>
     <g id="text_6">
      <!-- 1.0 -->
      <defs>
       <path d="M 37.25 0 
L 28.46875 0 
L 28.46875 56 
Q 25.296875 52.984375 20.140625 49.953125 
Q 14.984375 46.921875 10.890625 45.40625 
L 10.890625 53.90625 
Q 18.265625 57.375 23.78125 62.296875 
Q 29.296875 67.234375 31.59375 71.875 
L 37.25 71.875 
z
" id="ArialMT-49"/>
      </defs>
      <g style="fill:#262626;" transform="translate(354.791662 253.540938)scale(0.1 -0.1)">
       <use xlink:href="#ArialMT-49"/>
       <use x="55.615234" xlink:href="#ArialMT-46"/>
       <use x="83.398438" xlink:href="#ArialMT-48"/>
      </g>
     </g>
    </g>
    <g id="text_7">
     <!-- False positive rate -->
     <defs>
      <path d="M 8.203125 0 
L 8.203125 71.578125 
L 56.5 71.578125 
L 56.5 63.140625 
L 17.671875 63.140625 
L 17.671875 40.96875 
L 51.265625 40.96875 
L 51.265625 32.515625 
L 17.671875 32.515625 
L 17.671875 0 
z
" id="ArialMT-70"/>
      <path d="M 40.4375 6.390625 
Q 35.546875 2.25 31.03125 0.53125 
Q 26.515625 -1.171875 21.34375 -1.171875 
Q 12.796875 -1.171875 8.203125 3 
Q 3.609375 7.171875 3.609375 13.671875 
Q 3.609375 17.484375 5.34375 20.625 
Q 7.078125 23.78125 9.890625 25.6875 
Q 12.703125 27.59375 16.21875 28.5625 
Q 18.796875 29.25 24.03125 29.890625 
Q 34.671875 31.15625 39.703125 32.90625 
Q 39.75 34.71875 39.75 35.203125 
Q 39.75 40.578125 37.25 42.78125 
Q 33.890625 45.75 27.25 45.75 
Q 21.046875 45.75 18.09375 43.578125 
Q 15.140625 41.40625 13.71875 35.890625 
L 5.125 37.0625 
Q 6.296875 42.578125 8.984375 45.96875 
Q 11.671875 49.359375 16.75 51.1875 
Q 21.828125 53.03125 28.515625 53.03125 
Q 35.15625 53.03125 39.296875 51.46875 
Q 43.453125 49.90625 45.40625 47.53125 
Q 47.359375 45.171875 48.140625 41.546875 
Q 48.578125 39.3125 48.578125 33.453125 
L 48.578125 21.734375 
Q 48.578125 9.46875 49.140625 6.21875 
Q 49.703125 2.984375 51.375 0 
L 42.1875 0 
Q 40.828125 2.734375 40.4375 6.390625 
z
M 39.703125 26.03125 
Q 34.90625 24.078125 25.34375 22.703125 
Q 19.921875 21.921875 17.671875 20.9375 
Q 15.4375 19.96875 14.203125 18.09375 
Q 12.984375 16.21875 12.984375 13.921875 
Q 12.984375 10.40625 15.640625 8.0625 
Q 18.3125 5.71875 23.4375 5.71875 
Q 28.515625 5.71875 32.46875 7.9375 
Q 36.421875 10.15625 38.28125 14.015625 
Q 39.703125 17 39.703125 22.796875 
z
" id="ArialMT-97"/>
      <path d="M 6.390625 0 
L 6.390625 71.578125 
L 15.1875 71.578125 
L 15.1875 0 
z
" id="ArialMT-108"/>
      <path d="M 3.078125 15.484375 
L 11.765625 16.84375 
Q 12.5 11.625 15.84375 8.84375 
Q 19.1875 6.0625 25.203125 6.0625 
Q 31.25 6.0625 34.171875 8.515625 
Q 37.109375 10.984375 37.109375 14.3125 
Q 37.109375 17.28125 34.515625 19 
Q 32.71875 20.171875 25.53125 21.96875 
Q 15.875 24.421875 12.140625 26.203125 
Q 8.40625 27.984375 6.46875 31.125 
Q 4.546875 34.28125 4.546875 38.09375 
Q 4.546875 41.546875 6.125 44.5 
Q 7.71875 47.46875 10.453125 49.421875 
Q 12.5 50.921875 16.03125 51.96875 
Q 19.578125 53.03125 23.640625 53.03125 
Q 29.734375 53.03125 34.34375 51.265625 
Q 38.96875 49.515625 41.15625 46.5 
Q 43.359375 43.5 44.1875 38.484375 
L 35.59375 37.3125 
Q 35.015625 41.3125 32.203125 43.546875 
Q 29.390625 45.796875 24.265625 45.796875 
Q 18.21875 45.796875 15.625 43.796875 
Q 13.03125 41.796875 13.03125 39.109375 
Q 13.03125 37.40625 14.109375 36.03125 
Q 15.1875 34.625 17.484375 33.6875 
Q 18.796875 33.203125 25.25 31.453125 
Q 34.578125 28.953125 38.25 27.359375 
Q 41.9375 25.78125 44.03125 22.75 
Q 46.140625 19.734375 46.140625 15.234375 
Q 46.140625 10.84375 43.578125 6.953125 
Q 41.015625 3.078125 36.171875 0.953125 
Q 31.34375 -1.171875 25.25 -1.171875 
Q 15.140625 -1.171875 9.84375 3.03125 
Q 4.546875 7.234375 3.078125 15.484375 
z
" id="ArialMT-115"/>
      <path d="M 42.09375 16.703125 
L 51.171875 15.578125 
Q 49.03125 7.625 43.21875 3.21875 
Q 37.40625 -1.171875 28.375 -1.171875 
Q 17 -1.171875 10.328125 5.828125 
Q 3.65625 12.84375 3.65625 25.484375 
Q 3.65625 38.578125 10.390625 45.796875 
Q 17.140625 53.03125 27.875 53.03125 
Q 38.28125 53.03125 44.875 45.953125 
Q 51.46875 38.875 51.46875 26.03125 
Q 51.46875 25.25 51.421875 23.6875 
L 12.75 23.6875 
Q 13.234375 15.140625 17.578125 10.59375 
Q 21.921875 6.0625 28.421875 6.0625 
Q 33.25 6.0625 36.671875 8.59375 
Q 40.09375 11.140625 42.09375 16.703125 
z
M 13.234375 30.90625 
L 42.1875 30.90625 
Q 41.609375 37.453125 38.875 40.71875 
Q 34.671875 45.796875 27.984375 45.796875 
Q 21.921875 45.796875 17.796875 41.75 
Q 13.671875 37.703125 13.234375 30.90625 
z
" id="ArialMT-101"/>
      <path id="ArialMT-32"/>
      <path d="M 6.59375 -19.875 
L 6.59375 51.859375 
L 14.59375 51.859375 
L 14.59375 45.125 
Q 17.4375 49.078125 21 51.046875 
Q 24.5625 53.03125 29.640625 53.03125 
Q 36.28125 53.03125 41.359375 49.609375 
Q 46.4375 46.1875 49.015625 39.953125 
Q 51.609375 33.734375 51.609375 26.3125 
Q 51.609375 18.359375 48.75 11.984375 
Q 45.90625 5.609375 40.453125 2.21875 
Q 35.015625 -1.171875 29 -1.171875 
Q 24.609375 -1.171875 21.109375 0.6875 
Q 17.625 2.546875 15.375 5.375 
L 15.375 -19.875 
z
M 14.546875 25.640625 
Q 14.546875 15.625 18.59375 10.84375 
Q 22.65625 6.0625 28.421875 6.0625 
Q 34.28125 6.0625 38.453125 11.015625 
Q 42.625 15.96875 42.625 26.375 
Q 42.625 36.28125 38.546875 41.203125 
Q 34.46875 46.140625 28.8125 46.140625 
Q 23.1875 46.140625 18.859375 40.890625 
Q 14.546875 35.640625 14.546875 25.640625 
z
" id="ArialMT-112"/>
      <path d="M 3.328125 25.921875 
Q 3.328125 40.328125 11.328125 47.265625 
Q 18.015625 53.03125 27.640625 53.03125 
Q 38.328125 53.03125 45.109375 46.015625 
Q 51.90625 39.015625 51.90625 26.65625 
Q 51.90625 16.65625 48.90625 10.90625 
Q 45.90625 5.171875 40.15625 2 
Q 34.421875 -1.171875 27.640625 -1.171875 
Q 16.75 -1.171875 10.03125 5.8125 
Q 3.328125 12.796875 3.328125 25.921875 
z
M 12.359375 25.921875 
Q 12.359375 15.96875 16.703125 11.015625 
Q 21.046875 6.0625 27.640625 6.0625 
Q 34.1875 6.0625 38.53125 11.03125 
Q 42.875 16.015625 42.875 26.21875 
Q 42.875 35.84375 38.5 40.796875 
Q 34.125 45.75 27.640625 45.75 
Q 21.046875 45.75 16.703125 40.8125 
Q 12.359375 35.890625 12.359375 25.921875 
z
" id="ArialMT-111"/>
      <path d="M 6.640625 61.46875 
L 6.640625 71.578125 
L 15.4375 71.578125 
L 15.4375 61.46875 
z
M 6.640625 0 
L 6.640625 51.859375 
L 15.4375 51.859375 
L 15.4375 0 
z
" id="ArialMT-105"/>
      <path d="M 25.78125 7.859375 
L 27.046875 0.09375 
Q 23.34375 -0.6875 20.40625 -0.6875 
Q 15.625 -0.6875 12.984375 0.828125 
Q 10.359375 2.34375 9.28125 4.8125 
Q 8.203125 7.28125 8.203125 15.1875 
L 8.203125 45.015625 
L 1.765625 45.015625 
L 1.765625 51.859375 
L 8.203125 51.859375 
L 8.203125 64.703125 
L 16.9375 69.96875 
L 16.9375 51.859375 
L 25.78125 51.859375 
L 25.78125 45.015625 
L 16.9375 45.015625 
L 16.9375 14.703125 
Q 16.9375 10.9375 17.40625 9.859375 
Q 17.875 8.796875 18.921875 8.15625 
Q 19.96875 7.515625 21.921875 7.515625 
Q 23.390625 7.515625 25.78125 7.859375 
z
" id="ArialMT-116"/>
      <path d="M 21 0 
L 1.265625 51.859375 
L 10.546875 51.859375 
L 21.6875 20.796875 
Q 23.484375 15.765625 25 10.359375 
Q 26.171875 14.453125 28.265625 20.21875 
L 39.796875 51.859375 
L 48.828125 51.859375 
L 29.203125 0 
z
" id="ArialMT-118"/>
      <path d="M 6.5 0 
L 6.5 51.859375 
L 14.40625 51.859375 
L 14.40625 44 
Q 17.4375 49.515625 20 51.265625 
Q 22.5625 53.03125 25.640625 53.03125 
Q 30.078125 53.03125 34.671875 50.203125 
L 31.640625 42.046875 
Q 28.421875 43.953125 25.203125 43.953125 
Q 22.3125 43.953125 20.015625 42.21875 
Q 17.71875 40.484375 16.75 37.40625 
Q 15.28125 32.71875 15.28125 27.15625 
L 15.28125 0 
z
" id="ArialMT-114"/>
     </defs>
     <g style="fill:#262626;" transform="translate(164.931641 267.402031)scale(0.11 -0.11)">
      <use xlink:href="#ArialMT-70"/>
      <use x="61.083984" xlink:href="#ArialMT-97"/>
      <use x="116.699219" xlink:href="#ArialMT-108"/>
      <use x="138.916016" xlink:href="#ArialMT-115"/>
      <use x="188.916016" xlink:href="#ArialMT-101"/>
      <use x="244.53125" xlink:href="#ArialMT-32"/>
      <use x="272.314453" xlink:href="#ArialMT-112"/>
      <use x="327.929688" xlink:href="#ArialMT-111"/>
      <use x="383.544922" xlink:href="#ArialMT-115"/>
      <use x="433.544922" xlink:href="#ArialMT-105"/>
      <use x="455.761719" xlink:href="#ArialMT-116"/>
      <use x="483.544922" xlink:href="#ArialMT-105"/>
      <use x="505.761719" xlink:href="#ArialMT-118"/>
      <use x="555.761719" xlink:href="#ArialMT-101"/>
      <use x="611.376953" xlink:href="#ArialMT-32"/>
      <use x="639.160156" xlink:href="#ArialMT-114"/>
      <use x="672.460938" xlink:href="#ArialMT-97"/>
      <use x="728.076172" xlink:href="#ArialMT-116"/>
      <use x="755.859375" xlink:href="#ArialMT-101"/>
     </g>
    </g>
   </g>
   <g id="matplotlib.axis_2">
    <g id="ytick_1">
     <g id="line2d_13">
      <path clip-path="url(#p50c46fb034)" d="M 42.159844 229.499489 
L 376.959844 229.499489 
" style="fill:none;stroke:#cccccc;stroke-linecap:round;"/>
     </g>
     <g id="line2d_14"/>
     <g id="text_8">
      <!-- 0.0 -->
      <g style="fill:#262626;" transform="translate(21.259844 233.078395)scale(0.1 -0.1)">
       <use xlink:href="#ArialMT-48"/>
       <use x="55.615234" xlink:href="#ArialMT-46"/>
       <use x="83.398438" xlink:href="#ArialMT-48"/>
      </g>
     </g>
    </g>
    <g id="ytick_2">
     <g id="line2d_15">
      <path clip-path="url(#p50c46fb034)" d="M 42.159844 189.964943 
L 376.959844 189.964943 
" style="fill:none;stroke:#cccccc;stroke-linecap:round;"/>
     </g>
     <g id="line2d_16"/>
     <g id="text_9">
      <!-- 0.2 -->
      <g style="fill:#262626;" transform="translate(21.259844 193.543849)scale(0.1 -0.1)">
       <use xlink:href="#ArialMT-48"/>
       <use x="55.615234" xlink:href="#ArialMT-46"/>
       <use x="83.398438" xlink:href="#ArialMT-50"/>
      </g>
     </g>
    </g>
    <g id="ytick_3">
     <g id="line2d_17">
      <path clip-path="url(#p50c46fb034)" d="M 42.159844 150.430398 
L 376.959844 150.430398 
" style="fill:none;stroke:#cccccc;stroke-linecap:round;"/>
     </g>
     <g id="line2d_18"/>
     <g id="text_10">
      <!-- 0.4 -->
      <g style="fill:#262626;" transform="translate(21.259844 154.009304)scale(0.1 -0.1)">
       <use xlink:href="#ArialMT-48"/>
       <use x="55.615234" xlink:href="#ArialMT-46"/>
       <use x="83.398438" xlink:href="#ArialMT-52"/>
      </g>
     </g>
    </g>
    <g id="ytick_4">
     <g id="line2d_19">
      <path clip-path="url(#p50c46fb034)" d="M 42.159844 110.895852 
L 376.959844 110.895852 
" style="fill:none;stroke:#cccccc;stroke-linecap:round;"/>
     </g>
     <g id="line2d_20"/>
     <g id="text_11">
      <!-- 0.6 -->
      <g style="fill:#262626;" transform="translate(21.259844 114.474759)scale(0.1 -0.1)">
       <use xlink:href="#ArialMT-48"/>
       <use x="55.615234" xlink:href="#ArialMT-46"/>
       <use x="83.398438" xlink:href="#ArialMT-54"/>
      </g>
     </g>
    </g>
    <g id="ytick_5">
     <g id="line2d_21">
      <path clip-path="url(#p50c46fb034)" d="M 42.159844 71.361307 
L 376.959844 71.361307 
" style="fill:none;stroke:#cccccc;stroke-linecap:round;"/>
     </g>
     <g id="line2d_22"/>
     <g id="text_12">
      <!-- 0.8 -->
      <g style="fill:#262626;" transform="translate(21.259844 74.940213)scale(0.1 -0.1)">
       <use xlink:href="#ArialMT-48"/>
       <use x="55.615234" xlink:href="#ArialMT-46"/>
       <use x="83.398438" xlink:href="#ArialMT-56"/>
      </g>
     </g>
    </g>
    <g id="ytick_6">
     <g id="line2d_23">
      <path clip-path="url(#p50c46fb034)" d="M 42.159844 31.826761 
L 376.959844 31.826761 
" style="fill:none;stroke:#cccccc;stroke-linecap:round;"/>
     </g>
     <g id="line2d_24"/>
     <g id="text_13">
      <!-- 1.0 -->
      <g style="fill:#262626;" transform="translate(21.259844 35.405668)scale(0.1 -0.1)">
       <use xlink:href="#ArialMT-49"/>
       <use x="55.615234" xlink:href="#ArialMT-46"/>
       <use x="83.398438" xlink:href="#ArialMT-48"/>
      </g>
     </g>
    </g>
    <g id="text_14">
     <!-- True positive rate -->
     <defs>
      <path d="M 25.921875 0 
L 25.921875 63.140625 
L 2.34375 63.140625 
L 2.34375 71.578125 
L 59.078125 71.578125 
L 59.078125 63.140625 
L 35.40625 63.140625 
L 35.40625 0 
z
" id="ArialMT-84"/>
      <path d="M 40.578125 0 
L 40.578125 7.625 
Q 34.515625 -1.171875 24.125 -1.171875 
Q 19.53125 -1.171875 15.546875 0.578125 
Q 11.578125 2.34375 9.640625 5 
Q 7.71875 7.671875 6.9375 11.53125 
Q 6.390625 14.109375 6.390625 19.734375 
L 6.390625 51.859375 
L 15.1875 51.859375 
L 15.1875 23.09375 
Q 15.1875 16.21875 15.71875 13.8125 
Q 16.546875 10.359375 19.234375 8.375 
Q 21.921875 6.390625 25.875 6.390625 
Q 29.828125 6.390625 33.296875 8.421875 
Q 36.765625 10.453125 38.203125 13.9375 
Q 39.65625 17.4375 39.65625 24.078125 
L 39.65625 51.859375 
L 48.4375 51.859375 
L 48.4375 0 
z
" id="ArialMT-117"/>
     </defs>
     <g style="fill:#262626;" transform="translate(15.073594 172.944375)rotate(-90)scale(0.11 -0.11)">
      <use xlink:href="#ArialMT-84"/>
      <use x="57.333984" xlink:href="#ArialMT-114"/>
      <use x="90.634766" xlink:href="#ArialMT-117"/>
      <use x="146.25" xlink:href="#ArialMT-101"/>
      <use x="201.865234" xlink:href="#ArialMT-32"/>
      <use x="229.648438" xlink:href="#ArialMT-112"/>
      <use x="285.263672" xlink:href="#ArialMT-111"/>
      <use x="340.878906" xlink:href="#ArialMT-115"/>
      <use x="390.878906" xlink:href="#ArialMT-105"/>
      <use x="413.095703" xlink:href="#ArialMT-116"/>
      <use x="440.878906" xlink:href="#ArialMT-105"/>
      <use x="463.095703" xlink:href="#ArialMT-118"/>
      <use x="513.095703" xlink:href="#ArialMT-101"/>
      <use x="568.710938" xlink:href="#ArialMT-32"/>
      <use x="596.494141" xlink:href="#ArialMT-114"/>
      <use x="629.794922" xlink:href="#ArialMT-97"/>
      <use x="685.410156" xlink:href="#ArialMT-116"/>
      <use x="713.193359" xlink:href="#ArialMT-101"/>
     </g>
    </g>
   </g>
   <g id="line2d_25">
    <path clip-path="url(#p50c46fb034)" d="M 57.378026 229.499489 
L 57.482224 228.620943 
L 57.586422 228.620943 
L 57.690621 227.616891 
L 57.794819 227.616891 
L 57.899018 226.738346 
L 58.003216 226.738346 
L 58.107415 226.23632 
L 58.211613 226.23632 
L 58.315812 225.357774 
L 58.836804 225.357774 
L 58.941002 224.228216 
L 59.045201 224.228216 
L 59.149399 223.977203 
L 59.357796 223.977203 
L 59.461994 223.475177 
L 59.566193 223.475177 
L 59.670391 222.471125 
L 59.77459 222.471125 
L 59.878788 221.341567 
L 59.982987 221.341567 
L 60.087185 220.839541 
L 60.191383 220.839541 
L 60.295582 220.337515 
L 60.39978 220.337515 
L 60.503979 219.584476 
L 60.608177 219.584476 
L 60.712376 219.08245 
L 60.816574 219.08245 
L 60.816574 218.956943 
L 61.024971 218.956943 
L 61.129169 217.827385 
L 61.337566 217.827385 
L 61.441765 217.325359 
L 61.650162 217.325359 
L 61.650162 216.697826 
L 61.962757 216.697826 
L 61.962757 216.57232 
L 62.275352 216.57232 
L 62.275352 216.321307 
L 62.483749 216.321307 
L 62.587947 215.819281 
L 62.692146 215.819281 
L 62.692146 215.568268 
L 62.900543 215.568268 
L 62.900543 215.442761 
L 63.10894 215.442761 
L 63.213138 215.066242 
L 63.317337 215.066242 
L 63.317337 214.187696 
L 63.73413 214.187696 
L 63.73413 213.936683 
L 64.463519 213.936683 
L 64.567718 213.183644 
L 64.671916 213.183644 
L 64.776115 212.305099 
L 64.880313 212.305099 
L 64.984512 210.799021 
L 65.192908 210.799021 
L 65.297107 209.920476 
L 65.401305 209.920476 
L 65.505504 209.543956 
L 65.609702 209.543956 
L 65.713901 208.916424 
L 65.818099 208.916424 
L 65.922297 208.665411 
L 66.130694 208.665411 
L 66.234893 207.912372 
L 66.547488 207.912372 
L 66.651687 207.159333 
L 66.860083 207.159333 
L 66.964282 206.90832 
L 67.172679 206.90832 
L 67.276877 206.280787 
L 67.381076 206.280787 
L 67.485274 205.402242 
L 67.797869 205.402242 
L 67.797869 205.025722 
L 68.006266 205.025722 
L 68.110465 204.649203 
L 68.318862 204.649203 
L 68.42306 204.147177 
L 68.527258 204.147177 
L 68.527258 203.896164 
L 68.839854 203.896164 
L 68.839854 203.394138 
L 69.152449 203.394138 
L 69.256647 202.641099 
L 69.360846 202.641099 
L 69.465044 202.013567 
L 69.77764 202.013567 
L 69.77764 201.637047 
L 69.986037 201.637047 
L 69.986037 201.511541 
L 70.819624 201.511541 
L 70.923822 200.884008 
L 71.028021 200.884008 
L 71.132219 200.130969 
L 71.236418 200.130969 
L 71.340616 199.503437 
L 71.444815 199.503437 
L 71.549013 199.252424 
L 71.75741 199.252424 
L 71.75741 199.001411 
L 72.486799 199.001411 
L 72.590997 198.373878 
L 72.799394 198.373878 
L 72.903593 197.997359 
L 73.007791 197.997359 
L 73.11199 197.746346 
L 73.320387 197.746346 
L 73.320387 197.24432 
L 73.632982 197.24432 
L 73.73718 196.742294 
L 73.841379 196.742294 
L 73.945577 196.240268 
L 74.258172 196.240268 
L 74.258172 196.114761 
L 74.466569 196.114761 
L 74.570768 195.487229 
L 74.779165 195.487229 
L 74.779165 195.236216 
L 74.987562 195.236216 
L 75.09176 194.985203 
L 75.195958 194.985203 
L 75.300157 194.35767 
L 75.508554 194.35767 
L 75.612752 193.855644 
L 75.821149 193.855644 
L 75.925347 192.60058 
L 76.133744 192.60058 
L 76.133744 192.475073 
L 76.44634 192.475073 
L 76.550538 191.847541 
L 76.758935 191.847541 
L 76.863133 190.968995 
L 77.07153 190.968995 
L 77.07153 190.843489 
L 77.592522 190.843489 
L 77.696721 190.215956 
L 77.800919 190.215956 
L 77.905118 189.71393 
L 78.217713 189.71393 
L 78.321912 189.462917 
L 78.634507 189.462917 
L 78.634507 188.584372 
L 78.947102 188.584372 
L 78.947102 188.458865 
L 79.572293 188.458865 
L 79.676491 188.082346 
L 79.884888 188.082346 
L 79.884888 187.956839 
L 80.093285 187.956839 
L 80.197483 187.705826 
L 80.510079 187.705826 
L 80.510079 187.078294 
L 80.718476 187.078294 
L 80.822674 186.450761 
L 81.135269 186.450761 
L 81.135269 186.199748 
L 81.343666 186.199748 
L 81.447865 185.572216 
L 81.552063 185.572216 
L 81.552063 185.446709 
L 81.968857 185.446709 
L 81.968857 185.195696 
L 82.177254 185.195696 
L 82.281452 184.819177 
L 82.385651 184.819177 
L 82.385651 184.69367 
L 82.594047 184.69367 
L 82.698246 184.317151 
L 82.906643 184.317151 
L 83.010841 184.066138 
L 83.531833 184.066138 
L 83.636032 183.438606 
L 83.844429 183.438606 
L 83.948627 182.93658 
L 84.157024 182.93658 
L 84.157024 182.811073 
L 84.469619 182.811073 
L 84.469619 182.685567 
L 84.678016 182.685567 
L 84.782215 182.434554 
L 84.886413 182.434554 
L 84.886413 182.309047 
L 85.407405 182.309047 
L 85.511604 182.058034 
L 85.615802 182.058034 
L 85.615802 181.932528 
L 86.032596 181.932528 
L 86.032596 181.304995 
L 86.240993 181.304995 
L 86.240993 181.179489 
L 86.657787 181.179489 
L 86.657787 180.928476 
L 86.866183 180.928476 
L 86.970382 180.42645 
L 87.178779 180.42645 
L 87.282977 179.924424 
L 87.491374 179.924424 
L 87.595572 179.673411 
L 87.699771 179.673411 
L 87.699771 179.547904 
L 87.908168 179.547904 
L 88.012366 179.045878 
L 88.116565 179.045878 
L 88.220763 177.91632 
L 88.533358 177.91632 
L 88.637557 177.414294 
L 88.845954 177.414294 
L 88.845954 176.912268 
L 89.054351 176.912268 
L 89.054351 176.284735 
L 89.575343 176.284735 
L 89.679541 175.782709 
L 89.78374 175.782709 
L 89.887938 174.904164 
L 90.096335 174.904164 
L 90.096335 174.402138 
L 90.513129 174.402138 
L 90.513129 174.025619 
L 90.721526 174.025619 
L 90.825724 173.649099 
L 90.929922 173.649099 
L 91.034121 173.021567 
L 91.242518 173.021567 
L 91.242518 172.770554 
L 91.450915 172.770554 
L 91.555113 172.268528 
L 91.971907 172.268528 
L 91.971907 171.766502 
L 92.180304 171.766502 
L 92.180304 170.887956 
L 92.492899 170.887956 
L 92.597097 170.134917 
L 92.909693 170.134917 
L 93.013891 169.758398 
L 93.11809 169.758398 
L 93.222288 169.130865 
L 93.326487 169.130865 
L 93.430685 168.879852 
L 93.534883 168.879852 
L 93.639082 168.377826 
L 93.74328 168.377826 
L 93.847479 168.126813 
L 93.951677 168.126813 
L 93.951677 168.001307 
L 94.160074 168.001307 
L 94.264272 167.750294 
L 94.368471 167.750294 
L 94.368471 167.624787 
L 94.576868 167.624787 
L 94.576868 167.499281 
L 94.889463 167.499281 
L 94.889463 167.373774 
L 95.202058 167.373774 
L 95.202058 166.369722 
L 95.514654 166.369722 
L 95.514654 165.74219 
L 95.723051 165.74219 
L 95.827249 164.863644 
L 95.931447 164.863644 
L 95.931447 164.487125 
L 96.244043 164.487125 
L 96.244043 164.236112 
L 96.556638 164.236112 
L 96.660837 163.734086 
L 96.869233 163.734086 
L 96.973432 163.23206 
L 97.07763 163.23206 
L 97.181829 162.730034 
L 97.286027 162.730034 
L 97.286027 162.228008 
L 97.494424 162.228008 
L 97.494424 162.102502 
L 97.807019 162.102502 
L 97.911218 161.600476 
L 98.223813 161.600476 
L 98.223813 161.474969 
L 98.640607 161.474969 
L 98.640607 160.847437 
L 98.953202 160.847437 
L 99.057401 160.470917 
L 99.161599 160.470917 
L 99.161599 160.094398 
L 99.369996 160.094398 
L 99.369996 159.843385 
L 99.578393 159.843385 
L 99.682591 159.341359 
L 99.78679 159.341359 
L 99.890988 159.090346 
L 100.099385 159.090346 
L 100.203583 158.713826 
L 100.41198 158.713826 
L 100.41198 158.58832 
L 100.620377 158.58832 
L 100.724576 157.835281 
L 101.349766 157.835281 
L 101.453965 157.333255 
L 101.558163 157.333255 
L 101.558163 157.207748 
L 101.76656 157.207748 
L 101.76656 157.082242 
L 101.974957 157.082242 
L 102.079155 156.203696 
L 102.704346 156.203696 
L 102.808544 155.450657 
L 102.912743 155.450657 
L 102.912743 154.948631 
L 103.225338 154.948631 
L 103.329537 154.070086 
L 103.642132 154.070086 
L 103.74633 153.317047 
L 103.954727 153.317047 
L 103.954727 153.191541 
L 104.163124 153.191541 
L 104.163124 153.066034 
L 104.371521 153.066034 
L 104.475719 152.564008 
L 104.579918 152.564008 
L 104.684116 152.187489 
L 104.996712 152.187489 
L 104.996712 151.936476 
L 105.517704 151.936476 
L 105.621902 151.43445 
L 105.726101 151.43445 
L 105.726101 151.183437 
L 106.038696 151.183437 
L 106.038696 150.932424 
L 106.45549 150.932424 
L 106.559688 150.179385 
L 106.663887 150.179385 
L 106.663887 149.928372 
L 106.976482 149.928372 
L 106.976482 149.802865 
L 107.184879 149.802865 
L 107.184879 149.677359 
L 107.601673 149.677359 
L 107.601673 149.551852 
L 108.018466 149.551852 
L 108.122665 149.049826 
L 108.226863 149.049826 
L 108.226863 148.92432 
L 108.539458 148.92432 
L 108.643657 148.673307 
L 109.268848 148.673307 
L 109.268848 148.5478 
L 109.894038 148.5478 
L 109.998237 148.296787 
L 110.519229 148.296787 
L 110.623427 147.669255 
L 110.727626 147.669255 
L 110.831824 147.041722 
L 110.936023 147.041722 
L 111.040221 145.912164 
L 111.248618 145.912164 
L 111.352816 145.535644 
L 111.561213 145.535644 
L 111.561213 145.284631 
L 111.76961 145.284631 
L 111.76961 145.159125 
L 111.978007 145.159125 
L 112.082205 144.908112 
L 112.394801 144.908112 
L 112.394801 144.782606 
L 112.915793 144.782606 
L 113.019991 144.531593 
L 113.228388 144.531593 
L 113.228388 144.28058 
L 113.645182 144.28058 
L 113.645182 144.155073 
L 113.853579 144.155073 
L 113.957777 143.90406 
L 114.061976 143.90406 
L 114.061976 143.778554 
L 114.478769 143.778554 
L 114.582968 143.025515 
L 115.10396 143.025515 
L 115.10396 142.900008 
L 115.312357 142.900008 
L 115.312357 142.397982 
L 115.624952 142.397982 
L 115.624952 142.272476 
L 116.041746 142.272476 
L 116.145944 141.895956 
L 116.354341 141.895956 
L 116.45854 141.519437 
L 116.771135 141.519437 
L 116.875333 140.891904 
L 116.979532 140.891904 
L 116.979532 140.766398 
L 117.396326 140.766398 
L 117.396326 140.389878 
L 117.604723 140.389878 
L 117.604723 140.264372 
L 117.813119 140.264372 
L 117.917318 139.636839 
L 118.021516 139.636839 
L 118.021516 139.511333 
L 118.542508 139.511333 
L 118.646707 139.009307 
L 118.750905 139.009307 
L 118.750905 138.8838 
L 118.959302 138.8838 
L 118.959302 138.005255 
L 119.167699 138.005255 
L 119.167699 137.879748 
L 119.376096 137.879748 
L 119.480294 137.503229 
L 119.584493 137.503229 
L 119.688691 137.252216 
L 120.626477 137.252216 
L 120.730676 136.75019 
L 120.939073 136.75019 
L 120.939073 136.624683 
L 121.147469 136.624683 
L 121.147469 136.499177 
L 121.460065 136.499177 
L 121.460065 136.37367 
L 121.876858 136.37367 
L 121.876858 136.122657 
L 122.085255 136.122657 
L 122.085255 135.997151 
L 122.293652 135.997151 
L 122.397851 135.620631 
L 122.502049 135.620631 
L 122.606248 134.491073 
L 122.814644 134.491073 
L 122.918843 134.24006 
L 123.023041 134.24006 
L 123.023041 134.114554 
L 123.231438 134.114554 
L 123.335637 132.859489 
L 123.856629 132.859489 
L 123.960827 132.608476 
L 124.273423 132.608476 
L 124.273423 132.482969 
L 124.586018 132.482969 
L 124.586018 132.231956 
L 124.794415 132.231956 
L 124.794415 131.980943 
L 125.002812 131.980943 
L 125.10701 131.353411 
L 125.315407 131.353411 
L 125.419605 131.102398 
L 125.523804 131.102398 
L 125.523804 130.976891 
L 125.732201 130.976891 
L 125.732201 130.725878 
L 126.148994 130.725878 
L 126.253193 129.972839 
L 126.357391 129.972839 
L 126.46159 129.345307 
L 126.774185 129.345307 
L 126.878383 128.717774 
L 127.399376 128.717774 
L 127.399376 128.592268 
L 127.607773 128.592268 
L 127.607773 128.466761 
L 128.128765 128.466761 
L 128.128765 128.341255 
L 128.337162 128.341255 
L 128.44136 127.964735 
L 128.649757 127.964735 
L 128.649757 127.839229 
L 128.962352 127.839229 
L 129.066551 127.588216 
L 129.274948 127.588216 
L 129.274948 127.462709 
L 129.483344 127.462709 
L 129.483344 127.337203 
L 129.79594 127.337203 
L 129.900138 126.458657 
L 130.004337 126.458657 
L 130.004337 126.207644 
L 130.316932 126.207644 
L 130.316932 125.956631 
L 130.525329 125.956631 
L 130.629527 125.454606 
L 130.733726 125.454606 
L 130.837924 125.078086 
L 130.942123 125.078086 
L 131.046321 124.450554 
L 131.150519 124.450554 
L 131.150519 123.948528 
L 131.358916 123.948528 
L 131.463115 123.572008 
L 131.567313 123.572008 
L 131.567313 123.320995 
L 131.984107 123.320995 
L 132.088305 122.944476 
L 132.296702 122.944476 
L 132.400901 122.693463 
L 133.13029 122.693463 
L 133.13029 122.567956 
L 133.338687 122.567956 
L 133.338687 122.44245 
L 133.651282 122.44245 
L 133.75548 122.191437 
L 133.859679 122.191437 
L 133.963877 121.940424 
L 134.172274 121.940424 
L 134.276473 121.689411 
L 134.484869 121.689411 
L 134.484869 121.563904 
L 134.693266 121.563904 
L 134.693266 121.438398 
L 135.11006 121.438398 
L 135.11006 121.312891 
L 135.318457 121.312891 
L 135.422655 121.061878 
L 135.526854 121.061878 
L 135.526854 120.810865 
L 135.735251 120.810865 
L 135.839449 120.183333 
L 136.047846 120.183333 
L 136.152044 119.304787 
L 136.46464 119.304787 
L 136.568838 118.677255 
L 136.777235 118.677255 
L 136.881433 117.924216 
L 136.985632 117.924216 
L 136.985632 117.798709 
L 137.194029 117.798709 
L 137.298227 117.42219 
L 137.506624 117.42219 
L 137.506624 117.296683 
L 137.819219 117.296683 
L 137.819219 116.794657 
L 138.027616 116.794657 
L 138.131815 116.418138 
L 138.44441 116.418138 
L 138.44441 116.292631 
L 138.652807 116.292631 
L 138.757005 115.916112 
L 139.069601 115.916112 
L 139.069601 115.665099 
L 139.382196 115.665099 
L 139.486394 115.414086 
L 139.590593 115.414086 
L 139.694791 115.163073 
L 139.79899 115.163073 
L 139.903188 114.661047 
L 140.319982 114.661047 
L 140.319982 113.782502 
L 140.528379 113.782502 
L 140.528379 113.405982 
L 140.736776 113.405982 
L 140.840974 113.154969 
L 141.570363 113.154969 
L 141.674562 112.40193 
L 141.987157 112.40193 
L 141.987157 112.025411 
L 142.195554 112.025411 
L 142.195554 111.899904 
L 142.403951 111.899904 
L 142.403951 111.648891 
L 142.716546 111.648891 
L 142.716546 111.523385 
L 143.029141 111.523385 
L 143.029141 111.397878 
L 143.550134 111.397878 
L 143.550134 111.021359 
L 143.75853 111.021359 
L 143.862729 110.770346 
L 144.071126 110.770346 
L 144.175324 110.393826 
L 144.279523 110.393826 
L 144.383721 110.017307 
L 144.696316 110.017307 
L 144.696316 109.766294 
L 145.11311 109.766294 
L 145.217309 109.389774 
L 145.425705 109.389774 
L 145.425705 109.264268 
L 145.634102 109.264268 
L 145.634102 109.138761 
L 146.050896 109.138761 
L 146.050896 108.511229 
L 146.363491 108.511229 
L 146.46769 108.009203 
L 146.571888 108.009203 
L 146.571888 107.883696 
L 146.988682 107.883696 
L 147.09288 107.38167 
L 147.301277 107.38167 
L 147.301277 107.005151 
L 147.509674 107.005151 
L 147.613873 106.503125 
L 148.864254 106.503125 
L 148.864254 106.377619 
L 149.072651 106.377619 
L 149.072651 106.252112 
L 149.281048 106.252112 
L 149.385246 105.875593 
L 149.697841 105.875593 
L 149.80204 105.499073 
L 149.906238 105.499073 
L 149.906238 105.122554 
L 150.114635 105.122554 
L 150.114635 104.997047 
L 150.323032 104.997047 
L 150.42723 104.746034 
L 150.531429 104.746034 
L 150.635627 104.118502 
L 150.739826 104.118502 
L 150.739826 103.992995 
L 151.052421 103.992995 
L 151.052421 103.490969 
L 151.260818 103.490969 
L 151.260818 103.239956 
L 151.78181 103.239956 
L 151.886009 102.863437 
L 151.990207 102.863437 
L 151.990207 102.73793 
L 152.198604 102.73793 
L 152.302802 102.110398 
L 152.511199 102.110398 
L 152.511199 101.733878 
L 153.032191 101.733878 
L 153.032191 101.608372 
L 153.240588 101.608372 
L 153.344787 101.231852 
L 153.553184 101.231852 
L 153.657382 100.980839 
L 153.865779 100.980839 
L 153.969977 100.60432 
L 154.074176 100.60432 
L 154.074176 100.478813 
L 154.282573 100.478813 
L 154.282573 100.353307 
L 154.699366 100.353307 
L 154.803565 99.851281 
L 155.011962 99.851281 
L 155.11616 99.474761 
L 155.324557 99.474761 
L 155.324557 99.349255 
L 155.532954 99.349255 
L 155.637152 98.972735 
L 155.949748 98.972735 
L 155.949748 98.847229 
L 156.366541 98.847229 
L 156.47074 98.470709 
L 156.679137 98.470709 
L 156.679137 98.345203 
L 156.887534 98.345203 
L 156.887534 98.219696 
L 157.09593 98.219696 
L 157.09593 97.592164 
L 157.512724 97.592164 
L 157.616923 97.090138 
L 157.721121 97.090138 
L 157.721121 96.964631 
L 158.033716 96.964631 
L 158.033716 96.713619 
L 158.45051 96.713619 
L 158.45051 96.588112 
L 158.971502 96.588112 
L 158.971502 96.462606 
L 159.179899 96.462606 
L 159.284098 96.086086 
L 159.388296 96.086086 
L 159.492494 95.835073 
L 159.596693 95.835073 
L 159.596693 95.58406 
L 159.909288 95.58406 
L 159.909288 95.458554 
L 160.117685 95.458554 
L 160.221884 94.705515 
L 160.534479 94.705515 
L 160.534479 94.580008 
L 160.951273 94.580008 
L 161.055471 94.203489 
L 161.368066 94.203489 
L 161.472265 93.07393 
L 161.680662 93.07393 
L 161.680662 92.697411 
L 161.889059 92.697411 
L 161.889059 92.571904 
L 162.097455 92.571904 
L 162.201654 92.320891 
L 162.305852 92.320891 
L 162.305852 92.195385 
L 162.618448 92.195385 
L 162.618448 91.818865 
L 162.826844 91.818865 
L 162.826844 91.693359 
L 163.13944 91.693359 
L 163.243638 91.316839 
L 163.347837 91.316839 
L 163.347837 91.191333 
L 163.76463 91.191333 
L 163.868829 90.94032 
L 163.973027 90.94032 
L 163.973027 90.814813 
L 164.389821 90.814813 
L 164.389821 90.689307 
L 165.223409 90.689307 
L 165.327607 90.312787 
L 165.640202 90.312787 
L 165.640202 90.187281 
L 165.952798 90.187281 
L 166.056996 89.685255 
L 166.265393 89.685255 
L 166.265393 89.559748 
L 166.47379 89.559748 
L 166.47379 89.434242 
L 166.682187 89.434242 
L 166.786385 89.057722 
L 167.203179 89.057722 
L 167.203179 88.932216 
L 167.515774 88.932216 
L 167.515774 88.806709 
L 168.036766 88.806709 
L 168.036766 88.681203 
L 168.349362 88.681203 
L 168.349362 88.555696 
L 168.766155 88.555696 
L 168.766155 88.304683 
L 169.599743 88.304683 
L 169.599743 87.802657 
L 169.912338 87.802657 
L 170.016537 87.426138 
L 170.224934 87.426138 
L 170.224934 86.924112 
L 170.745926 86.924112 
L 170.850124 86.171073 
L 171.266918 86.171073 
L 171.266918 85.794554 
L 171.579513 85.794554 
L 171.683712 85.292528 
L 171.78791 85.292528 
L 171.78791 85.041515 
L 172.100505 85.041515 
L 172.100505 84.916008 
L 172.517299 84.916008 
L 172.517299 84.664995 
L 172.725696 84.664995 
L 172.725696 84.539489 
L 173.246688 84.539489 
L 173.246688 84.413982 
L 173.76768 84.413982 
L 173.76768 84.288476 
L 174.288673 84.288476 
L 174.392871 84.037463 
L 174.497069 84.037463 
L 174.497069 83.911956 
L 174.705466 83.911956 
L 174.705466 83.78645 
L 175.018062 83.78645 
L 175.12226 83.40993 
L 175.226459 83.40993 
L 175.226459 82.907904 
L 176.47684 82.907904 
L 176.581038 82.405878 
L 176.789435 82.405878 
L 176.789435 82.280372 
L 177.310427 82.280372 
L 177.310427 82.154865 
L 177.727221 82.154865 
L 177.831419 81.903852 
L 178.45661 81.903852 
L 178.45661 81.652839 
L 179.185999 81.652839 
L 179.185999 81.527333 
L 179.602793 81.527333 
L 179.602793 81.401826 
L 180.644777 81.401826 
L 180.644777 81.27632 
L 180.957373 81.27632 
L 180.957373 81.150813 
L 181.165769 81.150813 
L 181.165769 81.025307 
L 181.895159 81.025307 
L 181.895159 80.8998 
L 182.416151 80.8998 
L 182.520349 80.397774 
L 182.624548 80.397774 
L 182.624548 80.146761 
L 182.937143 80.146761 
L 182.937143 80.021255 
L 183.14554 80.021255 
L 183.14554 79.895748 
L 183.562334 79.895748 
L 183.666532 79.268216 
L 183.77073 79.268216 
L 183.874929 79.017203 
L 183.979127 79.017203 
L 183.979127 78.891696 
L 184.500119 78.891696 
L 184.500119 78.76619 
L 184.916913 78.76619 
L 185.021112 78.138657 
L 185.12531 78.138657 
L 185.12531 77.887644 
L 185.333707 77.887644 
L 185.437905 77.636631 
L 185.750501 77.636631 
L 185.854699 77.385619 
L 185.958898 77.385619 
L 185.958898 77.260112 
L 186.167294 77.260112 
L 186.167294 76.883593 
L 186.896684 76.883593 
L 186.896684 76.758086 
L 187.10508 76.758086 
L 187.10508 76.63258 
L 187.83447 76.63258 
L 187.83447 76.507073 
L 188.147065 76.507073 
L 188.147065 76.25606 
L 188.355462 76.25606 
L 188.355462 75.879541 
L 188.772255 75.879541 
L 188.876454 75.628528 
L 188.980652 75.628528 
L 188.980652 75.503021 
L 189.189049 75.503021 
L 189.189049 75.252008 
L 190.022637 75.252008 
L 190.022637 75.126502 
L 190.335232 75.126502 
L 190.335232 75.000995 
L 191.064621 75.000995 
L 191.16882 74.749982 
L 191.377216 74.749982 
L 191.481415 73.620424 
L 191.79401 73.620424 
L 191.79401 73.494917 
L 192.210804 73.494917 
L 192.210804 73.243904 
L 192.419201 73.243904 
L 192.419201 72.992891 
L 192.835995 72.992891 
L 192.835995 72.867385 
L 193.14859 72.867385 
L 193.252788 72.490865 
L 193.356987 72.490865 
L 193.356987 72.365359 
L 193.669582 72.365359 
L 193.77378 71.988839 
L 194.190574 71.988839 
L 194.190574 71.737826 
L 194.398971 71.737826 
L 194.398971 71.61232 
L 194.711566 71.61232 
L 194.711566 71.110294 
L 194.919963 71.110294 
L 194.919963 70.984787 
L 195.336757 70.984787 
L 195.336757 70.859281 
L 195.961948 70.859281 
L 196.066146 70.608268 
L 196.170345 70.608268 
L 196.170345 70.482761 
L 196.48294 70.482761 
L 196.48294 70.357255 
L 197.733321 70.357255 
L 197.733321 70.231748 
L 197.941718 70.231748 
L 197.941718 69.855229 
L 198.254313 69.855229 
L 198.254313 69.729722 
L 198.671107 69.729722 
L 198.671107 69.604216 
L 198.879504 69.604216 
L 198.879504 69.353203 
L 199.192099 69.353203 
L 199.192099 69.227696 
L 199.400496 69.227696 
L 199.504695 68.976683 
L 200.129885 68.976683 
L 200.129885 68.851177 
L 200.859274 68.851177 
L 200.963473 68.223644 
L 201.067671 68.223644 
L 201.17187 67.596112 
L 201.901259 67.596112 
L 202.005457 67.219593 
L 202.109655 67.219593 
L 202.213854 66.843073 
L 203.672632 66.843073 
L 203.672632 66.59206 
L 204.089426 66.59206 
L 204.193624 66.090034 
L 204.714616 66.090034 
L 204.714616 65.964528 
L 204.923013 65.964528 
L 204.923013 65.839021 
L 205.13141 65.839021 
L 205.235609 65.462502 
L 205.339807 65.462502 
L 205.444005 65.211489 
L 205.756601 65.211489 
L 205.860799 64.960476 
L 206.173395 64.960476 
L 206.173395 64.583956 
L 206.381791 64.583956 
L 206.48599 64.08193 
L 206.590188 64.08193 
L 206.694387 63.830917 
L 207.11118 63.830917 
L 207.215379 63.454398 
L 207.423776 63.454398 
L 207.423776 63.328891 
L 207.736371 63.328891 
L 207.84057 62.826865 
L 208.361562 62.826865 
L 208.361562 62.701359 
L 208.674157 62.701359 
L 208.778355 62.324839 
L 208.986752 62.324839 
L 208.986752 62.199333 
L 209.299348 62.199333 
L 209.403546 61.94832 
L 210.44553 61.94832 
L 210.44553 61.822813 
L 211.383316 61.822813 
L 211.383316 61.697307 
L 212.008507 61.697307 
L 212.008507 61.5718 
L 212.321102 61.5718 
L 212.321102 61.069774 
L 212.529499 61.069774 
L 212.529499 60.944268 
L 212.737896 60.944268 
L 212.737896 60.567748 
L 212.946293 60.567748 
L 213.050491 60.316735 
L 213.15469 60.316735 
L 213.15469 60.065722 
L 214.196674 60.065722 
L 214.196674 59.689203 
L 214.50927 59.689203 
L 214.50927 59.563696 
L 214.717666 59.563696 
L 214.717666 59.43819 
L 214.926063 59.43819 
L 214.926063 59.312683 
L 215.447055 59.312683 
L 215.447055 59.187177 
L 216.48904 59.187177 
L 216.593238 58.936164 
L 216.801635 58.936164 
L 216.801635 58.434138 
L 218.260413 58.434138 
L 218.260413 58.308631 
L 218.46881 58.308631 
L 218.46881 58.183125 
L 219.198199 58.183125 
L 219.302398 57.681099 
L 219.406596 57.681099 
L 219.406596 57.30458 
L 220.031787 57.30458 
L 220.031787 57.179073 
L 222.115755 57.179073 
L 222.115755 57.053567 
L 222.324152 57.053567 
L 222.324152 56.92806 
L 223.053541 56.92806 
L 223.15774 56.426034 
L 223.574534 56.426034 
L 223.678732 56.175021 
L 223.991327 56.175021 
L 223.991327 56.049515 
L 224.408121 56.049515 
L 224.51232 55.672995 
L 224.616518 55.672995 
L 224.616518 55.547489 
L 224.929113 55.547489 
L 224.929113 55.421982 
L 225.345907 55.421982 
L 225.450105 55.045463 
L 225.554304 55.045463 
L 225.554304 54.79445 
L 226.283693 54.79445 
L 226.283693 54.668943 
L 226.804685 54.668943 
L 226.804685 54.543437 
L 227.221479 54.543437 
L 227.221479 54.292424 
L 227.534074 54.292424 
L 227.638273 53.790398 
L 227.950868 53.790398 
L 227.950868 53.664891 
L 228.576059 53.664891 
L 228.576059 53.413878 
L 228.888654 53.413878 
L 228.992852 53.162865 
L 229.722241 53.162865 
L 229.722241 53.037359 
L 229.930638 53.037359 
L 229.930638 52.911852 
L 230.139035 52.911852 
L 230.139035 52.786346 
L 230.45163 52.786346 
L 230.45163 52.660839 
L 230.660027 52.660839 
L 230.660027 52.409826 
L 231.18102 52.409826 
L 231.18102 52.28432 
L 231.493615 52.28432 
L 231.493615 52.033307 
L 231.702012 52.033307 
L 231.702012 51.9078 
L 232.327202 51.9078 
L 232.327202 51.782294 
L 233.056591 51.782294 
L 233.056591 51.656787 
L 234.411171 51.656787 
L 234.411171 51.531281 
L 234.827965 51.531281 
L 234.932163 51.280268 
L 235.244759 51.280268 
L 235.244759 51.029255 
L 235.453156 51.029255 
L 235.453156 50.778242 
L 235.661552 50.778242 
L 235.661552 50.652735 
L 236.703537 50.652735 
L 236.703537 50.527229 
L 236.911934 50.527229 
L 236.911934 50.401722 
L 237.120331 50.401722 
L 237.224529 50.150709 
L 237.641323 50.150709 
L 237.641323 50.025203 
L 237.953918 50.025203 
L 237.953918 49.899696 
L 238.891704 49.899696 
L 238.995902 49.648683 
L 239.308498 49.648683 
L 239.308498 49.523177 
L 239.621093 49.523177 
L 239.621093 49.272164 
L 239.933688 49.272164 
L 239.933688 49.146657 
L 240.767276 49.146657 
L 240.871474 48.770138 
L 241.496665 48.770138 
L 241.496665 48.644631 
L 241.705062 48.644631 
L 241.705062 48.519125 
L 243.476435 48.519125 
L 243.476435 48.393619 
L 243.684832 48.393619 
L 243.789031 48.017099 
L 243.997427 48.017099 
L 243.997427 47.891593 
L 244.205824 47.891593 
L 244.205824 47.766086 
L 244.51842 47.766086 
L 244.622618 47.515073 
L 245.247809 47.515073 
L 245.247809 47.389567 
L 246.185595 47.389567 
L 246.185595 47.26406 
L 247.123381 47.26406 
L 247.123381 47.138554 
L 247.85277 47.138554 
L 247.85277 47.013047 
L 248.269563 47.013047 
L 248.373762 46.636528 
L 249.936738 46.636528 
L 249.936738 46.511021 
L 250.145135 46.511021 
L 250.145135 46.385515 
L 250.874524 46.385515 
L 250.874524 46.260008 
L 251.18712 46.260008 
L 251.18712 46.008995 
L 251.499715 46.008995 
L 251.499715 45.883489 
L 251.81231 45.883489 
L 251.81231 45.757982 
L 252.124906 45.757982 
L 252.124906 45.632476 
L 252.541699 45.632476 
L 252.541699 45.381463 
L 252.854295 45.381463 
L 252.854295 45.255956 
L 254.000477 45.255956 
L 254.000477 44.628424 
L 255.14666 44.628424 
L 255.14666 44.502917 
L 255.980248 44.502917 
L 255.980248 44.377411 
L 256.397041 44.377411 
L 256.397041 44.251904 
L 257.334827 44.251904 
L 257.334827 44.126398 
L 258.376812 44.126398 
L 258.376812 44.000891 
L 258.793606 44.000891 
L 258.897804 43.749878 
L 259.002002 43.749878 
L 259.002002 43.498865 
L 259.210399 43.498865 
L 259.210399 43.373359 
L 259.939788 43.373359 
L 259.939788 43.247852 
L 261.294368 43.247852 
L 261.294368 43.122346 
L 261.606963 43.122346 
L 261.606963 42.996839 
L 262.648948 42.996839 
L 262.753146 42.745826 
L 263.274138 42.745826 
L 263.378337 42.494813 
L 266.191695 42.494813 
L 266.191695 42.369307 
L 266.608488 42.369307 
L 266.608488 42.2438 
L 266.921084 42.2438 
L 266.921084 41.867281 
L 268.171465 41.867281 
L 268.171465 41.741774 
L 268.588259 41.741774 
L 268.588259 41.616268 
L 269.942838 41.616268 
L 269.942838 41.490761 
L 270.568029 41.490761 
L 270.568029 41.365255 
L 270.880624 41.365255 
L 270.880624 41.239748 
L 271.19322 41.239748 
L 271.19322 41.114242 
L 271.922609 41.114242 
L 271.922609 40.863229 
L 272.547799 40.863229 
L 272.547799 40.737722 
L 276.50734 40.737722 
L 276.611538 40.486709 
L 276.819935 40.486709 
L 276.819935 40.361203 
L 277.236729 40.361203 
L 277.236729 40.235696 
L 278.174515 40.235696 
L 278.278713 39.859177 
L 278.382912 39.859177 
L 278.382912 39.73367 
L 278.695507 39.73367 
L 278.695507 39.357151 
L 278.903904 39.357151 
L 278.903904 39.231644 
L 279.112301 39.231644 
L 279.216499 38.980631 
L 280.362682 38.980631 
L 280.362682 38.855125 
L 281.092071 38.855125 
L 281.092071 38.729619 
L 284.426421 38.729619 
L 284.426421 38.604112 
L 285.15581 38.604112 
L 285.15581 38.478606 
L 285.885199 38.478606 
L 285.885199 38.227593 
L 289.219549 38.227593 
L 289.219549 38.102086 
L 289.636343 38.102086 
L 289.636343 37.97658 
L 290.574129 37.97658 
L 290.678327 37.725567 
L 291.511915 37.725567 
L 291.511915 37.60006 
L 292.762296 37.60006 
L 292.762296 37.474554 
L 293.595884 37.474554 
L 293.595884 37.349047 
L 294.325273 37.349047 
L 294.325273 37.223541 
L 296.51344 37.223541 
L 296.51344 37.098034 
L 296.930234 37.098034 
L 296.930234 36.972528 
L 297.659623 36.972528 
L 297.659623 36.847021 
L 297.972218 36.847021 
L 297.972218 36.721515 
L 299.639393 36.721515 
L 299.639393 36.596008 
L 301.723362 36.596008 
L 301.723362 36.470502 
L 303.286338 36.470502 
L 303.286338 36.344995 
L 304.53672 36.344995 
L 304.53672 36.219489 
L 305.370307 36.219489 
L 305.370307 36.093982 
L 307.141681 36.093982 
L 307.141681 35.968476 
L 307.454276 35.968476 
L 307.454276 35.842969 
L 308.079467 35.842969 
L 308.079467 35.717463 
L 309.225649 35.717463 
L 309.225649 35.591956 
L 310.059237 35.591956 
L 310.059237 35.46645 
L 312.455801 35.46645 
L 312.455801 35.340943 
L 312.872595 35.340943 
L 312.872595 35.215437 
L 313.393587 35.215437 
L 313.393587 35.08993 
L 314.956563 35.08993 
L 314.956563 34.964424 
L 315.790151 34.964424 
L 315.790151 34.838917 
L 315.998548 34.838917 
L 315.998548 34.713411 
L 317.353127 34.713411 
L 317.353127 34.587904 
L 318.707707 34.587904 
L 318.707707 34.462398 
L 319.437096 34.462398 
L 319.437096 34.336891 
L 320.479081 34.336891 
L 320.583279 34.085878 
L 324.438621 34.085878 
L 324.438621 33.960372 
L 331.315718 33.960372 
L 331.315718 33.834865 
L 331.940909 33.834865 
L 331.940909 33.709359 
L 332.566099 33.709359 
L 332.566099 33.583852 
L 333.816481 33.583852 
L 333.816481 33.458346 
L 334.754267 33.458346 
L 334.754267 33.332839 
L 336.838235 33.332839 
L 336.838235 33.207333 
L 338.192815 33.207333 
L 338.192815 33.081826 
L 338.818006 33.081826 
L 338.818006 32.95632 
L 341.631363 32.95632 
L 341.631363 32.5798 
L 342.152356 32.5798 
L 342.152356 32.454294 
L 346.424492 32.454294 
L 346.424492 32.328787 
L 346.841285 32.328787 
L 346.841285 32.203281 
L 347.779071 32.203281 
L 347.779071 32.077774 
L 352.468001 32.077774 
L 352.468001 31.952268 
L 354.239374 31.952268 
L 354.239374 31.826761 
L 361.741662 31.826761 
L 361.741662 31.826761 
" style="fill:none;stroke:#0272a2;stroke-linecap:round;stroke-width:2;"/>
   </g>
   <g id="line2d_26">
    <path clip-path="url(#p50c46fb034)" d="M 57.378026 229.499489 
L 361.741662 31.826761 
" style="fill:none;stroke:#ee82ee;stroke-dasharray:6.475,2.8;stroke-dashoffset:0;stroke-width:1.75;"/>
   </g>
   <g id="patch_3">
    <path d="M 42.159844 239.383125 
L 42.159844 21.943125 
" style="fill:none;stroke:#cccccc;stroke-linecap:square;stroke-linejoin:miter;stroke-width:1.25;"/>
   </g>
   <g id="patch_4">
    <path d="M 376.959844 239.383125 
L 376.959844 21.943125 
" style="fill:none;stroke:#cccccc;stroke-linecap:square;stroke-linejoin:miter;stroke-width:1.25;"/>
   </g>
   <g id="patch_5">
    <path d="M 42.159844 239.383125 
L 376.959844 239.383125 
" style="fill:none;stroke:#cccccc;stroke-linecap:square;stroke-linejoin:miter;stroke-width:1.25;"/>
   </g>
   <g id="patch_6">
    <path d="M 42.159844 21.943125 
L 376.959844 21.943125 
" style="fill:none;stroke:#cccccc;stroke-linecap:square;stroke-linejoin:miter;stroke-width:1.25;"/>
   </g>
   <g id="text_15">
    <!-- ROC curve for high blood pressure in rf2 model -->
    <defs>
     <path d="M 7.859375 0 
L 7.859375 71.578125 
L 39.59375 71.578125 
Q 49.171875 71.578125 54.140625 69.640625 
Q 59.125 67.71875 62.109375 62.828125 
Q 65.09375 57.953125 65.09375 52.046875 
Q 65.09375 44.4375 60.15625 39.203125 
Q 55.21875 33.984375 44.921875 32.5625 
Q 48.6875 30.765625 50.640625 29 
Q 54.78125 25.203125 58.5 19.484375 
L 70.953125 0 
L 59.03125 0 
L 49.5625 14.890625 
Q 45.40625 21.34375 42.71875 24.75 
Q 40.046875 28.171875 37.921875 29.53125 
Q 35.796875 30.90625 33.59375 31.453125 
Q 31.984375 31.78125 28.328125 31.78125 
L 17.328125 31.78125 
L 17.328125 0 
z
M 17.328125 39.984375 
L 37.703125 39.984375 
Q 44.1875 39.984375 47.84375 41.328125 
Q 51.515625 42.671875 53.421875 45.625 
Q 55.328125 48.578125 55.328125 52.046875 
Q 55.328125 57.125 51.640625 60.390625 
Q 47.953125 63.671875 39.984375 63.671875 
L 17.328125 63.671875 
z
" id="ArialMT-82"/>
     <path d="M 4.828125 34.859375 
Q 4.828125 52.6875 14.390625 62.765625 
Q 23.96875 72.859375 39.109375 72.859375 
Q 49.03125 72.859375 56.984375 68.109375 
Q 64.9375 63.375 69.109375 54.90625 
Q 73.296875 46.4375 73.296875 35.6875 
Q 73.296875 24.8125 68.890625 16.21875 
Q 64.5 7.625 56.4375 3.203125 
Q 48.390625 -1.21875 39.0625 -1.21875 
Q 28.953125 -1.21875 20.984375 3.65625 
Q 13.03125 8.546875 8.921875 16.984375 
Q 4.828125 25.4375 4.828125 34.859375 
z
M 14.59375 34.71875 
Q 14.59375 21.78125 21.546875 14.328125 
Q 28.515625 6.890625 39.015625 6.890625 
Q 49.703125 6.890625 56.609375 14.40625 
Q 63.53125 21.921875 63.53125 35.75 
Q 63.53125 44.484375 60.578125 51 
Q 57.625 57.515625 51.921875 61.109375 
Q 46.234375 64.703125 39.15625 64.703125 
Q 29.109375 64.703125 21.84375 57.78125 
Q 14.59375 50.875 14.59375 34.71875 
z
" id="ArialMT-79"/>
     <path d="M 58.796875 25.09375 
L 68.265625 22.703125 
Q 65.28125 11.03125 57.546875 4.90625 
Q 49.8125 -1.21875 38.625 -1.21875 
Q 27.046875 -1.21875 19.796875 3.484375 
Q 12.546875 8.203125 8.765625 17.140625 
Q 4.984375 26.078125 4.984375 36.328125 
Q 4.984375 47.515625 9.25 55.828125 
Q 13.53125 64.15625 21.40625 68.46875 
Q 29.296875 72.796875 38.765625 72.796875 
Q 49.515625 72.796875 56.828125 67.328125 
Q 64.15625 61.859375 67.046875 51.953125 
L 57.71875 49.75 
Q 55.21875 57.5625 50.484375 61.125 
Q 45.75 64.703125 38.578125 64.703125 
Q 30.328125 64.703125 24.78125 60.734375 
Q 19.234375 56.78125 16.984375 50.109375 
Q 14.75 43.453125 14.75 36.375 
Q 14.75 27.25 17.40625 20.4375 
Q 20.0625 13.625 25.671875 10.25 
Q 31.296875 6.890625 37.84375 6.890625 
Q 45.796875 6.890625 51.3125 11.46875 
Q 56.84375 16.0625 58.796875 25.09375 
z
" id="ArialMT-67"/>
     <path d="M 40.4375 19 
L 49.078125 17.875 
Q 47.65625 8.9375 41.8125 3.875 
Q 35.984375 -1.171875 27.484375 -1.171875 
Q 16.84375 -1.171875 10.375 5.78125 
Q 3.90625 12.75 3.90625 25.734375 
Q 3.90625 34.125 6.6875 40.421875 
Q 9.46875 46.734375 15.15625 49.875 
Q 20.84375 53.03125 27.546875 53.03125 
Q 35.984375 53.03125 41.359375 48.75 
Q 46.734375 44.484375 48.25 36.625 
L 39.703125 35.296875 
Q 38.484375 40.53125 35.375 43.15625 
Q 32.28125 45.796875 27.875 45.796875 
Q 21.234375 45.796875 17.078125 41.03125 
Q 12.9375 36.28125 12.9375 25.984375 
Q 12.9375 15.53125 16.9375 10.796875 
Q 20.953125 6.0625 27.390625 6.0625 
Q 32.5625 6.0625 36.03125 9.234375 
Q 39.5 12.40625 40.4375 19 
z
" id="ArialMT-99"/>
     <path d="M 8.6875 0 
L 8.6875 45.015625 
L 0.921875 45.015625 
L 0.921875 51.859375 
L 8.6875 51.859375 
L 8.6875 57.375 
Q 8.6875 62.59375 9.625 65.140625 
Q 10.890625 68.5625 14.078125 70.671875 
Q 17.28125 72.796875 23.046875 72.796875 
Q 26.765625 72.796875 31.25 71.921875 
L 29.9375 64.265625 
Q 27.203125 64.75 24.75 64.75 
Q 20.75 64.75 19.09375 63.03125 
Q 17.4375 61.328125 17.4375 56.640625 
L 17.4375 51.859375 
L 27.546875 51.859375 
L 27.546875 45.015625 
L 17.4375 45.015625 
L 17.4375 0 
z
" id="ArialMT-102"/>
     <path d="M 6.59375 0 
L 6.59375 71.578125 
L 15.375 71.578125 
L 15.375 45.90625 
Q 21.53125 53.03125 30.90625 53.03125 
Q 36.671875 53.03125 40.921875 50.75 
Q 45.171875 48.484375 47 44.484375 
Q 48.828125 40.484375 48.828125 32.859375 
L 48.828125 0 
L 40.046875 0 
L 40.046875 32.859375 
Q 40.046875 39.453125 37.1875 42.453125 
Q 34.328125 45.453125 29.109375 45.453125 
Q 25.203125 45.453125 21.75 43.421875 
Q 18.3125 41.40625 16.84375 37.9375 
Q 15.375 34.46875 15.375 28.375 
L 15.375 0 
z
" id="ArialMT-104"/>
     <path d="M 4.984375 -4.296875 
L 13.53125 -5.5625 
Q 14.0625 -9.515625 16.5 -11.328125 
Q 19.78125 -13.765625 25.4375 -13.765625 
Q 31.546875 -13.765625 34.859375 -11.328125 
Q 38.1875 -8.890625 39.359375 -4.5 
Q 40.046875 -1.8125 39.984375 6.78125 
Q 34.234375 0 25.640625 0 
Q 14.9375 0 9.078125 7.71875 
Q 3.21875 15.4375 3.21875 26.21875 
Q 3.21875 33.640625 5.90625 39.90625 
Q 8.59375 46.1875 13.6875 49.609375 
Q 18.796875 53.03125 25.6875 53.03125 
Q 34.859375 53.03125 40.828125 45.609375 
L 40.828125 51.859375 
L 48.921875 51.859375 
L 48.921875 7.03125 
Q 48.921875 -5.078125 46.453125 -10.125 
Q 44 -15.1875 38.640625 -18.109375 
Q 33.296875 -21.046875 25.484375 -21.046875 
Q 16.21875 -21.046875 10.5 -16.875 
Q 4.78125 -12.703125 4.984375 -4.296875 
z
M 12.25 26.859375 
Q 12.25 16.65625 16.296875 11.96875 
Q 20.359375 7.28125 26.46875 7.28125 
Q 32.515625 7.28125 36.609375 11.9375 
Q 40.71875 16.609375 40.71875 26.5625 
Q 40.71875 36.078125 36.5 40.90625 
Q 32.28125 45.75 26.3125 45.75 
Q 20.453125 45.75 16.34375 40.984375 
Q 12.25 36.234375 12.25 26.859375 
z
" id="ArialMT-103"/>
     <path d="M 14.703125 0 
L 6.546875 0 
L 6.546875 71.578125 
L 15.328125 71.578125 
L 15.328125 46.046875 
Q 20.90625 53.03125 29.546875 53.03125 
Q 34.328125 53.03125 38.59375 51.09375 
Q 42.875 49.171875 45.625 45.671875 
Q 48.390625 42.1875 49.953125 37.25 
Q 51.515625 32.328125 51.515625 26.703125 
Q 51.515625 13.375 44.921875 6.09375 
Q 38.328125 -1.171875 29.109375 -1.171875 
Q 19.921875 -1.171875 14.703125 6.5 
z
M 14.59375 26.3125 
Q 14.59375 17 17.140625 12.84375 
Q 21.296875 6.0625 28.375 6.0625 
Q 34.125 6.0625 38.328125 11.0625 
Q 42.53125 16.0625 42.53125 25.984375 
Q 42.53125 36.140625 38.5 40.96875 
Q 34.46875 45.796875 28.765625 45.796875 
Q 23 45.796875 18.796875 40.796875 
Q 14.59375 35.796875 14.59375 26.3125 
z
" id="ArialMT-98"/>
     <path d="M 40.234375 0 
L 40.234375 6.546875 
Q 35.296875 -1.171875 25.734375 -1.171875 
Q 19.53125 -1.171875 14.328125 2.25 
Q 9.125 5.671875 6.265625 11.796875 
Q 3.421875 17.921875 3.421875 25.875 
Q 3.421875 33.640625 6 39.96875 
Q 8.59375 46.296875 13.765625 49.65625 
Q 18.953125 53.03125 25.34375 53.03125 
Q 30.03125 53.03125 33.6875 51.046875 
Q 37.359375 49.078125 39.65625 45.90625 
L 39.65625 71.578125 
L 48.390625 71.578125 
L 48.390625 0 
z
M 12.453125 25.875 
Q 12.453125 15.921875 16.640625 10.984375 
Q 20.84375 6.0625 26.5625 6.0625 
Q 32.328125 6.0625 36.34375 10.765625 
Q 40.375 15.484375 40.375 25.140625 
Q 40.375 35.796875 36.265625 40.765625 
Q 32.171875 45.75 26.171875 45.75 
Q 20.3125 45.75 16.375 40.96875 
Q 12.453125 36.1875 12.453125 25.875 
z
" id="ArialMT-100"/>
     <path d="M 6.59375 0 
L 6.59375 51.859375 
L 14.5 51.859375 
L 14.5 44.484375 
Q 20.21875 53.03125 31 53.03125 
Q 35.6875 53.03125 39.625 51.34375 
Q 43.5625 49.65625 45.515625 46.921875 
Q 47.46875 44.1875 48.25 40.4375 
Q 48.734375 37.984375 48.734375 31.890625 
L 48.734375 0 
L 39.9375 0 
L 39.9375 31.546875 
Q 39.9375 36.921875 38.90625 39.578125 
Q 37.890625 42.234375 35.28125 43.8125 
Q 32.671875 45.40625 29.15625 45.40625 
Q 23.53125 45.40625 19.453125 41.84375 
Q 15.375 38.28125 15.375 28.328125 
L 15.375 0 
z
" id="ArialMT-110"/>
     <path d="M 6.59375 0 
L 6.59375 51.859375 
L 14.453125 51.859375 
L 14.453125 44.578125 
Q 16.890625 48.390625 20.9375 50.703125 
Q 25 53.03125 30.171875 53.03125 
Q 35.9375 53.03125 39.625 50.640625 
Q 43.3125 48.25 44.828125 43.953125 
Q 50.984375 53.03125 60.84375 53.03125 
Q 68.5625 53.03125 72.703125 48.75 
Q 76.859375 44.484375 76.859375 35.59375 
L 76.859375 0 
L 68.109375 0 
L 68.109375 32.671875 
Q 68.109375 37.9375 67.25 40.25 
Q 66.40625 42.578125 64.15625 43.984375 
Q 61.921875 45.40625 58.890625 45.40625 
Q 53.421875 45.40625 49.796875 41.765625 
Q 46.1875 38.140625 46.1875 30.125 
L 46.1875 0 
L 37.40625 0 
L 37.40625 33.6875 
Q 37.40625 39.546875 35.25 42.46875 
Q 33.109375 45.40625 28.21875 45.40625 
Q 24.515625 45.40625 21.359375 43.453125 
Q 18.21875 41.5 16.796875 37.734375 
Q 15.375 33.984375 15.375 26.90625 
L 15.375 0 
z
" id="ArialMT-109"/>
    </defs>
    <g style="fill:#262626;" transform="translate(83.843906 15.943125)scale(0.12 -0.12)">
     <use xlink:href="#ArialMT-82"/>
     <use x="72.216797" xlink:href="#ArialMT-79"/>
     <use x="150" xlink:href="#ArialMT-67"/>
     <use x="222.216797" xlink:href="#ArialMT-32"/>
     <use x="250" xlink:href="#ArialMT-99"/>
     <use x="300" xlink:href="#ArialMT-117"/>
     <use x="355.615234" xlink:href="#ArialMT-114"/>
     <use x="388.916016" xlink:href="#ArialMT-118"/>
     <use x="438.916016" xlink:href="#ArialMT-101"/>
     <use x="494.53125" xlink:href="#ArialMT-32"/>
     <use x="522.314453" xlink:href="#ArialMT-102"/>
     <use x="550.097656" xlink:href="#ArialMT-111"/>
     <use x="605.712891" xlink:href="#ArialMT-114"/>
     <use x="639.013672" xlink:href="#ArialMT-32"/>
     <use x="666.796875" xlink:href="#ArialMT-104"/>
     <use x="722.412109" xlink:href="#ArialMT-105"/>
     <use x="744.628906" xlink:href="#ArialMT-103"/>
     <use x="800.244141" xlink:href="#ArialMT-104"/>
     <use x="855.859375" xlink:href="#ArialMT-32"/>
     <use x="883.642578" xlink:href="#ArialMT-98"/>
     <use x="939.257812" xlink:href="#ArialMT-108"/>
     <use x="961.474609" xlink:href="#ArialMT-111"/>
     <use x="1017.089844" xlink:href="#ArialMT-111"/>
     <use x="1072.705078" xlink:href="#ArialMT-100"/>
     <use x="1128.320312" xlink:href="#ArialMT-32"/>
     <use x="1156.103516" xlink:href="#ArialMT-112"/>
     <use x="1211.71875" xlink:href="#ArialMT-114"/>
     <use x="1245.019531" xlink:href="#ArialMT-101"/>
     <use x="1300.634766" xlink:href="#ArialMT-115"/>
     <use x="1350.634766" xlink:href="#ArialMT-115"/>
     <use x="1400.634766" xlink:href="#ArialMT-117"/>
     <use x="1456.25" xlink:href="#ArialMT-114"/>
     <use x="1489.550781" xlink:href="#ArialMT-101"/>
     <use x="1545.166016" xlink:href="#ArialMT-32"/>
     <use x="1572.949219" xlink:href="#ArialMT-105"/>
     <use x="1595.166016" xlink:href="#ArialMT-110"/>
     <use x="1650.78125" xlink:href="#ArialMT-32"/>
     <use x="1678.564453" xlink:href="#ArialMT-114"/>
     <use x="1711.865234" xlink:href="#ArialMT-102"/>
     <use x="1739.648438" xlink:href="#ArialMT-50"/>
     <use x="1795.263672" xlink:href="#ArialMT-32"/>
     <use x="1823.046875" xlink:href="#ArialMT-109"/>
     <use x="1906.347656" xlink:href="#ArialMT-111"/>
     <use x="1961.962891" xlink:href="#ArialMT-100"/>
     <use x="2017.578125" xlink:href="#ArialMT-101"/>
     <use x="2073.193359" xlink:href="#ArialMT-108"/>
    </g>
   </g>
  </g>
 </g>
 <defs>
  <clipPath id="p50c46fb034">
   <rect height="217.44" width="334.8" x="42.159844" y="21.943125"/>
  </clipPath>
 </defs>
</svg>
