<?xml version="1.0" encoding="utf-8" standalone="no"?>
<!DOCTYPE svg PUBLIC "-//W3C//DTD SVG 1.1//EN"
  "http://www.w3.org/Graphics/SVG/1.1/DTD/svg11.dtd">
<!-- Created with matplotlib (https://matplotlib.org/) -->
<svg height="276.788281pt" version="1.1" viewBox="0 0 384.159844 276.788281" width="384.159844pt" xmlns="http://www.w3.org/2000/svg" xmlns:xlink="http://www.w3.org/1999/xlink">
 <defs>
  <style type="text/css">
*{stroke-linecap:butt;stroke-linejoin:round;}
  </style>
 </defs>
 <g id="figure_1">
  <g id="patch_1">
   <path d="M 0 276.788281 
L 384.159844 276.788281 
L 384.159844 0 
L 0 0 
z
" style="fill:#ffffff;"/>
  </g>
  <g id="axes_1">
   <g id="patch_2">
    <path d="M 42.159844 239.383125 
L 376.959844 239.383125 
L 376.959844 21.943125 
L 42.159844 21.943125 
z
" style="fill:#ffffff;"/>
   </g>
   <g id="matplotlib.axis_1">
    <g id="xtick_1">
     <g id="line2d_1">
      <path clip-path="url(#p1cc34b844b)" d="M 57.378026 239.383125 
L 57.378026 21.943125 
" style="fill:none;stroke:#cccccc;stroke-linecap:round;"/>
     </g>
     <g id="line2d_2"/>
     <g id="text_1">
      <!-- 0.0 -->
      <defs>
       <path d="M 4.15625 35.296875 
Q 4.15625 48 6.765625 55.734375 
Q 9.375 63.484375 14.515625 67.671875 
Q 19.671875 71.875 27.484375 71.875 
Q 33.25 71.875 37.59375 69.546875 
Q 41.9375 67.234375 44.765625 62.859375 
Q 47.609375 58.5 49.21875 52.21875 
Q 50.828125 45.953125 50.828125 35.296875 
Q 50.828125 22.703125 48.234375 14.96875 
Q 45.65625 7.234375 40.5 3 
Q 35.359375 -1.21875 27.484375 -1.21875 
Q 17.140625 -1.21875 11.234375 6.203125 
Q 4.15625 15.140625 4.15625 35.296875 
z
M 13.1875 35.296875 
Q 13.1875 17.671875 17.3125 11.828125 
Q 21.4375 6 27.484375 6 
Q 33.546875 6 37.671875 11.859375 
Q 41.796875 17.71875 41.796875 35.296875 
Q 41.796875 52.984375 37.671875 58.78125 
Q 33.546875 64.59375 27.390625 64.59375 
Q 21.34375 64.59375 17.71875 59.46875 
Q 13.1875 52.9375 13.1875 35.296875 
z
" id="ArialMT-48"/>
       <path d="M 9.078125 0 
L 9.078125 10.015625 
L 19.09375 10.015625 
L 19.09375 0 
z
" id="ArialMT-46"/>
      </defs>
      <g style="fill:#262626;" transform="translate(50.428026 253.540938)scale(0.1 -0.1)">
       <use xlink:href="#ArialMT-48"/>
       <use x="55.615234" xlink:href="#ArialMT-46"/>
       <use x="83.398438" xlink:href="#ArialMT-48"/>
      </g>
     </g>
    </g>
    <g id="xtick_2">
     <g id="line2d_3">
      <path clip-path="url(#p1cc34b844b)" d="M 118.250753 239.383125 
L 118.250753 21.943125 
" style="fill:none;stroke:#cccccc;stroke-linecap:round;"/>
     </g>
     <g id="line2d_4"/>
     <g id="text_2">
      <!-- 0.2 -->
      <defs>
       <path d="M 50.34375 8.453125 
L 50.34375 0 
L 3.03125 0 
Q 2.9375 3.171875 4.046875 6.109375 
Q 5.859375 10.9375 9.828125 15.625 
Q 13.8125 20.3125 21.34375 26.46875 
Q 33.015625 36.03125 37.109375 41.625 
Q 41.21875 47.21875 41.21875 52.203125 
Q 41.21875 57.421875 37.46875 61 
Q 33.734375 64.59375 27.734375 64.59375 
Q 21.390625 64.59375 17.578125 60.78125 
Q 13.765625 56.984375 13.71875 50.25 
L 4.6875 51.171875 
Q 5.609375 61.28125 11.65625 66.578125 
Q 17.71875 71.875 27.9375 71.875 
Q 38.234375 71.875 44.234375 66.15625 
Q 50.25 60.453125 50.25 52 
Q 50.25 47.703125 48.484375 43.546875 
Q 46.734375 39.40625 42.65625 34.8125 
Q 38.578125 30.21875 29.109375 22.21875 
Q 21.1875 15.578125 18.9375 13.203125 
Q 16.703125 10.84375 15.234375 8.453125 
z
" id="ArialMT-50"/>
      </defs>
      <g style="fill:#262626;" transform="translate(111.300753 253.540938)scale(0.1 -0.1)">
       <use xlink:href="#ArialMT-48"/>
       <use x="55.615234" xlink:href="#ArialMT-46"/>
       <use x="83.398438" xlink:href="#ArialMT-50"/>
      </g>
     </g>
    </g>
    <g id="xtick_3">
     <g id="line2d_5">
      <path clip-path="url(#p1cc34b844b)" d="M 179.12348 239.383125 
L 179.12348 21.943125 
" style="fill:none;stroke:#cccccc;stroke-linecap:round;"/>
     </g>
     <g id="line2d_6"/>
     <g id="text_3">
      <!-- 0.4 -->
      <defs>
       <path d="M 32.328125 0 
L 32.328125 17.140625 
L 1.265625 17.140625 
L 1.265625 25.203125 
L 33.9375 71.578125 
L 41.109375 71.578125 
L 41.109375 25.203125 
L 50.78125 25.203125 
L 50.78125 17.140625 
L 41.109375 17.140625 
L 41.109375 0 
z
M 32.328125 25.203125 
L 32.328125 57.46875 
L 9.90625 25.203125 
z
" id="ArialMT-52"/>
      </defs>
      <g style="fill:#262626;" transform="translate(172.17348 253.540938)scale(0.1 -0.1)">
       <use xlink:href="#ArialMT-48"/>
       <use x="55.615234" xlink:href="#ArialMT-46"/>
       <use x="83.398438" xlink:href="#ArialMT-52"/>
      </g>
     </g>
    </g>
    <g id="xtick_4">
     <g id="line2d_7">
      <path clip-path="url(#p1cc34b844b)" d="M 239.996207 239.383125 
L 239.996207 21.943125 
" style="fill:none;stroke:#cccccc;stroke-linecap:round;"/>
     </g>
     <g id="line2d_8"/>
     <g id="text_4">
      <!-- 0.6 -->
      <defs>
       <path d="M 49.75 54.046875 
L 41.015625 53.375 
Q 39.84375 58.546875 37.703125 60.890625 
Q 34.125 64.65625 28.90625 64.65625 
Q 24.703125 64.65625 21.53125 62.3125 
Q 17.390625 59.28125 14.984375 53.46875 
Q 12.59375 47.65625 12.5 36.921875 
Q 15.671875 41.75 20.265625 44.09375 
Q 24.859375 46.4375 29.890625 46.4375 
Q 38.671875 46.4375 44.84375 39.96875 
Q 51.03125 33.5 51.03125 23.25 
Q 51.03125 16.5 48.125 10.71875 
Q 45.21875 4.9375 40.140625 1.859375 
Q 35.0625 -1.21875 28.609375 -1.21875 
Q 17.625 -1.21875 10.6875 6.859375 
Q 3.765625 14.9375 3.765625 33.5 
Q 3.765625 54.25 11.421875 63.671875 
Q 18.109375 71.875 29.4375 71.875 
Q 37.890625 71.875 43.28125 67.140625 
Q 48.6875 62.40625 49.75 54.046875 
z
M 13.875 23.1875 
Q 13.875 18.65625 15.796875 14.5 
Q 17.71875 10.359375 21.1875 8.171875 
Q 24.65625 6 28.46875 6 
Q 34.03125 6 38.03125 10.484375 
Q 42.046875 14.984375 42.046875 22.703125 
Q 42.046875 30.125 38.078125 34.390625 
Q 34.125 38.671875 28.125 38.671875 
Q 22.171875 38.671875 18.015625 34.390625 
Q 13.875 30.125 13.875 23.1875 
z
" id="ArialMT-54"/>
      </defs>
      <g style="fill:#262626;" transform="translate(233.046207 253.540938)scale(0.1 -0.1)">
       <use xlink:href="#ArialMT-48"/>
       <use x="55.615234" xlink:href="#ArialMT-46"/>
       <use x="83.398438" xlink:href="#ArialMT-54"/>
      </g>
     </g>
    </g>
    <g id="xtick_5">
     <g id="line2d_9">
      <path clip-path="url(#p1cc34b844b)" d="M 300.868935 239.383125 
L 300.868935 21.943125 
" style="fill:none;stroke:#cccccc;stroke-linecap:round;"/>
     </g>
     <g id="line2d_10"/>
     <g id="text_5">
      <!-- 0.8 -->
      <defs>
       <path d="M 17.671875 38.8125 
Q 12.203125 40.828125 9.5625 44.53125 
Q 6.9375 48.25 6.9375 53.421875 
Q 6.9375 61.234375 12.546875 66.546875 
Q 18.171875 71.875 27.484375 71.875 
Q 36.859375 71.875 42.578125 66.421875 
Q 48.296875 60.984375 48.296875 53.171875 
Q 48.296875 48.1875 45.671875 44.5 
Q 43.0625 40.828125 37.75 38.8125 
Q 44.34375 36.671875 47.78125 31.875 
Q 51.21875 27.09375 51.21875 20.453125 
Q 51.21875 11.28125 44.71875 5.03125 
Q 38.234375 -1.21875 27.640625 -1.21875 
Q 17.046875 -1.21875 10.546875 5.046875 
Q 4.046875 11.328125 4.046875 20.703125 
Q 4.046875 27.6875 7.59375 32.390625 
Q 11.140625 37.109375 17.671875 38.8125 
z
M 15.921875 53.71875 
Q 15.921875 48.640625 19.1875 45.40625 
Q 22.46875 42.1875 27.6875 42.1875 
Q 32.765625 42.1875 36.015625 45.375 
Q 39.265625 48.578125 39.265625 53.21875 
Q 39.265625 58.0625 35.90625 61.359375 
Q 32.5625 64.65625 27.59375 64.65625 
Q 22.5625 64.65625 19.234375 61.421875 
Q 15.921875 58.203125 15.921875 53.71875 
z
M 13.09375 20.65625 
Q 13.09375 16.890625 14.875 13.375 
Q 16.65625 9.859375 20.171875 7.921875 
Q 23.6875 6 27.734375 6 
Q 34.03125 6 38.125 10.046875 
Q 42.234375 14.109375 42.234375 20.359375 
Q 42.234375 26.703125 38.015625 30.859375 
Q 33.796875 35.015625 27.4375 35.015625 
Q 21.234375 35.015625 17.15625 30.90625 
Q 13.09375 26.8125 13.09375 20.65625 
z
" id="ArialMT-56"/>
      </defs>
      <g style="fill:#262626;" transform="translate(293.918935 253.540938)scale(0.1 -0.1)">
       <use xlink:href="#ArialMT-48"/>
       <use x="55.615234" xlink:href="#ArialMT-46"/>
       <use x="83.398438" xlink:href="#ArialMT-56"/>
      </g>
     </g>
    </g>
    <g id="xtick_6">
     <g id="line2d_11">
      <path clip-path="url(#p1cc34b844b)" d="M 361.741662 239.383125 
L 361.741662 21.943125 
" style="fill:none;stroke:#cccccc;stroke-linecap:round;"/>
     </g>
     <g id="line2d_12"/>
     <g id="text_6">
      <!-- 1.0 -->
      <defs>
       <path d="M 37.25 0 
L 28.46875 0 
L 28.46875 56 
Q 25.296875 52.984375 20.140625 49.953125 
Q 14.984375 46.921875 10.890625 45.40625 
L 10.890625 53.90625 
Q 18.265625 57.375 23.78125 62.296875 
Q 29.296875 67.234375 31.59375 71.875 
L 37.25 71.875 
z
" id="ArialMT-49"/>
      </defs>
      <g style="fill:#262626;" transform="translate(354.791662 253.540938)scale(0.1 -0.1)">
       <use xlink:href="#ArialMT-49"/>
       <use x="55.615234" xlink:href="#ArialMT-46"/>
       <use x="83.398438" xlink:href="#ArialMT-48"/>
      </g>
     </g>
    </g>
    <g id="text_7">
     <!-- False positive rate -->
     <defs>
      <path d="M 8.203125 0 
L 8.203125 71.578125 
L 56.5 71.578125 
L 56.5 63.140625 
L 17.671875 63.140625 
L 17.671875 40.96875 
L 51.265625 40.96875 
L 51.265625 32.515625 
L 17.671875 32.515625 
L 17.671875 0 
z
" id="ArialMT-70"/>
      <path d="M 40.4375 6.390625 
Q 35.546875 2.25 31.03125 0.53125 
Q 26.515625 -1.171875 21.34375 -1.171875 
Q 12.796875 -1.171875 8.203125 3 
Q 3.609375 7.171875 3.609375 13.671875 
Q 3.609375 17.484375 5.34375 20.625 
Q 7.078125 23.78125 9.890625 25.6875 
Q 12.703125 27.59375 16.21875 28.5625 
Q 18.796875 29.25 24.03125 29.890625 
Q 34.671875 31.15625 39.703125 32.90625 
Q 39.75 34.71875 39.75 35.203125 
Q 39.75 40.578125 37.25 42.78125 
Q 33.890625 45.75 27.25 45.75 
Q 21.046875 45.75 18.09375 43.578125 
Q 15.140625 41.40625 13.71875 35.890625 
L 5.125 37.0625 
Q 6.296875 42.578125 8.984375 45.96875 
Q 11.671875 49.359375 16.75 51.1875 
Q 21.828125 53.03125 28.515625 53.03125 
Q 35.15625 53.03125 39.296875 51.46875 
Q 43.453125 49.90625 45.40625 47.53125 
Q 47.359375 45.171875 48.140625 41.546875 
Q 48.578125 39.3125 48.578125 33.453125 
L 48.578125 21.734375 
Q 48.578125 9.46875 49.140625 6.21875 
Q 49.703125 2.984375 51.375 0 
L 42.1875 0 
Q 40.828125 2.734375 40.4375 6.390625 
z
M 39.703125 26.03125 
Q 34.90625 24.078125 25.34375 22.703125 
Q 19.921875 21.921875 17.671875 20.9375 
Q 15.4375 19.96875 14.203125 18.09375 
Q 12.984375 16.21875 12.984375 13.921875 
Q 12.984375 10.40625 15.640625 8.0625 
Q 18.3125 5.71875 23.4375 5.71875 
Q 28.515625 5.71875 32.46875 7.9375 
Q 36.421875 10.15625 38.28125 14.015625 
Q 39.703125 17 39.703125 22.796875 
z
" id="ArialMT-97"/>
      <path d="M 6.390625 0 
L 6.390625 71.578125 
L 15.1875 71.578125 
L 15.1875 0 
z
" id="ArialMT-108"/>
      <path d="M 3.078125 15.484375 
L 11.765625 16.84375 
Q 12.5 11.625 15.84375 8.84375 
Q 19.1875 6.0625 25.203125 6.0625 
Q 31.25 6.0625 34.171875 8.515625 
Q 37.109375 10.984375 37.109375 14.3125 
Q 37.109375 17.28125 34.515625 19 
Q 32.71875 20.171875 25.53125 21.96875 
Q 15.875 24.421875 12.140625 26.203125 
Q 8.40625 27.984375 6.46875 31.125 
Q 4.546875 34.28125 4.546875 38.09375 
Q 4.546875 41.546875 6.125 44.5 
Q 7.71875 47.46875 10.453125 49.421875 
Q 12.5 50.921875 16.03125 51.96875 
Q 19.578125 53.03125 23.640625 53.03125 
Q 29.734375 53.03125 34.34375 51.265625 
Q 38.96875 49.515625 41.15625 46.5 
Q 43.359375 43.5 44.1875 38.484375 
L 35.59375 37.3125 
Q 35.015625 41.3125 32.203125 43.546875 
Q 29.390625 45.796875 24.265625 45.796875 
Q 18.21875 45.796875 15.625 43.796875 
Q 13.03125 41.796875 13.03125 39.109375 
Q 13.03125 37.40625 14.109375 36.03125 
Q 15.1875 34.625 17.484375 33.6875 
Q 18.796875 33.203125 25.25 31.453125 
Q 34.578125 28.953125 38.25 27.359375 
Q 41.9375 25.78125 44.03125 22.75 
Q 46.140625 19.734375 46.140625 15.234375 
Q 46.140625 10.84375 43.578125 6.953125 
Q 41.015625 3.078125 36.171875 0.953125 
Q 31.34375 -1.171875 25.25 -1.171875 
Q 15.140625 -1.171875 9.84375 3.03125 
Q 4.546875 7.234375 3.078125 15.484375 
z
" id="ArialMT-115"/>
      <path d="M 42.09375 16.703125 
L 51.171875 15.578125 
Q 49.03125 7.625 43.21875 3.21875 
Q 37.40625 -1.171875 28.375 -1.171875 
Q 17 -1.171875 10.328125 5.828125 
Q 3.65625 12.84375 3.65625 25.484375 
Q 3.65625 38.578125 10.390625 45.796875 
Q 17.140625 53.03125 27.875 53.03125 
Q 38.28125 53.03125 44.875 45.953125 
Q 51.46875 38.875 51.46875 26.03125 
Q 51.46875 25.25 51.421875 23.6875 
L 12.75 23.6875 
Q 13.234375 15.140625 17.578125 10.59375 
Q 21.921875 6.0625 28.421875 6.0625 
Q 33.25 6.0625 36.671875 8.59375 
Q 40.09375 11.140625 42.09375 16.703125 
z
M 13.234375 30.90625 
L 42.1875 30.90625 
Q 41.609375 37.453125 38.875 40.71875 
Q 34.671875 45.796875 27.984375 45.796875 
Q 21.921875 45.796875 17.796875 41.75 
Q 13.671875 37.703125 13.234375 30.90625 
z
" id="ArialMT-101"/>
      <path id="ArialMT-32"/>
      <path d="M 6.59375 -19.875 
L 6.59375 51.859375 
L 14.59375 51.859375 
L 14.59375 45.125 
Q 17.4375 49.078125 21 51.046875 
Q 24.5625 53.03125 29.640625 53.03125 
Q 36.28125 53.03125 41.359375 49.609375 
Q 46.4375 46.1875 49.015625 39.953125 
Q 51.609375 33.734375 51.609375 26.3125 
Q 51.609375 18.359375 48.75 11.984375 
Q 45.90625 5.609375 40.453125 2.21875 
Q 35.015625 -1.171875 29 -1.171875 
Q 24.609375 -1.171875 21.109375 0.6875 
Q 17.625 2.546875 15.375 5.375 
L 15.375 -19.875 
z
M 14.546875 25.640625 
Q 14.546875 15.625 18.59375 10.84375 
Q 22.65625 6.0625 28.421875 6.0625 
Q 34.28125 6.0625 38.453125 11.015625 
Q 42.625 15.96875 42.625 26.375 
Q 42.625 36.28125 38.546875 41.203125 
Q 34.46875 46.140625 28.8125 46.140625 
Q 23.1875 46.140625 18.859375 40.890625 
Q 14.546875 35.640625 14.546875 25.640625 
z
" id="ArialMT-112"/>
      <path d="M 3.328125 25.921875 
Q 3.328125 40.328125 11.328125 47.265625 
Q 18.015625 53.03125 27.640625 53.03125 
Q 38.328125 53.03125 45.109375 46.015625 
Q 51.90625 39.015625 51.90625 26.65625 
Q 51.90625 16.65625 48.90625 10.90625 
Q 45.90625 5.171875 40.15625 2 
Q 34.421875 -1.171875 27.640625 -1.171875 
Q 16.75 -1.171875 10.03125 5.8125 
Q 3.328125 12.796875 3.328125 25.921875 
z
M 12.359375 25.921875 
Q 12.359375 15.96875 16.703125 11.015625 
Q 21.046875 6.0625 27.640625 6.0625 
Q 34.1875 6.0625 38.53125 11.03125 
Q 42.875 16.015625 42.875 26.21875 
Q 42.875 35.84375 38.5 40.796875 
Q 34.125 45.75 27.640625 45.75 
Q 21.046875 45.75 16.703125 40.8125 
Q 12.359375 35.890625 12.359375 25.921875 
z
" id="ArialMT-111"/>
      <path d="M 6.640625 61.46875 
L 6.640625 71.578125 
L 15.4375 71.578125 
L 15.4375 61.46875 
z
M 6.640625 0 
L 6.640625 51.859375 
L 15.4375 51.859375 
L 15.4375 0 
z
" id="ArialMT-105"/>
      <path d="M 25.78125 7.859375 
L 27.046875 0.09375 
Q 23.34375 -0.6875 20.40625 -0.6875 
Q 15.625 -0.6875 12.984375 0.828125 
Q 10.359375 2.34375 9.28125 4.8125 
Q 8.203125 7.28125 8.203125 15.1875 
L 8.203125 45.015625 
L 1.765625 45.015625 
L 1.765625 51.859375 
L 8.203125 51.859375 
L 8.203125 64.703125 
L 16.9375 69.96875 
L 16.9375 51.859375 
L 25.78125 51.859375 
L 25.78125 45.015625 
L 16.9375 45.015625 
L 16.9375 14.703125 
Q 16.9375 10.9375 17.40625 9.859375 
Q 17.875 8.796875 18.921875 8.15625 
Q 19.96875 7.515625 21.921875 7.515625 
Q 23.390625 7.515625 25.78125 7.859375 
z
" id="ArialMT-116"/>
      <path d="M 21 0 
L 1.265625 51.859375 
L 10.546875 51.859375 
L 21.6875 20.796875 
Q 23.484375 15.765625 25 10.359375 
Q 26.171875 14.453125 28.265625 20.21875 
L 39.796875 51.859375 
L 48.828125 51.859375 
L 29.203125 0 
z
" id="ArialMT-118"/>
      <path d="M 6.5 0 
L 6.5 51.859375 
L 14.40625 51.859375 
L 14.40625 44 
Q 17.4375 49.515625 20 51.265625 
Q 22.5625 53.03125 25.640625 53.03125 
Q 30.078125 53.03125 34.671875 50.203125 
L 31.640625 42.046875 
Q 28.421875 43.953125 25.203125 43.953125 
Q 22.3125 43.953125 20.015625 42.21875 
Q 17.71875 40.484375 16.75 37.40625 
Q 15.28125 32.71875 15.28125 27.15625 
L 15.28125 0 
z
" id="ArialMT-114"/>
     </defs>
     <g style="fill:#262626;" transform="translate(164.931641 267.402031)scale(0.11 -0.11)">
      <use xlink:href="#ArialMT-70"/>
      <use x="61.083984" xlink:href="#ArialMT-97"/>
      <use x="116.699219" xlink:href="#ArialMT-108"/>
      <use x="138.916016" xlink:href="#ArialMT-115"/>
      <use x="188.916016" xlink:href="#ArialMT-101"/>
      <use x="244.53125" xlink:href="#ArialMT-32"/>
      <use x="272.314453" xlink:href="#ArialMT-112"/>
      <use x="327.929688" xlink:href="#ArialMT-111"/>
      <use x="383.544922" xlink:href="#ArialMT-115"/>
      <use x="433.544922" xlink:href="#ArialMT-105"/>
      <use x="455.761719" xlink:href="#ArialMT-116"/>
      <use x="483.544922" xlink:href="#ArialMT-105"/>
      <use x="505.761719" xlink:href="#ArialMT-118"/>
      <use x="555.761719" xlink:href="#ArialMT-101"/>
      <use x="611.376953" xlink:href="#ArialMT-32"/>
      <use x="639.160156" xlink:href="#ArialMT-114"/>
      <use x="672.460938" xlink:href="#ArialMT-97"/>
      <use x="728.076172" xlink:href="#ArialMT-116"/>
      <use x="755.859375" xlink:href="#ArialMT-101"/>
     </g>
    </g>
   </g>
   <g id="matplotlib.axis_2">
    <g id="ytick_1">
     <g id="line2d_13">
      <path clip-path="url(#p1cc34b844b)" d="M 42.159844 229.499489 
L 376.959844 229.499489 
" style="fill:none;stroke:#cccccc;stroke-linecap:round;"/>
     </g>
     <g id="line2d_14"/>
     <g id="text_8">
      <!-- 0.0 -->
      <g style="fill:#262626;" transform="translate(21.259844 233.078395)scale(0.1 -0.1)">
       <use xlink:href="#ArialMT-48"/>
       <use x="55.615234" xlink:href="#ArialMT-46"/>
       <use x="83.398438" xlink:href="#ArialMT-48"/>
      </g>
     </g>
    </g>
    <g id="ytick_2">
     <g id="line2d_15">
      <path clip-path="url(#p1cc34b844b)" d="M 42.159844 189.964943 
L 376.959844 189.964943 
" style="fill:none;stroke:#cccccc;stroke-linecap:round;"/>
     </g>
     <g id="line2d_16"/>
     <g id="text_9">
      <!-- 0.2 -->
      <g style="fill:#262626;" transform="translate(21.259844 193.543849)scale(0.1 -0.1)">
       <use xlink:href="#ArialMT-48"/>
       <use x="55.615234" xlink:href="#ArialMT-46"/>
       <use x="83.398438" xlink:href="#ArialMT-50"/>
      </g>
     </g>
    </g>
    <g id="ytick_3">
     <g id="line2d_17">
      <path clip-path="url(#p1cc34b844b)" d="M 42.159844 150.430398 
L 376.959844 150.430398 
" style="fill:none;stroke:#cccccc;stroke-linecap:round;"/>
     </g>
     <g id="line2d_18"/>
     <g id="text_10">
      <!-- 0.4 -->
      <g style="fill:#262626;" transform="translate(21.259844 154.009304)scale(0.1 -0.1)">
       <use xlink:href="#ArialMT-48"/>
       <use x="55.615234" xlink:href="#ArialMT-46"/>
       <use x="83.398438" xlink:href="#ArialMT-52"/>
      </g>
     </g>
    </g>
    <g id="ytick_4">
     <g id="line2d_19">
      <path clip-path="url(#p1cc34b844b)" d="M 42.159844 110.895852 
L 376.959844 110.895852 
" style="fill:none;stroke:#cccccc;stroke-linecap:round;"/>
     </g>
     <g id="line2d_20"/>
     <g id="text_11">
      <!-- 0.6 -->
      <g style="fill:#262626;" transform="translate(21.259844 114.474759)scale(0.1 -0.1)">
       <use xlink:href="#ArialMT-48"/>
       <use x="55.615234" xlink:href="#ArialMT-46"/>
       <use x="83.398438" xlink:href="#ArialMT-54"/>
      </g>
     </g>
    </g>
    <g id="ytick_5">
     <g id="line2d_21">
      <path clip-path="url(#p1cc34b844b)" d="M 42.159844 71.361307 
L 376.959844 71.361307 
" style="fill:none;stroke:#cccccc;stroke-linecap:round;"/>
     </g>
     <g id="line2d_22"/>
     <g id="text_12">
      <!-- 0.8 -->
      <g style="fill:#262626;" transform="translate(21.259844 74.940213)scale(0.1 -0.1)">
       <use xlink:href="#ArialMT-48"/>
       <use x="55.615234" xlink:href="#ArialMT-46"/>
       <use x="83.398438" xlink:href="#ArialMT-56"/>
      </g>
     </g>
    </g>
    <g id="ytick_6">
     <g id="line2d_23">
      <path clip-path="url(#p1cc34b844b)" d="M 42.159844 31.826761 
L 376.959844 31.826761 
" style="fill:none;stroke:#cccccc;stroke-linecap:round;"/>
     </g>
     <g id="line2d_24"/>
     <g id="text_13">
      <!-- 1.0 -->
      <g style="fill:#262626;" transform="translate(21.259844 35.405668)scale(0.1 -0.1)">
       <use xlink:href="#ArialMT-49"/>
       <use x="55.615234" xlink:href="#ArialMT-46"/>
       <use x="83.398438" xlink:href="#ArialMT-48"/>
      </g>
     </g>
    </g>
    <g id="text_14">
     <!-- True positive rate -->
     <defs>
      <path d="M 25.921875 0 
L 25.921875 63.140625 
L 2.34375 63.140625 
L 2.34375 71.578125 
L 59.078125 71.578125 
L 59.078125 63.140625 
L 35.40625 63.140625 
L 35.40625 0 
z
" id="ArialMT-84"/>
      <path d="M 40.578125 0 
L 40.578125 7.625 
Q 34.515625 -1.171875 24.125 -1.171875 
Q 19.53125 -1.171875 15.546875 0.578125 
Q 11.578125 2.34375 9.640625 5 
Q 7.71875 7.671875 6.9375 11.53125 
Q 6.390625 14.109375 6.390625 19.734375 
L 6.390625 51.859375 
L 15.1875 51.859375 
L 15.1875 23.09375 
Q 15.1875 16.21875 15.71875 13.8125 
Q 16.546875 10.359375 19.234375 8.375 
Q 21.921875 6.390625 25.875 6.390625 
Q 29.828125 6.390625 33.296875 8.421875 
Q 36.765625 10.453125 38.203125 13.9375 
Q 39.65625 17.4375 39.65625 24.078125 
L 39.65625 51.859375 
L 48.4375 51.859375 
L 48.4375 0 
z
" id="ArialMT-117"/>
     </defs>
     <g style="fill:#262626;" transform="translate(15.073594 172.944375)rotate(-90)scale(0.11 -0.11)">
      <use xlink:href="#ArialMT-84"/>
      <use x="57.333984" xlink:href="#ArialMT-114"/>
      <use x="90.634766" xlink:href="#ArialMT-117"/>
      <use x="146.25" xlink:href="#ArialMT-101"/>
      <use x="201.865234" xlink:href="#ArialMT-32"/>
      <use x="229.648438" xlink:href="#ArialMT-112"/>
      <use x="285.263672" xlink:href="#ArialMT-111"/>
      <use x="340.878906" xlink:href="#ArialMT-115"/>
      <use x="390.878906" xlink:href="#ArialMT-105"/>
      <use x="413.095703" xlink:href="#ArialMT-116"/>
      <use x="440.878906" xlink:href="#ArialMT-105"/>
      <use x="463.095703" xlink:href="#ArialMT-118"/>
      <use x="513.095703" xlink:href="#ArialMT-101"/>
      <use x="568.710938" xlink:href="#ArialMT-32"/>
      <use x="596.494141" xlink:href="#ArialMT-114"/>
      <use x="629.794922" xlink:href="#ArialMT-97"/>
      <use x="685.410156" xlink:href="#ArialMT-116"/>
      <use x="713.193359" xlink:href="#ArialMT-101"/>
     </g>
    </g>
   </g>
   <g id="line2d_25">
    <path clip-path="url(#p1cc34b844b)" d="M 57.378026 229.499489 
L 57.378026 229.373982 
L 57.586422 229.373982 
L 57.690621 227.993411 
L 57.794819 227.993411 
L 57.899018 227.365878 
L 58.003216 227.365878 
L 58.003216 226.23632 
L 58.211613 226.23632 
L 58.315812 225.734294 
L 58.524208 225.734294 
L 58.628407 224.855748 
L 59.253597 224.855748 
L 59.357796 223.224164 
L 59.461994 223.224164 
L 59.566193 222.596631 
L 59.670391 222.596631 
L 59.77459 221.59258 
L 59.878788 221.59258 
L 59.982987 221.090554 
L 60.191383 221.090554 
L 60.191383 220.839541 
L 60.39978 220.839541 
L 60.503979 220.588528 
L 60.920772 220.588528 
L 60.920772 220.463021 
L 61.129169 220.463021 
L 61.129169 220.337515 
L 61.441765 220.337515 
L 61.545963 219.709982 
L 61.75436 219.709982 
L 61.75436 218.70593 
L 61.962757 218.70593 
L 62.066955 217.827385 
L 62.171154 217.827385 
L 62.275352 216.823333 
L 62.379551 216.823333 
L 62.483749 216.070294 
L 62.587947 216.070294 
L 62.587947 215.944787 
L 62.900543 215.944787 
L 63.004741 215.066242 
L 63.213138 215.066242 
L 63.317337 213.936683 
L 63.421535 213.936683 
L 63.421535 213.309151 
L 63.629932 213.309151 
L 63.73413 212.179593 
L 63.942527 212.179593 
L 64.046726 211.55206 
L 64.255122 211.55206 
L 64.359321 210.924528 
L 64.463519 210.924528 
L 64.567718 210.296995 
L 64.671916 210.296995 
L 64.776115 209.794969 
L 65.08871 209.794969 
L 65.08871 209.669463 
L 65.401305 209.669463 
L 65.505504 209.04193 
L 65.609702 209.04193 
L 65.609702 208.790917 
L 65.922297 208.790917 
L 65.922297 208.414398 
L 66.130694 208.414398 
L 66.130694 208.288891 
L 66.339091 208.288891 
L 66.339091 208.163385 
L 66.860083 208.163385 
L 66.860083 208.037878 
L 67.06848 208.037878 
L 67.172679 207.661359 
L 67.485274 207.661359 
L 67.485274 207.535852 
L 67.693671 207.535852 
L 67.797869 207.033826 
L 68.006266 207.033826 
L 68.006266 206.5318 
L 68.214663 206.5318 
L 68.214663 206.155281 
L 68.42306 206.155281 
L 68.42306 205.904268 
L 68.631457 205.904268 
L 68.735655 205.025722 
L 69.048251 205.025722 
L 69.048251 204.523696 
L 69.256647 204.523696 
L 69.256647 204.272683 
L 69.569243 204.272683 
L 69.569243 204.02167 
L 69.77764 204.02167 
L 69.77764 203.770657 
L 70.194433 203.770657 
L 70.194433 203.645151 
L 70.40283 203.645151 
L 70.507029 202.390086 
L 70.611227 202.390086 
L 70.715426 202.013567 
L 70.819624 202.013567 
L 70.819624 201.637047 
L 71.028021 201.637047 
L 71.132219 201.386034 
L 71.340616 201.386034 
L 71.444815 200.507489 
L 71.75741 200.507489 
L 71.861608 199.628943 
L 71.965807 199.628943 
L 71.965807 199.37793 
L 72.174204 199.37793 
L 72.278402 198.750398 
L 72.382601 198.750398 
L 72.486799 198.373878 
L 72.590997 198.373878 
L 72.590997 198.122865 
L 72.799394 198.122865 
L 72.903593 197.495333 
L 73.007791 197.495333 
L 73.007791 196.365774 
L 73.216188 196.365774 
L 73.216188 196.240268 
L 73.528783 196.240268 
L 73.528783 196.114761 
L 73.945577 196.114761 
L 73.945577 195.738242 
L 74.153974 195.738242 
L 74.258172 195.361722 
L 74.570768 195.361722 
L 74.570768 195.236216 
L 74.883363 195.236216 
L 74.987562 193.981151 
L 75.195958 193.981151 
L 75.195958 193.730138 
L 75.508554 193.730138 
L 75.508554 193.353619 
L 75.716951 193.353619 
L 75.716951 193.228112 
L 75.925347 193.228112 
L 75.925347 193.102606 
L 76.550538 193.102606 
L 76.550538 192.851593 
L 76.758935 192.851593 
L 76.863133 191.220008 
L 76.967332 191.220008 
L 77.07153 190.717982 
L 77.175729 190.717982 
L 77.175729 190.592476 
L 77.696721 190.592476 
L 77.800919 189.839437 
L 77.905118 189.839437 
L 78.009316 189.337411 
L 78.113515 189.337411 
L 78.113515 189.086398 
L 78.42611 189.086398 
L 78.530308 188.584372 
L 78.634507 188.584372 
L 78.738705 187.831333 
L 79.363896 187.831333 
L 79.363896 187.329307 
L 79.572293 187.329307 
L 79.676491 186.450761 
L 79.78069 186.450761 
L 79.884888 185.321203 
L 80.093285 185.321203 
L 80.093285 185.195696 
L 80.301682 185.195696 
L 80.40588 184.066138 
L 80.510079 184.066138 
L 80.614277 183.438606 
L 80.718476 183.438606 
L 80.718476 183.313099 
L 80.926872 183.313099 
L 81.031071 183.062086 
L 81.135269 183.062086 
L 81.239468 182.56006 
L 81.656262 182.56006 
L 81.656262 182.309047 
L 81.864658 182.309047 
L 81.968857 181.556008 
L 82.489849 181.556008 
L 82.489849 181.430502 
L 82.698246 181.430502 
L 82.802444 180.928476 
L 82.906643 180.928476 
L 82.906643 180.551956 
L 83.11504 180.551956 
L 83.219238 179.673411 
L 83.323437 179.673411 
L 83.323437 179.547904 
L 83.74023 179.547904 
L 83.844429 179.045878 
L 84.052826 179.045878 
L 84.157024 178.794865 
L 84.469619 178.794865 
L 84.469619 178.543852 
L 84.678016 178.543852 
L 84.782215 177.5398 
L 85.09481 177.5398 
L 85.199008 177.037774 
L 85.824199 177.037774 
L 85.928397 176.661255 
L 86.136794 176.661255 
L 86.240993 176.284735 
L 86.44939 176.284735 
L 86.44939 175.908216 
L 86.657787 175.908216 
L 86.761985 175.531696 
L 86.866183 175.531696 
L 86.970382 175.280683 
L 87.07458 175.280683 
L 87.07458 174.527644 
L 87.491374 174.527644 
L 87.491374 174.402138 
L 87.803969 174.402138 
L 87.803969 174.025619 
L 88.012366 174.025619 
L 88.116565 173.398086 
L 88.637557 173.398086 
L 88.741755 173.021567 
L 89.054351 173.021567 
L 89.158549 172.770554 
L 89.262747 172.770554 
L 89.366946 172.143021 
L 89.575343 172.143021 
L 89.679541 171.892008 
L 89.78374 171.892008 
L 89.887938 171.640995 
L 90.096335 171.640995 
L 90.096335 170.636943 
L 90.304732 170.636943 
L 90.40893 170.009411 
L 90.721526 170.009411 
L 90.721526 169.883904 
L 90.929922 169.883904 
L 90.929922 169.632891 
L 91.659312 169.632891 
L 91.659312 169.507385 
L 91.867708 169.507385 
L 91.867708 169.381878 
L 92.284502 169.381878 
L 92.284502 168.754346 
L 92.492899 168.754346 
L 92.597097 168.503333 
L 92.701296 168.503333 
L 92.701296 168.25232 
L 93.013891 168.25232 
L 93.11809 167.8758 
L 93.326487 167.8758 
L 93.430685 167.624787 
L 93.534883 167.624787 
L 93.639082 166.871748 
L 93.951677 166.871748 
L 93.951677 166.620735 
L 94.160074 166.620735 
L 94.264272 165.867696 
L 94.368471 165.867696 
L 94.472669 164.612631 
L 94.681066 164.612631 
L 94.785265 163.985099 
L 94.889463 163.985099 
L 94.993662 163.60858 
L 95.202058 163.60858 
L 95.202058 163.357567 
L 95.410455 163.357567 
L 95.410455 163.106554 
L 95.723051 163.106554 
L 95.827249 162.479021 
L 95.931447 162.479021 
L 96.035646 162.102502 
L 96.139844 162.102502 
L 96.244043 161.600476 
L 96.348241 161.600476 
L 96.348241 161.349463 
L 96.660837 161.349463 
L 96.660837 161.223956 
L 96.869233 161.223956 
L 96.869233 160.972943 
L 97.390226 160.972943 
L 97.390226 160.72193 
L 97.598622 160.72193 
L 97.598622 160.219904 
L 97.911218 160.219904 
L 97.911218 159.968891 
L 98.43221 159.968891 
L 98.536408 159.466865 
L 98.744805 159.466865 
L 98.849004 158.839333 
L 99.057401 158.839333 
L 99.161599 158.462813 
L 99.474194 158.462813 
L 99.474194 157.960787 
L 99.890988 157.960787 
L 99.890988 157.709774 
L 100.203583 157.709774 
L 100.203583 157.584268 
L 100.620377 157.584268 
L 100.620377 156.956735 
L 100.932973 156.956735 
L 101.037171 156.580216 
L 101.141369 156.580216 
L 101.141369 156.329203 
L 101.453965 156.329203 
L 101.558163 155.576164 
L 101.76656 155.576164 
L 101.76656 155.450657 
L 102.079155 155.450657 
L 102.079155 155.325151 
L 102.287552 155.325151 
L 102.287552 155.199644 
L 102.600148 155.199644 
L 102.600148 154.823125 
L 102.808544 154.823125 
L 102.808544 154.697619 
L 103.016941 154.697619 
L 103.016941 154.446606 
L 103.225338 154.446606 
L 103.225338 154.195593 
L 103.537933 154.195593 
L 103.642132 153.819073 
L 103.850529 153.819073 
L 103.954727 153.56806 
L 104.058926 153.56806 
L 104.163124 153.191541 
L 104.371521 153.191541 
L 104.475719 152.689515 
L 104.579918 152.689515 
L 104.579918 151.810969 
L 104.788315 151.810969 
L 104.788315 151.685463 
L 105.10091 151.685463 
L 105.205108 150.555904 
L 105.309307 150.555904 
L 105.413505 150.304891 
L 105.726101 150.304891 
L 105.830299 149.928372 
L 106.351291 149.928372 
L 106.351291 149.677359 
L 106.559688 149.677359 
L 106.559688 149.551852 
L 106.768085 149.551852 
L 106.768085 149.426346 
L 106.976482 149.426346 
L 107.08068 149.175333 
L 107.289077 149.175333 
L 107.393276 148.171281 
L 107.601673 148.171281 
L 107.705871 147.669255 
L 107.914268 147.669255 
L 107.914268 147.543748 
L 108.122665 147.543748 
L 108.122665 146.916216 
L 108.331062 146.916216 
L 108.331062 146.790709 
L 108.956252 146.790709 
L 108.956252 146.41419 
L 109.164649 146.41419 
L 109.268848 146.163177 
L 109.477244 146.163177 
L 109.581443 145.912164 
L 109.78984 145.912164 
L 109.78984 145.661151 
L 110.102435 145.661151 
L 110.102435 145.284631 
L 110.310832 145.284631 
L 110.310832 145.033619 
L 110.727626 145.033619 
L 110.727626 144.908112 
L 111.248618 144.908112 
L 111.352816 144.531593 
L 111.457015 144.531593 
L 111.561213 144.28058 
L 111.978007 144.28058 
L 112.082205 143.778554 
L 112.186404 143.778554 
L 112.186404 143.653047 
L 112.915793 143.653047 
L 113.019991 143.276528 
L 113.12419 143.276528 
L 113.12419 143.151021 
L 113.540983 143.151021 
L 113.540983 143.025515 
L 113.957777 143.025515 
L 114.061976 142.397982 
L 114.374571 142.397982 
L 114.374571 142.272476 
L 114.791365 142.272476 
L 114.895563 142.021463 
L 115.10396 142.021463 
L 115.208158 141.519437 
L 115.416555 141.519437 
L 115.416555 141.268424 
L 115.624952 141.268424 
L 115.729151 140.891904 
L 116.145944 140.891904 
L 116.145944 140.640891 
L 116.45854 140.640891 
L 116.562738 140.389878 
L 116.666937 140.389878 
L 116.666937 140.264372 
L 116.875333 140.264372 
L 116.875333 140.013359 
L 117.08373 140.013359 
L 117.187929 138.8838 
L 117.604723 138.8838 
L 117.708921 138.381774 
L 117.813119 138.381774 
L 117.813119 138.256268 
L 118.021516 138.256268 
L 118.125715 137.879748 
L 118.229913 137.879748 
L 118.334112 137.503229 
L 118.646707 137.503229 
L 118.646707 137.377722 
L 118.959302 137.377722 
L 119.063501 137.001203 
L 119.167699 137.001203 
L 119.167699 136.875696 
L 119.376096 136.875696 
L 119.376096 136.624683 
L 119.584493 136.624683 
L 119.688691 136.248164 
L 119.79289 136.248164 
L 119.897088 135.997151 
L 120.209683 135.997151 
L 120.313882 134.993099 
L 120.41808 134.993099 
L 120.522279 134.742086 
L 120.626477 134.742086 
L 120.626477 134.365567 
L 120.939073 134.365567 
L 120.939073 133.989047 
L 121.251668 133.989047 
L 121.355866 133.236008 
L 121.876858 133.236008 
L 121.876858 132.859489 
L 122.085255 132.859489 
L 122.189454 132.357463 
L 122.606248 132.357463 
L 122.606248 132.231956 
L 123.023041 132.231956 
L 123.12724 131.353411 
L 123.335637 131.353411 
L 123.439835 131.102398 
L 123.648232 131.102398 
L 123.75243 130.851385 
L 123.856629 130.851385 
L 123.856629 130.600372 
L 124.065026 130.600372 
L 124.065026 130.349359 
L 124.377621 130.349359 
L 124.377621 130.223852 
L 124.690216 130.223852 
L 124.690216 130.098346 
L 125.002812 130.098346 
L 125.002812 129.972839 
L 125.211208 129.972839 
L 125.315407 129.721826 
L 125.523804 129.721826 
L 125.523804 129.59632 
L 125.732201 129.59632 
L 125.836399 129.345307 
L 126.044796 129.345307 
L 126.044796 129.2198 
L 126.253193 129.2198 
L 126.357391 128.968787 
L 126.46159 128.968787 
L 126.46159 128.466761 
L 126.669987 128.466761 
L 126.669987 128.341255 
L 126.878383 128.341255 
L 126.982582 127.839229 
L 127.190979 127.839229 
L 127.295177 127.337203 
L 127.399376 127.337203 
L 127.503574 127.08619 
L 127.711971 127.08619 
L 127.816169 126.70967 
L 127.920368 126.70967 
L 127.920368 126.458657 
L 128.232963 126.458657 
L 128.232963 125.956631 
L 128.545558 125.956631 
L 128.649757 125.329099 
L 128.962352 125.329099 
L 129.066551 125.078086 
L 130.108535 125.078086 
L 130.108535 124.95258 
L 130.316932 124.95258 
L 130.316932 124.827073 
L 130.525329 124.827073 
L 130.629527 124.199541 
L 130.733726 124.199541 
L 130.733726 124.074034 
L 131.150519 124.074034 
L 131.150519 123.823021 
L 131.463115 123.823021 
L 131.463115 123.697515 
L 131.77571 123.697515 
L 131.77571 123.069982 
L 132.088305 123.069982 
L 132.088305 122.944476 
L 132.296702 122.944476 
L 132.400901 122.44245 
L 132.817694 122.44245 
L 132.921893 122.06593 
L 133.026091 122.06593 
L 133.13029 121.814917 
L 133.234488 121.814917 
L 133.338687 121.187385 
L 133.442885 121.187385 
L 133.442885 121.061878 
L 133.75548 121.061878 
L 133.75548 120.810865 
L 133.963877 120.810865 
L 134.068076 120.434346 
L 134.380671 120.434346 
L 134.380671 120.057826 
L 134.589068 120.057826 
L 134.589068 119.93232 
L 134.797465 119.93232 
L 134.901663 119.5558 
L 135.214258 119.5558 
L 135.214258 119.430294 
L 135.526854 119.430294 
L 135.631052 119.053774 
L 135.839449 119.053774 
L 135.943648 118.802761 
L 136.047846 118.802761 
L 136.047846 118.551748 
L 136.46464 118.551748 
L 136.568838 118.300735 
L 136.777235 118.300735 
L 136.881433 117.924216 
L 137.402426 117.924216 
L 137.506624 117.673203 
L 137.610823 117.673203 
L 137.610823 117.547696 
L 137.923418 117.547696 
L 137.923418 117.42219 
L 138.131815 117.42219 
L 138.236013 117.171177 
L 138.652807 117.171177 
L 138.757005 116.794657 
L 139.277998 116.794657 
L 139.277998 116.543644 
L 139.486394 116.543644 
L 139.486394 116.041619 
L 139.79899 116.041619 
L 139.903188 115.539593 
L 140.215783 115.539593 
L 140.319982 115.163073 
L 140.528379 115.163073 
L 140.632577 114.786554 
L 140.840974 114.786554 
L 140.840974 114.661047 
L 141.257768 114.661047 
L 141.257768 114.284528 
L 141.570363 114.284528 
L 141.570363 114.159021 
L 141.882958 114.159021 
L 141.882958 113.908008 
L 142.299752 113.908008 
L 142.299752 113.782502 
L 142.612348 113.782502 
L 142.716546 113.280476 
L 142.924943 113.280476 
L 142.924943 113.154969 
L 143.237538 113.154969 
L 143.341737 112.903956 
L 143.550134 112.903956 
L 143.550134 112.527437 
L 143.75853 112.527437 
L 143.862729 112.276424 
L 143.966927 112.276424 
L 143.966927 112.150917 
L 144.383721 112.150917 
L 144.383721 111.899904 
L 144.800515 111.899904 
L 144.904713 110.770346 
L 145.217309 110.770346 
L 145.321507 110.393826 
L 145.529904 110.393826 
L 145.634102 110.017307 
L 145.842499 110.017307 
L 145.842499 109.640787 
L 146.050896 109.640787 
L 146.050896 109.515281 
L 146.363491 109.515281 
L 146.46769 108.762242 
L 146.676087 108.762242 
L 146.780285 108.511229 
L 146.884484 108.511229 
L 146.884484 108.385722 
L 147.09288 108.385722 
L 147.09288 108.134709 
L 147.301277 108.134709 
L 147.301277 107.507177 
L 147.613873 107.507177 
L 147.718071 107.005151 
L 147.822269 107.005151 
L 147.926468 106.628631 
L 148.030666 106.628631 
L 148.134865 106.126606 
L 148.239063 106.126606 
L 148.343262 105.62458 
L 148.655857 105.62458 
L 148.760055 105.373567 
L 149.385246 105.373567 
L 149.489444 104.997047 
L 150.114635 104.997047 
L 150.218834 104.244008 
L 150.531429 104.244008 
L 150.531429 104.118502 
L 150.739826 104.118502 
L 150.844024 103.741982 
L 150.948223 103.741982 
L 150.948223 103.490969 
L 151.156619 103.490969 
L 151.156619 103.365463 
L 151.469215 103.365463 
L 151.573413 102.863437 
L 151.677612 102.863437 
L 151.78181 102.486917 
L 151.886009 102.486917 
L 151.990207 102.235904 
L 152.302802 102.235904 
L 152.302802 102.110398 
L 152.511199 102.110398 
L 152.615398 101.482865 
L 152.719596 101.482865 
L 152.719596 101.231852 
L 152.927993 101.231852 
L 153.032191 100.980839 
L 153.240588 100.980839 
L 153.240588 100.855333 
L 153.553184 100.855333 
L 153.553184 100.729826 
L 153.76158 100.729826 
L 153.76158 100.60432 
L 154.386771 100.60432 
L 154.490969 99.851281 
L 154.595168 99.851281 
L 154.595168 99.474761 
L 154.907763 99.474761 
L 155.011962 99.223748 
L 155.220359 99.223748 
L 155.220359 99.098242 
L 156.158144 99.098242 
L 156.262343 98.721722 
L 156.366541 98.721722 
L 156.366541 98.596216 
L 156.574938 98.596216 
L 156.679137 98.09419 
L 156.887534 98.09419 
L 156.887534 97.71767 
L 157.616923 97.71767 
L 157.616923 97.215644 
L 157.929518 97.215644 
L 158.033716 96.964631 
L 158.242113 96.964631 
L 158.242113 96.839125 
L 158.658907 96.839125 
L 158.658907 96.713619 
L 158.867304 96.713619 
L 158.867304 96.462606 
L 159.179899 96.462606 
L 159.284098 95.96058 
L 159.492494 95.96058 
L 159.596693 95.333047 
L 159.700891 95.333047 
L 159.700891 95.207541 
L 160.013487 95.207541 
L 160.013487 94.831021 
L 160.326082 94.831021 
L 160.326082 94.705515 
L 160.534479 94.705515 
L 160.534479 94.328995 
L 160.742876 94.328995 
L 160.847074 92.948424 
L 160.951273 92.948424 
L 160.951273 92.571904 
L 161.159669 92.571904 
L 161.159669 92.195385 
L 161.889059 92.195385 
L 161.993257 91.818865 
L 162.097455 91.818865 
L 162.097455 91.693359 
L 162.305852 91.693359 
L 162.305852 91.567852 
L 162.826844 91.567852 
L 162.931043 91.316839 
L 163.868829 91.316839 
L 163.973027 91.065826 
L 164.077226 91.065826 
L 164.077226 90.94032 
L 164.285623 90.94032 
L 164.285623 90.814813 
L 164.494019 90.814813 
L 164.494019 90.5638 
L 165.223409 90.5638 
L 165.223409 90.438294 
L 165.848599 90.438294 
L 165.848599 90.312787 
L 166.369591 90.312787 
L 166.369591 90.061774 
L 166.577988 90.061774 
L 166.577988 89.936268 
L 166.786385 89.936268 
L 166.890584 89.685255 
L 166.994782 89.685255 
L 167.09898 89.308735 
L 167.411576 89.308735 
L 167.515774 88.932216 
L 167.828369 88.932216 
L 167.828369 88.681203 
L 168.036766 88.681203 
L 168.036766 88.555696 
L 168.870354 88.555696 
L 168.974552 88.179177 
L 169.182949 88.179177 
L 169.182949 88.05367 
L 169.599743 88.05367 
L 169.703941 87.677151 
L 170.43333 87.677151 
L 170.43333 87.551644 
L 170.641727 87.551644 
L 170.745926 86.924112 
L 171.162719 86.924112 
L 171.266918 86.673099 
L 171.475315 86.673099 
L 171.475315 86.547593 
L 171.78791 86.547593 
L 171.892109 85.794554 
L 171.996307 85.794554 
L 172.100505 85.418034 
L 172.725696 85.418034 
L 172.829894 85.041515 
L 172.934093 85.041515 
L 172.934093 84.790502 
L 173.350887 84.790502 
L 173.350887 84.539489 
L 173.559284 84.539489 
L 173.559284 83.911956 
L 173.76768 83.911956 
L 173.76768 83.78645 
L 174.080276 83.78645 
L 174.080276 83.660943 
L 174.601268 83.660943 
L 174.601268 83.535437 
L 174.913863 83.535437 
L 175.018062 83.158917 
L 175.226459 83.158917 
L 175.226459 83.033411 
L 175.434855 83.033411 
L 175.539054 82.782398 
L 175.955848 82.782398 
L 176.060046 82.029359 
L 176.164244 82.029359 
L 176.164244 81.903852 
L 176.685237 81.903852 
L 176.685237 81.778346 
L 177.310427 81.778346 
L 177.310427 81.527333 
L 177.831419 81.527333 
L 177.831419 81.401826 
L 178.560809 81.401826 
L 178.665007 81.025307 
L 179.081801 81.025307 
L 179.081801 80.648787 
L 179.602793 80.648787 
L 179.602793 80.523281 
L 180.123785 80.523281 
L 180.227984 80.272268 
L 180.332182 80.272268 
L 180.332182 80.146761 
L 180.644777 80.146761 
L 180.644777 79.895748 
L 180.853174 79.895748 
L 180.853174 79.770242 
L 181.269968 79.770242 
L 181.269968 79.644735 
L 181.478365 79.644735 
L 181.582563 79.268216 
L 182.311952 79.268216 
L 182.311952 79.142709 
L 182.832944 79.142709 
L 182.832944 79.017203 
L 183.14554 79.017203 
L 183.249738 78.76619 
L 183.353937 78.76619 
L 183.353937 78.515177 
L 183.562334 78.515177 
L 183.666532 78.264164 
L 183.979127 78.264164 
L 183.979127 78.138657 
L 184.187524 78.138657 
L 184.187524 78.013151 
L 184.395921 78.013151 
L 184.395921 77.887644 
L 184.812715 77.887644 
L 184.916913 77.636631 
L 185.229509 77.636631 
L 185.333707 77.260112 
L 185.542104 77.260112 
L 185.646302 77.009099 
L 185.958898 77.009099 
L 186.063096 76.758086 
L 186.792485 76.758086 
L 186.792485 76.63258 
L 187.10508 76.63258 
L 187.10508 76.381567 
L 187.938668 76.381567 
L 188.042866 75.377515 
L 188.147065 75.377515 
L 188.147065 75.252008 
L 188.563859 75.252008 
L 188.563859 75.126502 
L 188.772255 75.126502 
L 188.772255 75.000995 
L 189.81424 75.000995 
L 189.81424 74.875489 
L 190.43943 74.875489 
L 190.43943 74.749982 
L 190.856224 74.749982 
L 190.960423 74.373463 
L 191.273018 74.373463 
L 191.273018 74.247956 
L 191.481415 74.247956 
L 191.481415 74.12245 
L 192.835995 74.12245 
L 192.940193 73.369411 
L 193.044391 73.369411 
L 193.14859 72.992891 
L 193.669582 72.992891 
L 193.77378 72.490865 
L 194.086376 72.490865 
L 194.190574 71.988839 
L 194.294773 71.988839 
L 194.294773 71.863333 
L 194.50317 71.863333 
L 194.50317 71.61232 
L 194.815765 71.61232 
L 194.815765 71.486813 
L 195.024162 71.486813 
L 195.024162 71.361307 
L 195.961948 71.361307 
L 195.961948 71.2358 
L 196.170345 71.2358 
L 196.274543 70.984787 
L 196.691337 70.984787 
L 196.691337 70.859281 
L 197.212329 70.859281 
L 197.212329 70.608268 
L 197.83752 70.608268 
L 197.941718 70.357255 
L 198.566909 70.357255 
L 198.566909 69.855229 
L 199.608893 69.855229 
L 199.713091 69.604216 
L 199.81729 69.604216 
L 199.921488 69.227696 
L 200.129885 69.227696 
L 200.234084 68.976683 
L 200.338282 68.976683 
L 200.338282 68.851177 
L 200.650877 68.851177 
L 200.650877 68.72567 
L 201.484465 68.72567 
L 201.588663 68.098138 
L 201.692862 68.098138 
L 201.79706 67.596112 
L 202.005457 67.596112 
L 202.109655 67.345099 
L 202.213854 67.345099 
L 202.213854 67.219593 
L 202.422251 67.219593 
L 202.422251 66.96858 
L 202.839045 66.96858 
L 202.943243 66.59206 
L 203.047441 66.59206 
L 203.047441 66.466554 
L 203.464235 66.466554 
L 203.568434 66.090034 
L 203.672632 66.090034 
L 203.672632 65.964528 
L 204.193624 65.964528 
L 204.297823 65.462502 
L 204.402021 65.462502 
L 204.402021 65.336995 
L 205.13141 65.336995 
L 205.13141 65.211489 
L 205.444005 65.211489 
L 205.548204 64.834969 
L 205.652402 64.834969 
L 205.652402 64.709463 
L 206.069196 64.709463 
L 206.173395 64.45845 
L 206.277593 64.45845 
L 206.381791 63.956424 
L 207.11118 63.956424 
L 207.11118 63.705411 
L 207.944768 63.705411 
L 207.944768 63.454398 
L 208.46576 63.454398 
L 208.569959 63.077878 
L 208.778355 63.077878 
L 208.778355 62.826865 
L 208.986752 62.826865 
L 209.090951 62.450346 
L 209.195149 62.450346 
L 209.299348 61.446294 
L 209.611943 61.446294 
L 209.611943 61.320787 
L 210.028737 61.320787 
L 210.028737 61.195281 
L 210.44553 61.195281 
L 210.44553 61.069774 
L 212.008507 61.069774 
L 212.008507 60.944268 
L 212.216904 60.944268 
L 212.321102 60.316735 
L 212.425301 60.316735 
L 212.425301 60.191229 
L 213.050491 60.191229 
L 213.15469 59.814709 
L 213.258888 59.814709 
L 213.258888 59.689203 
L 213.571484 59.689203 
L 213.571484 59.563696 
L 213.77988 59.563696 
L 213.77988 59.43819 
L 214.50927 59.43819 
L 214.613468 59.06167 
L 214.821865 59.06167 
L 214.821865 58.936164 
L 215.238659 58.936164 
L 215.238659 58.810657 
L 215.863849 58.810657 
L 215.863849 58.685151 
L 217.010032 58.685151 
L 217.11423 58.308631 
L 217.322627 58.308631 
L 217.322627 58.183125 
L 217.739421 58.183125 
L 217.739421 58.057619 
L 218.46881 58.057619 
L 218.46881 57.932112 
L 218.781405 57.932112 
L 218.781405 57.555593 
L 218.989802 57.555593 
L 218.989802 57.430086 
L 219.510795 57.430086 
L 219.510795 57.30458 
L 220.656977 57.30458 
L 220.656977 57.179073 
L 221.073771 57.179073 
L 221.073771 56.92806 
L 221.386366 56.92806 
L 221.386366 56.802554 
L 222.115755 56.802554 
L 222.115755 56.426034 
L 222.532549 56.426034 
L 222.532549 56.300528 
L 223.15774 56.300528 
L 223.15774 56.175021 
L 223.887129 56.175021 
L 223.887129 55.924008 
L 224.095526 55.924008 
L 224.095526 55.672995 
L 224.408121 55.672995 
L 224.408121 55.547489 
L 224.824915 55.547489 
L 224.824915 55.421982 
L 225.033312 55.421982 
L 225.033312 55.296476 
L 225.450105 55.296476 
L 225.450105 55.170969 
L 225.971098 55.170969 
L 225.971098 54.668943 
L 226.179495 54.668943 
L 226.283693 54.41793 
L 227.429876 54.41793 
L 227.534074 54.166917 
L 227.84667 54.166917 
L 227.84667 54.041411 
L 228.680257 54.041411 
L 228.784455 53.664891 
L 228.992852 53.664891 
L 228.992852 53.539385 
L 229.305448 53.539385 
L 229.409646 53.288372 
L 229.618043 53.288372 
L 229.618043 53.162865 
L 229.82644 53.162865 
L 229.930638 52.911852 
L 230.45163 52.911852 
L 230.45163 52.660839 
L 230.972623 52.660839 
L 230.972623 52.535333 
L 231.285218 52.535333 
L 231.285218 52.158813 
L 231.702012 52.158813 
L 231.80621 51.9078 
L 233.16079 51.9078 
L 233.16079 51.782294 
L 233.681782 51.782294 
L 233.681782 51.656787 
L 233.890179 51.656787 
L 233.994377 51.405774 
L 234.411171 51.405774 
L 234.51537 51.029255 
L 234.827965 51.029255 
L 234.932163 50.652735 
L 235.661552 50.652735 
L 235.661552 50.401722 
L 236.599338 50.401722 
L 236.599338 50.276216 
L 237.016132 50.276216 
L 237.120331 50.025203 
L 237.328727 50.025203 
L 237.328727 49.899696 
L 237.641323 49.899696 
L 237.641323 49.77419 
L 238.370712 49.77419 
L 238.370712 49.648683 
L 239.412696 49.648683 
L 239.412696 49.523177 
L 240.350482 49.523177 
L 240.350482 49.272164 
L 241.392466 49.272164 
L 241.392466 49.146657 
L 242.330252 49.146657 
L 242.330252 49.021151 
L 242.851245 49.021151 
L 242.955443 48.770138 
L 243.059641 48.770138 
L 243.059641 48.644631 
L 243.580634 48.644631 
L 243.580634 48.393619 
L 243.997427 48.393619 
L 243.997427 48.268112 
L 244.310023 48.268112 
L 244.310023 48.142606 
L 244.51842 48.142606 
L 244.51842 48.017099 
L 244.831015 48.017099 
L 244.831015 47.766086 
L 245.872999 47.766086 
L 245.872999 47.389567 
L 246.081396 47.389567 
L 246.081396 47.26406 
L 246.289793 47.26406 
L 246.289793 47.138554 
L 247.227579 47.138554 
L 247.227579 46.887541 
L 247.435976 46.887541 
L 247.435976 46.762034 
L 247.644373 46.762034 
L 247.748571 46.511021 
L 248.165365 46.511021 
L 248.165365 46.385515 
L 248.686357 46.385515 
L 248.686357 46.260008 
L 249.103151 46.260008 
L 249.103151 46.008995 
L 250.145135 46.008995 
L 250.145135 45.883489 
L 250.457731 45.883489 
L 250.561929 45.632476 
L 251.395516 45.632476 
L 251.395516 45.506969 
L 252.229104 45.506969 
L 252.229104 45.381463 
L 252.958493 45.381463 
L 252.958493 45.13045 
L 253.479485 45.13045 
L 253.479485 44.879437 
L 253.687882 44.879437 
L 253.687882 44.75393 
L 254.000477 44.75393 
L 254.000477 44.628424 
L 254.729866 44.628424 
L 254.834065 44.377411 
L 255.563454 44.377411 
L 255.563454 44.251904 
L 256.918034 44.251904 
L 257.022232 43.875385 
L 257.230629 43.875385 
L 257.230629 43.749878 
L 257.543224 43.749878 
L 257.543224 43.624372 
L 257.85582 43.624372 
L 257.85582 43.498865 
L 258.689407 43.498865 
L 258.689407 43.247852 
L 259.731391 43.247852 
L 259.731391 43.122346 
L 260.564979 43.122346 
L 260.669177 42.871333 
L 261.19017 42.871333 
L 261.19017 42.745826 
L 261.398566 42.745826 
L 261.398566 42.62032 
L 266.400091 42.62032 
L 266.400091 42.494813 
L 267.442076 42.494813 
L 267.442076 42.2438 
L 267.650473 42.2438 
L 267.650473 42.118294 
L 268.48406 42.118294 
L 268.48406 41.992787 
L 268.796656 41.992787 
L 268.796656 41.867281 
L 270.255434 41.867281 
L 270.359632 41.616268 
L 272.026807 41.616268 
L 272.026807 41.490761 
L 272.443601 41.490761 
L 272.443601 41.365255 
L 272.651998 41.365255 
L 272.651998 41.239748 
L 272.860395 41.239748 
L 272.860395 41.114242 
L 273.068791 41.114242 
L 273.068791 40.988735 
L 275.673752 40.988735 
L 275.777951 40.612216 
L 276.403141 40.612216 
L 276.403141 40.361203 
L 276.611538 40.361203 
L 276.611538 39.984683 
L 277.445126 39.984683 
L 277.549324 39.73367 
L 277.86192 39.73367 
L 277.86192 39.608164 
L 278.278713 39.608164 
L 278.278713 39.231644 
L 281.613063 39.231644 
L 281.613063 39.106138 
L 281.925659 39.106138 
L 281.925659 38.855125 
L 284.947413 38.855125 
L 284.947413 38.729619 
L 285.364207 38.729619 
L 285.364207 38.604112 
L 285.781001 38.604112 
L 285.781001 38.353099 
L 287.760771 38.353099 
L 287.760771 38.227593 
L 287.969168 38.227593 
L 287.969168 38.102086 
L 289.115351 38.102086 
L 289.115351 37.97658 
L 289.636343 37.97658 
L 289.636343 37.851073 
L 291.095121 37.851073 
L 291.19932 37.60006 
L 292.449701 37.60006 
L 292.449701 37.349047 
L 294.846265 37.349047 
L 294.846265 37.223541 
L 296.930234 37.223541 
L 296.930234 37.098034 
L 297.347027 37.098034 
L 297.347027 36.972528 
L 297.763821 36.972528 
L 297.763821 36.847021 
L 299.951988 36.847021 
L 299.951988 36.721515 
L 301.20237 36.721515 
L 301.20237 36.596008 
L 301.514965 36.596008 
L 301.514965 36.470502 
L 303.18214 36.470502 
L 303.18214 36.344995 
L 303.807331 36.344995 
L 303.807331 36.219489 
L 305.474506 36.219489 
L 305.474506 36.093982 
L 306.203895 36.093982 
L 306.203895 35.968476 
L 308.079467 35.968476 
L 308.079467 35.842969 
L 309.017252 35.842969 
L 309.017252 35.717463 
L 311.413817 35.717463 
L 311.413817 35.46645 
L 311.622213 35.46645 
L 311.622213 35.340943 
L 316.102746 35.340943 
L 316.206945 34.964424 
L 316.623738 34.964424 
L 316.623738 34.838917 
L 319.228699 34.838917 
L 319.228699 34.713411 
L 319.85389 34.713411 
L 319.85389 34.587904 
L 320.687477 34.587904 
L 320.687477 34.462398 
L 328.606559 34.462398 
L 328.606559 34.336891 
L 331.628313 34.336891 
L 331.628313 34.211385 
L 334.441671 34.211385 
L 334.441671 34.085878 
L 335.379457 34.085878 
L 335.379457 33.960372 
L 335.796251 33.960372 
L 335.796251 33.834865 
L 336.52564 33.834865 
L 336.52564 33.709359 
L 337.150831 33.709359 
L 337.150831 33.583852 
L 337.359228 33.583852 
L 337.359228 33.458346 
L 337.88022 33.458346 
L 337.88022 33.332839 
L 338.297013 33.332839 
L 338.297013 33.207333 
L 339.338998 33.207333 
L 339.338998 33.081826 
L 341.006173 33.081826 
L 341.006173 32.95632 
L 342.673348 32.95632 
L 342.673348 32.830813 
L 343.090142 32.830813 
L 343.090142 32.705307 
L 344.444721 32.705307 
L 344.444721 32.5798 
L 345.486706 32.5798 
L 345.486706 32.454294 
L 347.466476 32.454294 
L 347.466476 32.328787 
L 348.300063 32.328787 
L 348.300063 32.203281 
L 350.800826 32.203281 
L 350.800826 32.077774 
L 352.363803 32.077774 
L 352.363803 31.952268 
L 357.261129 31.952268 
L 357.261129 31.826761 
L 361.741662 31.826761 
L 361.741662 31.826761 
" style="fill:none;stroke:#0272a2;stroke-linecap:round;stroke-width:2;"/>
   </g>
   <g id="line2d_26">
    <path clip-path="url(#p1cc34b844b)" d="M 57.378026 229.499489 
L 361.741662 31.826761 
" style="fill:none;stroke:#ee82ee;stroke-dasharray:6.475,2.8;stroke-dashoffset:0;stroke-width:1.75;"/>
   </g>
   <g id="patch_3">
    <path d="M 42.159844 239.383125 
L 42.159844 21.943125 
" style="fill:none;stroke:#cccccc;stroke-linecap:square;stroke-linejoin:miter;stroke-width:1.25;"/>
   </g>
   <g id="patch_4">
    <path d="M 376.959844 239.383125 
L 376.959844 21.943125 
" style="fill:none;stroke:#cccccc;stroke-linecap:square;stroke-linejoin:miter;stroke-width:1.25;"/>
   </g>
   <g id="patch_5">
    <path d="M 42.159844 239.383125 
L 376.959844 239.383125 
" style="fill:none;stroke:#cccccc;stroke-linecap:square;stroke-linejoin:miter;stroke-width:1.25;"/>
   </g>
   <g id="patch_6">
    <path d="M 42.159844 21.943125 
L 376.959844 21.943125 
" style="fill:none;stroke:#cccccc;stroke-linecap:square;stroke-linejoin:miter;stroke-width:1.25;"/>
   </g>
   <g id="text_15">
    <!-- ROC curve for high blood pressure in rf2 model -->
    <defs>
     <path d="M 7.859375 0 
L 7.859375 71.578125 
L 39.59375 71.578125 
Q 49.171875 71.578125 54.140625 69.640625 
Q 59.125 67.71875 62.109375 62.828125 
Q 65.09375 57.953125 65.09375 52.046875 
Q 65.09375 44.4375 60.15625 39.203125 
Q 55.21875 33.984375 44.921875 32.5625 
Q 48.6875 30.765625 50.640625 29 
Q 54.78125 25.203125 58.5 19.484375 
L 70.953125 0 
L 59.03125 0 
L 49.5625 14.890625 
Q 45.40625 21.34375 42.71875 24.75 
Q 40.046875 28.171875 37.921875 29.53125 
Q 35.796875 30.90625 33.59375 31.453125 
Q 31.984375 31.78125 28.328125 31.78125 
L 17.328125 31.78125 
L 17.328125 0 
z
M 17.328125 39.984375 
L 37.703125 39.984375 
Q 44.1875 39.984375 47.84375 41.328125 
Q 51.515625 42.671875 53.421875 45.625 
Q 55.328125 48.578125 55.328125 52.046875 
Q 55.328125 57.125 51.640625 60.390625 
Q 47.953125 63.671875 39.984375 63.671875 
L 17.328125 63.671875 
z
" id="ArialMT-82"/>
     <path d="M 4.828125 34.859375 
Q 4.828125 52.6875 14.390625 62.765625 
Q 23.96875 72.859375 39.109375 72.859375 
Q 49.03125 72.859375 56.984375 68.109375 
Q 64.9375 63.375 69.109375 54.90625 
Q 73.296875 46.4375 73.296875 35.6875 
Q 73.296875 24.8125 68.890625 16.21875 
Q 64.5 7.625 56.4375 3.203125 
Q 48.390625 -1.21875 39.0625 -1.21875 
Q 28.953125 -1.21875 20.984375 3.65625 
Q 13.03125 8.546875 8.921875 16.984375 
Q 4.828125 25.4375 4.828125 34.859375 
z
M 14.59375 34.71875 
Q 14.59375 21.78125 21.546875 14.328125 
Q 28.515625 6.890625 39.015625 6.890625 
Q 49.703125 6.890625 56.609375 14.40625 
Q 63.53125 21.921875 63.53125 35.75 
Q 63.53125 44.484375 60.578125 51 
Q 57.625 57.515625 51.921875 61.109375 
Q 46.234375 64.703125 39.15625 64.703125 
Q 29.109375 64.703125 21.84375 57.78125 
Q 14.59375 50.875 14.59375 34.71875 
z
" id="ArialMT-79"/>
     <path d="M 58.796875 25.09375 
L 68.265625 22.703125 
Q 65.28125 11.03125 57.546875 4.90625 
Q 49.8125 -1.21875 38.625 -1.21875 
Q 27.046875 -1.21875 19.796875 3.484375 
Q 12.546875 8.203125 8.765625 17.140625 
Q 4.984375 26.078125 4.984375 36.328125 
Q 4.984375 47.515625 9.25 55.828125 
Q 13.53125 64.15625 21.40625 68.46875 
Q 29.296875 72.796875 38.765625 72.796875 
Q 49.515625 72.796875 56.828125 67.328125 
Q 64.15625 61.859375 67.046875 51.953125 
L 57.71875 49.75 
Q 55.21875 57.5625 50.484375 61.125 
Q 45.75 64.703125 38.578125 64.703125 
Q 30.328125 64.703125 24.78125 60.734375 
Q 19.234375 56.78125 16.984375 50.109375 
Q 14.75 43.453125 14.75 36.375 
Q 14.75 27.25 17.40625 20.4375 
Q 20.0625 13.625 25.671875 10.25 
Q 31.296875 6.890625 37.84375 6.890625 
Q 45.796875 6.890625 51.3125 11.46875 
Q 56.84375 16.0625 58.796875 25.09375 
z
" id="ArialMT-67"/>
     <path d="M 40.4375 19 
L 49.078125 17.875 
Q 47.65625 8.9375 41.8125 3.875 
Q 35.984375 -1.171875 27.484375 -1.171875 
Q 16.84375 -1.171875 10.375 5.78125 
Q 3.90625 12.75 3.90625 25.734375 
Q 3.90625 34.125 6.6875 40.421875 
Q 9.46875 46.734375 15.15625 49.875 
Q 20.84375 53.03125 27.546875 53.03125 
Q 35.984375 53.03125 41.359375 48.75 
Q 46.734375 44.484375 48.25 36.625 
L 39.703125 35.296875 
Q 38.484375 40.53125 35.375 43.15625 
Q 32.28125 45.796875 27.875 45.796875 
Q 21.234375 45.796875 17.078125 41.03125 
Q 12.9375 36.28125 12.9375 25.984375 
Q 12.9375 15.53125 16.9375 10.796875 
Q 20.953125 6.0625 27.390625 6.0625 
Q 32.5625 6.0625 36.03125 9.234375 
Q 39.5 12.40625 40.4375 19 
z
" id="ArialMT-99"/>
     <path d="M 8.6875 0 
L 8.6875 45.015625 
L 0.921875 45.015625 
L 0.921875 51.859375 
L 8.6875 51.859375 
L 8.6875 57.375 
Q 8.6875 62.59375 9.625 65.140625 
Q 10.890625 68.5625 14.078125 70.671875 
Q 17.28125 72.796875 23.046875 72.796875 
Q 26.765625 72.796875 31.25 71.921875 
L 29.9375 64.265625 
Q 27.203125 64.75 24.75 64.75 
Q 20.75 64.75 19.09375 63.03125 
Q 17.4375 61.328125 17.4375 56.640625 
L 17.4375 51.859375 
L 27.546875 51.859375 
L 27.546875 45.015625 
L 17.4375 45.015625 
L 17.4375 0 
z
" id="ArialMT-102"/>
     <path d="M 6.59375 0 
L 6.59375 71.578125 
L 15.375 71.578125 
L 15.375 45.90625 
Q 21.53125 53.03125 30.90625 53.03125 
Q 36.671875 53.03125 40.921875 50.75 
Q 45.171875 48.484375 47 44.484375 
Q 48.828125 40.484375 48.828125 32.859375 
L 48.828125 0 
L 40.046875 0 
L 40.046875 32.859375 
Q 40.046875 39.453125 37.1875 42.453125 
Q 34.328125 45.453125 29.109375 45.453125 
Q 25.203125 45.453125 21.75 43.421875 
Q 18.3125 41.40625 16.84375 37.9375 
Q 15.375 34.46875 15.375 28.375 
L 15.375 0 
z
" id="ArialMT-104"/>
     <path d="M 4.984375 -4.296875 
L 13.53125 -5.5625 
Q 14.0625 -9.515625 16.5 -11.328125 
Q 19.78125 -13.765625 25.4375 -13.765625 
Q 31.546875 -13.765625 34.859375 -11.328125 
Q 38.1875 -8.890625 39.359375 -4.5 
Q 40.046875 -1.8125 39.984375 6.78125 
Q 34.234375 0 25.640625 0 
Q 14.9375 0 9.078125 7.71875 
Q 3.21875 15.4375 3.21875 26.21875 
Q 3.21875 33.640625 5.90625 39.90625 
Q 8.59375 46.1875 13.6875 49.609375 
Q 18.796875 53.03125 25.6875 53.03125 
Q 34.859375 53.03125 40.828125 45.609375 
L 40.828125 51.859375 
L 48.921875 51.859375 
L 48.921875 7.03125 
Q 48.921875 -5.078125 46.453125 -10.125 
Q 44 -15.1875 38.640625 -18.109375 
Q 33.296875 -21.046875 25.484375 -21.046875 
Q 16.21875 -21.046875 10.5 -16.875 
Q 4.78125 -12.703125 4.984375 -4.296875 
z
M 12.25 26.859375 
Q 12.25 16.65625 16.296875 11.96875 
Q 20.359375 7.28125 26.46875 7.28125 
Q 32.515625 7.28125 36.609375 11.9375 
Q 40.71875 16.609375 40.71875 26.5625 
Q 40.71875 36.078125 36.5 40.90625 
Q 32.28125 45.75 26.3125 45.75 
Q 20.453125 45.75 16.34375 40.984375 
Q 12.25 36.234375 12.25 26.859375 
z
" id="ArialMT-103"/>
     <path d="M 14.703125 0 
L 6.546875 0 
L 6.546875 71.578125 
L 15.328125 71.578125 
L 15.328125 46.046875 
Q 20.90625 53.03125 29.546875 53.03125 
Q 34.328125 53.03125 38.59375 51.09375 
Q 42.875 49.171875 45.625 45.671875 
Q 48.390625 42.1875 49.953125 37.25 
Q 51.515625 32.328125 51.515625 26.703125 
Q 51.515625 13.375 44.921875 6.09375 
Q 38.328125 -1.171875 29.109375 -1.171875 
Q 19.921875 -1.171875 14.703125 6.5 
z
M 14.59375 26.3125 
Q 14.59375 17 17.140625 12.84375 
Q 21.296875 6.0625 28.375 6.0625 
Q 34.125 6.0625 38.328125 11.0625 
Q 42.53125 16.0625 42.53125 25.984375 
Q 42.53125 36.140625 38.5 40.96875 
Q 34.46875 45.796875 28.765625 45.796875 
Q 23 45.796875 18.796875 40.796875 
Q 14.59375 35.796875 14.59375 26.3125 
z
" id="ArialMT-98"/>
     <path d="M 40.234375 0 
L 40.234375 6.546875 
Q 35.296875 -1.171875 25.734375 -1.171875 
Q 19.53125 -1.171875 14.328125 2.25 
Q 9.125 5.671875 6.265625 11.796875 
Q 3.421875 17.921875 3.421875 25.875 
Q 3.421875 33.640625 6 39.96875 
Q 8.59375 46.296875 13.765625 49.65625 
Q 18.953125 53.03125 25.34375 53.03125 
Q 30.03125 53.03125 33.6875 51.046875 
Q 37.359375 49.078125 39.65625 45.90625 
L 39.65625 71.578125 
L 48.390625 71.578125 
L 48.390625 0 
z
M 12.453125 25.875 
Q 12.453125 15.921875 16.640625 10.984375 
Q 20.84375 6.0625 26.5625 6.0625 
Q 32.328125 6.0625 36.34375 10.765625 
Q 40.375 15.484375 40.375 25.140625 
Q 40.375 35.796875 36.265625 40.765625 
Q 32.171875 45.75 26.171875 45.75 
Q 20.3125 45.75 16.375 40.96875 
Q 12.453125 36.1875 12.453125 25.875 
z
" id="ArialMT-100"/>
     <path d="M 6.59375 0 
L 6.59375 51.859375 
L 14.5 51.859375 
L 14.5 44.484375 
Q 20.21875 53.03125 31 53.03125 
Q 35.6875 53.03125 39.625 51.34375 
Q 43.5625 49.65625 45.515625 46.921875 
Q 47.46875 44.1875 48.25 40.4375 
Q 48.734375 37.984375 48.734375 31.890625 
L 48.734375 0 
L 39.9375 0 
L 39.9375 31.546875 
Q 39.9375 36.921875 38.90625 39.578125 
Q 37.890625 42.234375 35.28125 43.8125 
Q 32.671875 45.40625 29.15625 45.40625 
Q 23.53125 45.40625 19.453125 41.84375 
Q 15.375 38.28125 15.375 28.328125 
L 15.375 0 
z
" id="ArialMT-110"/>
     <path d="M 6.59375 0 
L 6.59375 51.859375 
L 14.453125 51.859375 
L 14.453125 44.578125 
Q 16.890625 48.390625 20.9375 50.703125 
Q 25 53.03125 30.171875 53.03125 
Q 35.9375 53.03125 39.625 50.640625 
Q 43.3125 48.25 44.828125 43.953125 
Q 50.984375 53.03125 60.84375 53.03125 
Q 68.5625 53.03125 72.703125 48.75 
Q 76.859375 44.484375 76.859375 35.59375 
L 76.859375 0 
L 68.109375 0 
L 68.109375 32.671875 
Q 68.109375 37.9375 67.25 40.25 
Q 66.40625 42.578125 64.15625 43.984375 
Q 61.921875 45.40625 58.890625 45.40625 
Q 53.421875 45.40625 49.796875 41.765625 
Q 46.1875 38.140625 46.1875 30.125 
L 46.1875 0 
L 37.40625 0 
L 37.40625 33.6875 
Q 37.40625 39.546875 35.25 42.46875 
Q 33.109375 45.40625 28.21875 45.40625 
Q 24.515625 45.40625 21.359375 43.453125 
Q 18.21875 41.5 16.796875 37.734375 
Q 15.375 33.984375 15.375 26.90625 
L 15.375 0 
z
" id="ArialMT-109"/>
    </defs>
    <g style="fill:#262626;" transform="translate(83.843906 15.943125)scale(0.12 -0.12)">
     <use xlink:href="#ArialMT-82"/>
     <use x="72.216797" xlink:href="#ArialMT-79"/>
     <use x="150" xlink:href="#ArialMT-67"/>
     <use x="222.216797" xlink:href="#ArialMT-32"/>
     <use x="250" xlink:href="#ArialMT-99"/>
     <use x="300" xlink:href="#ArialMT-117"/>
     <use x="355.615234" xlink:href="#ArialMT-114"/>
     <use x="388.916016" xlink:href="#ArialMT-118"/>
     <use x="438.916016" xlink:href="#ArialMT-101"/>
     <use x="494.53125" xlink:href="#ArialMT-32"/>
     <use x="522.314453" xlink:href="#ArialMT-102"/>
     <use x="550.097656" xlink:href="#ArialMT-111"/>
     <use x="605.712891" xlink:href="#ArialMT-114"/>
     <use x="639.013672" xlink:href="#ArialMT-32"/>
     <use x="666.796875" xlink:href="#ArialMT-104"/>
     <use x="722.412109" xlink:href="#ArialMT-105"/>
     <use x="744.628906" xlink:href="#ArialMT-103"/>
     <use x="800.244141" xlink:href="#ArialMT-104"/>
     <use x="855.859375" xlink:href="#ArialMT-32"/>
     <use x="883.642578" xlink:href="#ArialMT-98"/>
     <use x="939.257812" xlink:href="#ArialMT-108"/>
     <use x="961.474609" xlink:href="#ArialMT-111"/>
     <use x="1017.089844" xlink:href="#ArialMT-111"/>
     <use x="1072.705078" xlink:href="#ArialMT-100"/>
     <use x="1128.320312" xlink:href="#ArialMT-32"/>
     <use x="1156.103516" xlink:href="#ArialMT-112"/>
     <use x="1211.71875" xlink:href="#ArialMT-114"/>
     <use x="1245.019531" xlink:href="#ArialMT-101"/>
     <use x="1300.634766" xlink:href="#ArialMT-115"/>
     <use x="1350.634766" xlink:href="#ArialMT-115"/>
     <use x="1400.634766" xlink:href="#ArialMT-117"/>
     <use x="1456.25" xlink:href="#ArialMT-114"/>
     <use x="1489.550781" xlink:href="#ArialMT-101"/>
     <use x="1545.166016" xlink:href="#ArialMT-32"/>
     <use x="1572.949219" xlink:href="#ArialMT-105"/>
     <use x="1595.166016" xlink:href="#ArialMT-110"/>
     <use x="1650.78125" xlink:href="#ArialMT-32"/>
     <use x="1678.564453" xlink:href="#ArialMT-114"/>
     <use x="1711.865234" xlink:href="#ArialMT-102"/>
     <use x="1739.648438" xlink:href="#ArialMT-50"/>
     <use x="1795.263672" xlink:href="#ArialMT-32"/>
     <use x="1823.046875" xlink:href="#ArialMT-109"/>
     <use x="1906.347656" xlink:href="#ArialMT-111"/>
     <use x="1961.962891" xlink:href="#ArialMT-100"/>
     <use x="2017.578125" xlink:href="#ArialMT-101"/>
     <use x="2073.193359" xlink:href="#ArialMT-108"/>
    </g>
   </g>
  </g>
 </g>
 <defs>
  <clipPath id="p1cc34b844b">
   <rect height="217.44" width="334.8" x="42.159844" y="21.943125"/>
  </clipPath>
 </defs>
</svg>
